<?xml version="1.0" encoding="utf-8"?>
<!-- Generator: Adobe Illustrator 27.0.0, SVG Export Plug-In . SVG Version: 6.00 Build 0)  -->
<svg version="1.1" id="Capa_1" xmlns="http://www.w3.org/2000/svg" xmlns:xlink="http://www.w3.org/1999/xlink" x="0px" y="0px"
	 viewBox="0 0 620 620" style="enable-background:new 0 0 620 620;" xml:space="preserve">
<style type="text/css">
	.st0{fill:#F1F1EB;}
	.st1{fill:#393839;}
	.st2{fill:url(#SVGID_1_);}
	
		.st3{fill:none;stroke:url(#SVGID_00000029729008905808346230000000873447111325228943_);stroke-width:0.4983;stroke-miterlimit:10;}
	.st4{fill:none;}
	.st5{fill:url(#SVGID_00000042018255507088138110000003201590409448365715_);}
	.st6{fill:url(#SVGID_00000035505148229103888900000001531341428643497142_);}
	.st7{fill:url(#SVGID_00000146466689964855663110000000672972070050033798_);}
	
		.st8{fill:none;stroke:url(#SVGID_00000099662700179567239780000009363288679291755913_);stroke-width:0.4983;stroke-miterlimit:10;}
	.st9{fill:url(#SVGID_00000183239964078132360460000005310044276629081774_);}
	.st10{fill:url(#SVGID_00000093857082392112154420000000024458519704840852_);}
	
		.st11{fill:none;stroke:url(#SVGID_00000182501167215096408250000004033158820108263062_);stroke-width:0.3993;stroke-miterlimit:10;}
	.st12{fill:url(#SVGID_00000023982083069281358180000011615600386753097889_);}
	.st13{fill:url(#SVGID_00000031201386892297769160000003595673270800383638_);}
	
		.st14{fill:none;stroke:url(#SVGID_00000080912152136221701180000014200205119357125277_);stroke-width:0.4983;stroke-miterlimit:10;}
	.st15{fill:url(#SVGID_00000020399404100896842490000014492059063867468982_);}
	.st16{fill:url(#SVGID_00000056418154644250791150000004558953520548447152_);}
	
		.st17{fill:none;stroke:url(#SVGID_00000087374524181829418350000005573846958909584774_);stroke-width:0.4388;stroke-miterlimit:10;}
	.st18{fill:url(#SVGID_00000164497265684181224750000004308698481762806408_);}
	.st19{fill:url(#SVGID_00000030460196216089826650000016546999250666156990_);}
	
		.st20{fill:none;stroke:url(#SVGID_00000150782739743214035920000000420153475956487855_);stroke-width:0.4983;stroke-miterlimit:10;}
	.st21{fill:url(#SVGID_00000039122003771071762160000014882569377778577549_);}
	.st22{fill:url(#SVGID_00000056399388016240379660000010361492653837102781_);}
	
		.st23{fill:none;stroke:url(#SVGID_00000120526789409214749050000011034922195897063358_);stroke-width:0.4983;stroke-miterlimit:10;}
	.st24{fill:url(#SVGID_00000111183666954587456870000008850762264578096816_);}
	.st25{fill:none;stroke:#FFFFFF;stroke-width:0.4487;stroke-miterlimit:10;}
	.st26{fill:#F8BD01;}
	.st27{fill:#AD1917;}
	.st28{fill:url(#SVGID_00000133494954484934073610000010268962363058712473_);}
	.st29{fill:url(#SVGID_00000062175316850696580620000004232517101620149408_);}
	.st30{fill:none;stroke:#1D1D1B;stroke-width:0.2868;stroke-miterlimit:10;}
	.st31{fill:url(#SVGID_00000106827657010781500220000013486531302605003962_);}
	
		.st32{fill:none;stroke:url(#SVGID_00000068673429316647801450000001803133175920362128_);stroke-width:0.3911;stroke-miterlimit:10;}
	.st33{fill:url(#SVGID_00000077291443442656616440000005826336380614450352_);}
	.st34{fill:#FFFFFF;}
	.st35{fill:#676767;}
	.st36{fill:#E1CD5A;}
</style>
<rect x="-1" class="st0" width="622" height="620"/>
<g>
	<path class="st1" d="M190.79,553.83c-1.79,0-3.58,0-5.37,0c-0.68-1.08-1.74-1.32-2.92-1.63c-2.74-0.72-5.4-1.53-7.02-4.34
		c-1.23-2.14-3.04-3.62-5.95-3.2c-1.58,0.23-3.29-0.31-4.06-2.02c-1.89-4.21-5.16-7.54-7.32-11.6c-1.85-3.48-1.99-3.4,0.9-5.89
		c0.18-0.16,0.26-0.43,0.42-0.71c-0.99-0.24-2.69,0.72-2.35-1.44c0.17-1.08,1.62-2.4-0.42-3.07c-1.36-0.44-1.8-2.4-3.2-2.24
		c-3.64,0.41-4.04-2.42-5.16-4.65c-0.89-1.78-0.76-3.32,0.89-4.49c1.43-1.01,1.91-1.94,0.35-3.28c-0.42-0.36-0.56-1.11-0.72-1.71
		c-0.83-3.14-2.68-5.57-5.03-7.76c-4.19-3.88-9.1-6.62-14.08-9.27c-2.38-1.27-4.82-2.39-6.06-5.04c-0.29-0.62-0.81-1.21-1.71-0.91
		c-0.4,0.7,0.86,1.31,0.15,1.94c-0.56,0.5-1.22,0.08-1.76-0.18c-5.25-2.55-10.33-0.82-15.33,0.75c-2,0.63-3.05,0.38-3.65-1.63
		c-0.85-2.84-1.07-5.77-1.38-8.69c-0.41-3.76,0.06-7.77-2.77-10.93c-0.37-0.41-0.56-0.98-0.37-1.51c1.51-4.27,3.02-8.55,4.64-12.78
		c0.26-0.69,1.01-1.26,1.65-1.73c3.57-2.61,5.15-6.34,5.78-10.52c0.33-2.19,1.62-2.87,3.53-2.74c1.13,0.07,2.22,0.18,2.85-0.93
		c0.76-1.34,1.72-1.26,2.95-0.73c1.32,0.56,2.82,0.36,3.01-1.17c0.33-2.65,2.02-4.79,2.34-7.38c0.11-0.93,0.86-2.07-0.11-2.76
		c-1-0.71-2.03,0.06-2.96,0.58c-2.67,1.51-4.34,1.22-5.3-1.57c-1.27-3.67-3.65-6.53-5.99-9.43c-3.08-3.82-3.72-7.73-1.05-12.01
		c0.88-1.41,1.16-2.87,0.65-4.6c-0.49-1.65-0.39-3.62,0.95-4.79c2.02-1.75,3.68-3.89,6.01-5.3c1.53-0.93,3.32-2.54,3.35-3.91
		c0.06-2.98,1.86-4.93,3.04-7.24c0.9-1.75,1.21-3.43,0-5.03c-1.21-1.61-2.65-2.96-4.99-2.29c-1.82,0.53-2.75-0.15-2.71-2.09
		c0.03-1.39-0.8-2.11-2.07-2.41c-2.12-0.5-2.95-1.93-2.67-3.98c0.21-1.59-0.32-2.72-1.51-3.75c-1.99-1.72-2.97-3.73-1.6-6.4
		c0.53-1.03,0.68-2.54-0.5-3.18c-3.09-1.67-4.5-4.95-7.13-7.02c-0.86-0.67-1.62-1.4-2.01-2.45c-0.7-1.88,0.02-3.12,1.9-2.6
		c5.87,1.66,11.69-0.54,17.55,0.13c3.52,0.4,4.36-0.66,5.04-4.1c0.36-1.83,0.27-4.2,1.39-5.35c2.62-2.7,2.92-5.98,3.59-9.28
		c0.92-4.52-0.35-7.47-4.48-9.9c-0.85-0.5-1.27-1.16-1.47-2.1c-0.7-3.39,0.66-5.21,4.67-6.07c3.37-0.71,4.17-3.96,6.06-6.11
		c0.54-0.61,0.04-1.55-0.61-2.15c-2.05-1.91-2.02-4-0.65-6.28c0.92-1.54,2.05-3.07,0.02-4.71c-0.61-0.49-0.44-1.37-0.05-2
		c1.56-2.5,0.81-5.04,0.12-7.53c-0.67-2.41-0.71-4.77,0.06-7.12c0.33-1.01,0.4-1.88-0.24-2.78c-1.6-2.24-2.03-5.12-4.08-7.16
		c-1.07-1.06-0.73-1.95,1-1.86c3.02,0.16,4.41-1.81,5.55-4.22c1.89-3.97,3.23-7.84,8.85-8.97c5.59-1.13,9.09-6.43,12.27-10.93
		c1.85-2.61,3.03-5.81,5.1-8.41c0.55-0.69,1.08-1.42,0.53-2.43c-2.31-4.23-7.73-6.46-12.46-4.95c-2.01,0.64-3.06-0.17-3.76-1.89
		c-0.66-1.62-0.99-3.3-0.12-4.93c1.75-3.26,0.07-6.38-0.36-9.53c-0.15-1.14-1-1.6-2.44-1.03c-2.71,1.08-5.5,1.8-7.65-1.31
		c-0.72-1.03-1.63-0.75-2.4,0.26c-1.63,2.14-3.73,2.16-5.95,1.04c-0.64-0.32-1.28-0.91-1.97-0.52c-2.04,1.15-3.69,0.59-5.4-0.75
		c-1.01-0.79-2.36-0.96-3.56-0.28c-1.22,0.69-1.15,1.93-0.98,3.11c0.19,1.25-0.07,2.26-1.13,3.08c-2.77,2.15-6.26,1.88-9.39,2.84
		c-0.3,0.09-0.85-0.29-1.13-0.6c-1.48-1.62-2.84-1.7-4.61-0.22c-1.07,0.9-2.96,1.97-2.88-1.09c0.02-0.68-0.45-0.81-0.98-1.04
		c-3.3-1.41-6.56-1.44-9.74,0.29c-1.55,0.84-2.72,1.22-2.7-1.24c0-0.56-0.16-1.14-0.76-1.28c-0.65-0.15-0.81,0.46-1.15,0.88
		c-1.92,2.47-4.38,4.33-7.2,5.6c-1.81,0.82-3.34,0.23-3.97-1.87c-0.29-0.95-0.61-1.87-1.44-2.51c-1.18-0.9-0.92-1.96-0.37-3.11
		c0.89-1.86,2.45-3.04,4.05-4.2c0.97-0.7,1.4-1.61,1.07-2.8c-0.3-1.08-1.09-1.79-2.15-1.68c-1.9,0.2-2.55-0.77-2.83-2.39
		c-0.22-1.26-1.12-1.74-2.16-1.09c-3.84,2.43-8.06,3.08-12.5,3.42c-1.81,0.14-3.6,1.36-5.59,1.56c-0.52,0.05-1.08,0.62-1.46,1.08
		c-2.65,3.14-5.51,5.98-8.96,8.35c-2.57,1.77-2.51,0.07-2.61-1.38c-0.25-3.47-0.28-6.96-0.39-10.44c-0.02-0.54-0.02-1.36,0.47-1.44
		c2.48-0.41,2.56-2.66,3.57-4.25c0.75-1.17,1.67-2.27,3.03-2.96c1.04-0.52,2.15-1.18,2.57-2.45c-1.24-0.78-1.97,0.12-2.8,0.55
		c-1.33,0.69-2.68,0.96-4.14,0.46c-0.65-0.22-1.36-0.62-1.02-1.29c0.7-1.36,1.53-3.6,2.51-3.71c3.42-0.39,3.36-4.17,6.43-4.88
		c-1.48-0.97-2.19-0.32-2.66,0.22c-1.34,1.53-3.12,1.17-4.75,1.22c-1.21,0.04-1.79-1.08-2.2-2.08c-0.3-0.72-0.12-1.47,0.67-1.81
		c2.03-0.88,1.91-2.54,1.67-4.29c-0.16-1.16-0.21-2.28,0.61-3.31c2.48-3.13,2.46-3.14-1.14-4.61c-0.34,0.92-0.21,2.85-1.48,2.3
		c-1.98-0.85-2.13,0.23-2.87,1.43c-0.81,1.32-2.28,2.18-2.89,3.75c-0.21,0.53-1.24,1.03-1.58,0.58c-0.96-1.29-2.68-3.28-2.27-4.11
		c1.59-3.27,0.99-7.68,4.85-9.82c0.56-0.31,1.29-1.48,0.41-1.58c-1.32-0.15-2.91-1.44-4.17,0.22c-0.67,0.89-1.23,2.38-2.62,1.15
		c-1.05-0.93-2.5-2.05-0.94-3.79c0.6-0.67,0.4-1.32-0.24-1.86c-0.76-0.63-1.01-1.43-0.88-2.4c0.14-1.02-0.32-2.07-1.22-2.07
		c-1.17,0-2.67-1.14-3.59,0.61c-1,1.89-1.37,0.27-1.91-0.37c0-2.68,0-5.37,0-8.05c1.99-1.58,3.2-4.16,6.19-4.47
		c-2.62-0.91-2.75-1.34-1.28-3.3c1.03-1.38,2.33-1.88,3.98-1.48c1.33,0.32,2.48,0.17,3.36-1c0.52-0.69,1.3-0.93,2.11-1.05
		c1.36-0.2,2.22-0.67,0.83-1.95c-1.23-1.13-0.66-1.73,0.54-1.99c1.09-0.24,1.81-0.9,2.7-1.46c1.55-0.98,3.4-2.43,5.31-0.13
		c0.8,0.97,2.36,1.45,3.47,1.06c3.92-1.37,8.63-0.42,11.8-4.02c1.14-1.29,2.54-1.38,3.64,0.03c1.32,1.7,1.69,0.65,1.96-0.58
		c0.49-2.21,1.69-1.75,3.2-1.09c1.18,0.51,1.4,2.02,2.9,2.51c-0.02-1.97,1.61-4.22-2.05-4.46c-1.63-0.1-2.62-1.97-2.93-3.16
		c-0.45-1.72-0.4-4.1,1.42-5.22c4.03-2.48,8.43-4.43,10.91-8.83c0.19-0.34,0.71-0.71,1.07-0.7c2.44,0.02,4.13-1.48,5.98-2.73
		c1.83-1.24,2.68-0.82,3.11,1.32c0.13,0.65-0.23,1.63,0.66,1.86c0.89,0.23,0.93-1.04,1.55-1.25c2.18-0.75,3.52-3.01,6.82-1.83
		c2.37,0.85,2.02,2.78,3.38,3.79c1.24-1.42,2.33-3.63,4.52-2.25c3.07,1.92,7.04,2.54,8.84,6.44c1.14,2.47,3.4,3.51,6.33,3.7
		c4.12,0.27,8.22-0.59,12.19-0.4c5.94,0.29,11.9-0.38,17.86,0.6c3.24,0.54,6.83,0.2,10.04-0.63c2.94-0.77,5.6-1.39,8.44-0.08
		c2.28,1.05,4.11-0.95,6.1-0.96c2.31-0.01,3.79-0.84,5.42-2.26c2.93-2.55,4.36-2.26,6.86,0.96c1.29,1.67,3.22,3.53,4.87,3.38
		c3.16-0.28,6.23,0.23,9.34,0.17c3.63-0.07,7.46,0.04,10.39,2.88c1.16,1.13,2.45,1.67,4.13,1.28c0.84-0.19,1.77-0.04,2.65,0.07
		c9.55,1.1,18.59,5.08,28.33,5.16c3.98,0.03,7.96,0,11.94-0.02c3.32-0.01,6.23-1.55,9.25-2.6c1.44-0.5,3.2,0.63,4.07-0.42
		c1.96-2.38,4.89-1.44,7.16-2.57c0.58-0.29,1.3-0.1,1.68,0.49c0.53,0.82-0.07,1.32-0.68,1.75c-0.92,0.66-1.24,1.39-0.24,2.54
		c2.35-3.42,6.04-4.4,9.5-5.74c2.31-0.9,3.54,1.06,5.19,1.97c1.51,0.83,0.33,1.51,0.16,2.37c-0.24,1.19,0.79,1.69,1.74,1.53
		c4.59-0.76,8.98-0.8,12.7,2.64c0.42,0.39,1.19,0.69,1.72,0.6c1.97-0.35,3.81,0.07,5.63,0.88c0.18-2.03,0.19-2.02,0.55-2.45
		c3.33-3.91,8.27-2.93,12.5-4.1c0.22-0.06,0.61,0.33,0.86,0.56c1.14,1.06,2.58,1.35,3.97,1.9c2.81,1.1,6.16,1.07,8.45,3.22
		c4.66,4.37,10.54,2.77,15.92,3.58c0.54,0.08,1.16-0.41,1.76-0.59c1.02-0.31,2.05-0.66,3.09-0.88c2.95-0.6,5.92-0.95,8.34-3.17
		c1.2-1.1,2.63-1.4,3.83,0.8c1.03,1.89,2.26,4.4,5.45,3.46c0.94-0.28,1.36,0.62,1.61,1.44c0.63,2.05,1.78,2.24,3.41,0.99
		c1.2-0.92,6.65-0.3,7.47,0.87c0.29,0.41,0.48,1.03,0.42,1.51c-0.31,2.39-0.66,4.86-2.21,6.76c-1.09,1.35-1.96,2.34-0.3,3.78
		c1.8,1.56,3.83,1.73,5.09,0.11c0.83-1.07,1.54-0.92,2.53-0.53c3.37,1.35,6.74,2.74,10.15,3.99c4.22,1.54,8.34,3.78,13.12,2.39
		c0.84-0.24,1.88-0.09,2.08,0.75c0.97,3.95,5.23,4.93,7.12,8.08c0.84,1.4,2.36,2.37,3.93,0.46c0.62-0.75,1.49-0.71,2.19-0.23
		c1.59,1.09,3.01,0.63,4.51-0.19c3.27-1.77,9.73-0.09,11.8,3.04c3.07,4.61,7.78,6.01,12.83,3.31c2.47-1.32,4.16-0.57,5.7,1.02
		c1.24,1.28,2.21,1.42,3.33,0.14c1-1.13,1.99-1.34,3.27-0.47c0.93,0.63,2.06,0.5,3.13,0.51c2.59,0.05,5.2-0.05,7.78,0.17
		c1.83,0.15,2.3-0.54,1.94-2.14c-0.38-1.67-0.57-3.35-0.3-5.06c0.45-2.95,1.11-3.25,3.92-2.43c4.93,1.43,9.51,4.11,14.83,4.19
		c1.25,0.02,2.22,0.75,2.77,1.86c0.97,1.94,2.22,2.48,4.53,2.1c6.55-1.08,10.03,1.19,10.01,9.02c0,0.84,0.02,1.59,0.7,2.2
		c0.52,0.47,0.53,1.03,0.36,1.71c-0.84,3.35,0.97,5.22,4.24,4.26c1.79-0.53,3.67-1.13,5.17-2.18c3.13-2.21,6.35-1.29,9.17-0.07
		c1.97,0.85,4.66,1.16,5.55,4.09c1.11,3.65,4.57,4.17,7.29,1.36c2.23-2.3,6.99-3.34,10-2.09c2.21,0.92,4.53,1.63,6.3,3.45
		c0.79,0.81,1.98,1.56,3.13,1.3c1.97-0.44,3.85-0.58,5.81,0.01c0.76,0.23,1.54-0.08,1.36-1.09c-0.58-3.17,1.66-3.26,3.75-3.48
		c0.88-0.1,1.92,0.16,2.54-0.59c2.36-2.9,5.91-2.07,8.92-2.88c0.54-0.15,1.41-0.03,1.77,0.33c1.35,1.33,2.77,2.16,4.76,1.82
		c0.6-0.1,1.39,0.31,1.3,1.06c-0.42,3.47,1.78,4.18,4.5,4.51c0.96,0.12,2.08,0.44,2.17,1.63c0.24,3.25-2.67,5.4-5.61,4.1
		c-1.5-0.66-2.2-0.02-2.76,1.13c-1.04,2.15-0.25,5.43,1.67,6.94c1.6,1.26,2.54,2.69,1.9,4.86c-0.33,1.12-0.2,2.3,0.26,3.42
		c1.15,2.79,0.85,5.43-1.63,7.1c-2.54,1.71-5.04,3.42-6.83,5.84c-3.16,4.27-8.33,5.31-12.46,7.93c-6.06,3.85-12.92,6.41-19.33,9.78
		c-4.17,2.19-6.79,5.24-8.81,8.89c-1.49,2.68-3.35,4.05-6.09,4.61c-1.75,0.36-3.58,0.38-5.29,0.86
		c-10.04,2.78-20.06,5.62-30.06,8.54c-1.51,0.44-3.29,0.66-4.35,1.95c-1.11,1.34-2.22,1.45-3.9,1.34c-2.3-0.15-4.72,0.48-6.54,2.02
		c-4.59,3.89-7.86,9.01-11.97,13.36c-1.01,1.07-0.42,2.44,0.71,2.48c2.28,0.07,3.3,1.92,4.97,2.77c1.97,1,1.49,2.31,0.12,2.94
		c-2.31,1.06-4.29,2.92-7.06,2.97c-3.35,0.06-6.26,1.35-7.68,4.47c-1.71,3.76-4.15,7.1-5.82,10.85c-2.06,4.64-5.66,8.15-8.84,11.94
		c-1.16,1.37-2.49,2.56-3.08,4.3c-0.69,2.02-1.72,3.68-3.85,4.53c-1,0.4-1.9,1.31-2.04,2.37c-0.69,4.97-3.88,8.47-6.72,12.26
		c-3.77,5.02-5.58,11.13-8.74,16.49c-2.1,3.56-2.38,7.26-1.25,11.1c1.42,4.82,4.15,9.16,4.39,14.44c0.16,3.38,2.24,6.43,3.96,9.31
		c2.19,3.66,4.72,7.07,9.72,7.62c3.61,0.4,5.71,3.26,7.18,6.45c0.24,0.51,0.41,1.1-0.16,1.44c-3.4,2.06-5.73,5.68-9.89,6.66
		c-1.85,0.43-2.77,1.86-3.14,3.66c-0.26,1.26-0.87,2.28-2.25,2.25c-3.19-0.07-5.85,1.6-8.55,2.8c-2.78,1.24-5.66,2.92-5.97,6.65
		c-0.03,0.38-0.36,1-0.64,1.07c-4.54,0.98-4.71,4.2-4.19,7.87c0.19,1.36-0.23,2.67-1.89,2.64c-2.43-0.05-3.23,1.53-3.88,3.39
		c-0.76,2.17-0.77,4.4-0.49,6.63c0.18,1.44-0.14,2.52-1.34,3.52c-2.27,1.9-3.52,4.5-3.88,7.4c-0.15,1.23-0.54,2.02-1.36,2.95
		c-3.84,4.37-3.02,8.45,1.77,9.72c0.7,0.19,1.88-0.38,1.96,0.82c0.08,1.14-0.98,1.55-1.88,2c-2.57,1.3-5.59,1.12-8.12,2.53
		c-0.58,0.32-1.26,0.12-1.75-0.33c-1.64-1.49-3.91-1.36-5.31-0.57c-2.53,1.42-4.42,1.23-7.27,0.65c-4.7-0.96-8.77,2.21-11.44,5.9
		c-1.3,1.8-2.5,2.84-4.43,3.64c-6.29,2.61-9.93,8.18-12.23,13.88c-1.74,4.32-3.49,8.97-4.1,13.78c-0.08,0.64-0.39,1.2-1,1.51
		c-3.39,1.76-4.25,5.51-6.3,8.29c-1.59,2.16-3.35,3.71-5.84,4.23c-2.25,0.48-2.85-1.71-3.49-3.09c-2.39-5.2-6.94-2.62-10.6-3.12
		c-1.61-0.22-3.17,0.43-4.5,1.41c-0.35,0.25-0.58,0.68-0.82,1.05c-4.17,6.66-4.16,6.62-11.96,5.32c-1.18-0.2-1.94-0.73-2.7-1.52
		c-0.67-0.7-1.33-1.61-2.47-1.31c-2.51,0.65-4.98-0.14-7.46-0.05c-4.56,0.17-9.28-0.74-13.45,2.25c-1.44,1.03-3.33,1.07-5.15,0.35
		c-3.24-1.29-6.39-3.25-10.16-1.53c-0.69,0.31-1.82,0.05-2.6-0.29c-2.17-0.93-4.31-0.98-6.52-0.29c-1.84,0.57-3.68,0.55-5.54-0.02
		c-1.03-0.31-2.17-0.43-3.15,0.11c-4.09,2.23-8.45,2.05-12.83,1.45c-1.96-0.27-3.13,0.29-4.15,2.04c-1.67,2.86-2.79,6.33-6.71,7.16
		c-0.5,0.11-1.01,0.78-1.26,1.31c-1.22,2.53-3.51,3.55-5.94,3.28c-4.97-0.56-9.73-0.6-14.11,2.25c-0.36,0.23-0.88,0.2-1.28,0.39
		c-2.78,1.34-6.01,2.05-7.55,5.15c-1.78,3.59-3.52,7.21-5.21,10.85c-0.47,1.02-1,1.77-2.21,1.34c-2.59-0.93-3.23,0.6-2.84,2.55
		c0.53,2.67-0.02,4.3-2.88,4.82C191.8,552.94,191.31,553.49,190.79,553.83z"/>
</g>
<g>
	<radialGradient id="SVGID_1_" cx="247.3164" cy="166.6088" r="29.6496" gradientUnits="userSpaceOnUse">
		<stop  offset="0.0372" style="stop-color:#1E1E1C"/>
		<stop  offset="0.1479" style="stop-color:#434341"/>
		<stop  offset="0.3832" style="stop-color:#8E8C8A"/>
		<stop  offset="0.5518" style="stop-color:#BCB9B8"/>
		<stop  offset="0.6359" style="stop-color:#CECBCA"/>
		<stop  offset="0.6462" style="stop-color:#AEACAB"/>
		<stop  offset="0.6598" style="stop-color:#8B8A88"/>
		<stop  offset="0.6743" style="stop-color:#6E6D6C"/>
		<stop  offset="0.6896" style="stop-color:#585756"/>
		<stop  offset="0.7063" style="stop-color:#484846"/>
		<stop  offset="0.7252" style="stop-color:#3F3F3D"/>
		<stop  offset="0.7514" style="stop-color:#3C3C3A"/>
		<stop  offset="0.9628" style="stop-color:#8B8C8A"/>
	</radialGradient>
	<path class="st2" d="M265.94,166.54c-1.92-27.85-4.75-31.1-6.98-32.89c-7.74-6.19-21.94-5.56-28.4,1.49
		c-2.42,2.65-3.56,5.98-1.49,29.4c2.65,30.05,5.3,33.37,7.97,35.38c7.31,5.51,20.04,5.19,26.41-1
		C265.62,196.82,267.79,193.32,265.94,166.54z M260.04,191.22c-4.82,4.67-14.43,4.92-19.96,0.75c-2.02-1.52-4.02-4.03-6.02-26.73
		c-1.56-17.7-0.7-20.22,1.13-22.22c4.88-5.33,15.62-5.81,21.46-1.13c1.68,1.35,3.82,3.81,5.27,24.85
		C263.32,186.99,261.68,189.63,260.04,191.22z"/>
	
		<radialGradient id="SVGID_00000074425154208232756730000012702269214975873980_" cx="247.8496" cy="166.7995" r="22.6431" gradientUnits="userSpaceOnUse">
		<stop  offset="0.0372" style="stop-color:#1E1E1C"/>
		<stop  offset="0.1479" style="stop-color:#434341"/>
		<stop  offset="0.3832" style="stop-color:#8E8C8A"/>
		<stop  offset="0.5518" style="stop-color:#BCB9B8"/>
		<stop  offset="0.6359" style="stop-color:#CECBCA"/>
		<stop  offset="0.6462" style="stop-color:#AEACAB"/>
		<stop  offset="0.6598" style="stop-color:#8B8A88"/>
		<stop  offset="0.6743" style="stop-color:#6E6D6C"/>
		<stop  offset="0.6896" style="stop-color:#585756"/>
		<stop  offset="0.7063" style="stop-color:#484846"/>
		<stop  offset="0.7252" style="stop-color:#3F3F3D"/>
		<stop  offset="0.7514" style="stop-color:#3C3C3A"/>
		<stop  offset="0.9628" style="stop-color:#8B8C8A"/>
	</radialGradient>
	
		<path style="fill:none;stroke:url(#SVGID_00000074425154208232756730000012702269214975873980_);stroke-width:0.4983;stroke-miterlimit:10;" d="
		M260.04,191.22c-4.82,4.67-14.43,4.92-19.96,0.75c-2.02-1.52-4.02-4.03-6.02-26.73c-1.56-17.7-0.7-20.22,1.13-22.22
		c4.88-5.33,15.62-5.81,21.46-1.13c1.68,1.35,3.82,3.81,5.27,24.85C263.32,186.99,261.68,189.63,260.04,191.22z"/>
	<path class="st4" d="M260.04,191.22c-4.82,4.67-14.43,4.92-19.96,0.75c-2.02-1.52-4.02-4.03-6.02-26.73
		c-1.56-17.7-0.7-20.22,1.13-22.22c4.88-5.33,15.62-5.81,21.46-1.13c1.68,1.35,3.82,3.81,5.27,24.85
		C263.32,186.99,261.68,189.63,260.04,191.22z"/>
</g>
<radialGradient id="SVGID_00000174563976702664837620000006244743184096734897_" cx="247.9377" cy="566.3635" r="23.74" gradientTransform="matrix(1 0 0 0.7066 0 -277.2074)" gradientUnits="userSpaceOnUse">
	<stop  offset="0.0372" style="stop-color:#1E1E1C"/>
	<stop  offset="0.1479" style="stop-color:#434341"/>
	<stop  offset="0.3832" style="stop-color:#8E8C8A"/>
	<stop  offset="0.5518" style="stop-color:#BCB9B8"/>
	<stop  offset="0.6359" style="stop-color:#CECBCA"/>
	<stop  offset="0.6462" style="stop-color:#AEACAB"/>
	<stop  offset="0.6598" style="stop-color:#8B8A88"/>
	<stop  offset="0.6743" style="stop-color:#6E6D6C"/>
	<stop  offset="0.6896" style="stop-color:#585756"/>
	<stop  offset="0.7063" style="stop-color:#484846"/>
	<stop  offset="0.7252" style="stop-color:#3F3F3D"/>
	<stop  offset="0.7514" style="stop-color:#3C3C3A"/>
	<stop  offset="0.9628" style="stop-color:#8B8C8A"/>
</radialGradient>
<path style="fill:url(#SVGID_00000174563976702664837620000006244743184096734897_);" d="M244.29,100.22
	c-2.46,1.63-1.53,5.93-1.07,8.92c1.62,10.6,0.42,25.32,0,30.53c-0.14,1.7-0.44,4.81,1.61,6.11c1.59,1.01,4.34,0.75,5.89-0.47
	c1.63-1.29,1.61-3.43,1.61-4.23c0-8.46,2.62-24.88-1.07-37.1c-0.38-1.24-1.15-3.55-3.21-4.23
	C246.81,99.34,245.28,99.56,244.29,100.22z"/>
<radialGradient id="SVGID_00000154419136141369798980000006476519486800549805_" cx="252.3008" cy="223.4174" r="23.74" gradientUnits="userSpaceOnUse">
	<stop  offset="0.0372" style="stop-color:#1E1E1C"/>
	<stop  offset="0.1479" style="stop-color:#434341"/>
	<stop  offset="0.3832" style="stop-color:#8E8C8A"/>
	<stop  offset="0.5518" style="stop-color:#BCB9B8"/>
	<stop  offset="0.6359" style="stop-color:#CECBCA"/>
	<stop  offset="0.6462" style="stop-color:#AEACAB"/>
	<stop  offset="0.6598" style="stop-color:#8B8A88"/>
	<stop  offset="0.6743" style="stop-color:#6E6D6C"/>
	<stop  offset="0.6896" style="stop-color:#585756"/>
	<stop  offset="0.7063" style="stop-color:#484846"/>
	<stop  offset="0.7252" style="stop-color:#3F3F3D"/>
	<stop  offset="0.7514" style="stop-color:#3C3C3A"/>
	<stop  offset="0.9628" style="stop-color:#8B8C8A"/>
</radialGradient>
<path style="fill:url(#SVGID_00000154419136141369798980000006476519486800549805_);" d="M248.65,191.21
	c-2.46,2.3-1.53,8.4-1.07,12.63c1.62,15.01,0.42,35.83,0,43.21c-0.14,2.4-0.44,6.81,1.61,8.64c1.59,1.42,4.34,1.07,5.89-0.66
	c1.63-1.83,1.61-4.85,1.61-5.98c0-11.97,2.62-35.21-1.07-52.51c-0.38-1.76-1.15-5.02-3.21-5.98
	C251.17,189.98,249.64,190.29,248.65,191.21z"/>
<g>
	
		<radialGradient id="SVGID_00000063628535596716526000000014116560644045797784_" cx="180.5845" cy="-1987.3907" r="29.6496" gradientTransform="matrix(0 1 -1 0 -1627.4398 94.8236)" gradientUnits="userSpaceOnUse">
		<stop  offset="0.0372" style="stop-color:#1E1E1C"/>
		<stop  offset="0.1479" style="stop-color:#434341"/>
		<stop  offset="0.3832" style="stop-color:#8E8C8A"/>
		<stop  offset="0.5518" style="stop-color:#BCB9B8"/>
		<stop  offset="0.6359" style="stop-color:#CECBCA"/>
		<stop  offset="0.6462" style="stop-color:#AEACAB"/>
		<stop  offset="0.6598" style="stop-color:#8B8A88"/>
		<stop  offset="0.6743" style="stop-color:#6E6D6C"/>
		<stop  offset="0.6896" style="stop-color:#585756"/>
		<stop  offset="0.7063" style="stop-color:#484846"/>
		<stop  offset="0.7252" style="stop-color:#3F3F3D"/>
		<stop  offset="0.7514" style="stop-color:#3C3C3A"/>
		<stop  offset="0.9628" style="stop-color:#8B8C8A"/>
	</radialGradient>
	<path style="fill:url(#SVGID_00000063628535596716526000000014116560644045797784_);" d="M360.02,294.03
		c27.85-1.92,31.1-4.75,32.89-6.98c6.19-7.74,5.56-21.94-1.49-28.4c-2.65-2.42-5.98-3.56-29.4-1.49
		c-30.05,2.65-33.37,5.3-35.38,7.97c-5.51,7.31-5.19,20.04,1,26.41C329.74,293.72,333.24,295.88,360.02,294.03z M335.34,288.14
		c-4.67-4.82-4.92-14.43-0.75-19.96c1.52-2.02,4.03-4.02,26.73-6.02c17.7-1.56,20.22-0.7,22.22,1.13
		c5.33,4.88,5.81,15.62,1.13,21.46c-1.35,1.68-3.81,3.82-24.85,5.27C339.57,291.41,336.93,289.77,335.34,288.14z"/>
	
		<radialGradient id="SVGID_00000147210102504828368880000004510328227935289255_" cx="181.1177" cy="-1987.2001" r="22.6431" gradientTransform="matrix(0 1 -1 0 -1627.4398 94.8236)" gradientUnits="userSpaceOnUse">
		<stop  offset="0.0372" style="stop-color:#1E1E1C"/>
		<stop  offset="0.1479" style="stop-color:#434341"/>
		<stop  offset="0.3832" style="stop-color:#8E8C8A"/>
		<stop  offset="0.5518" style="stop-color:#BCB9B8"/>
		<stop  offset="0.6359" style="stop-color:#CECBCA"/>
		<stop  offset="0.6462" style="stop-color:#AEACAB"/>
		<stop  offset="0.6598" style="stop-color:#8B8A88"/>
		<stop  offset="0.6743" style="stop-color:#6E6D6C"/>
		<stop  offset="0.6896" style="stop-color:#585756"/>
		<stop  offset="0.7063" style="stop-color:#484846"/>
		<stop  offset="0.7252" style="stop-color:#3F3F3D"/>
		<stop  offset="0.7514" style="stop-color:#3C3C3A"/>
		<stop  offset="0.9628" style="stop-color:#8B8C8A"/>
	</radialGradient>
	
		<path style="fill:none;stroke:url(#SVGID_00000147210102504828368880000004510328227935289255_);stroke-width:0.4983;stroke-miterlimit:10;" d="
		M335.34,288.14c-4.67-4.82-4.92-14.43-0.75-19.96c1.52-2.02,4.03-4.02,26.73-6.02c17.7-1.56,20.22-0.7,22.22,1.13
		c5.33,4.88,5.81,15.62,1.13,21.46c-1.35,1.68-3.81,3.82-24.85,5.27C339.57,291.41,336.93,289.77,335.34,288.14z"/>
	<path class="st4" d="M335.34,288.14c-4.67-4.82-4.92-14.43-0.75-19.96c1.52-2.02,4.03-4.02,26.73-6.02
		c17.7-1.56,20.22-0.7,22.22,1.13c5.33,4.88,5.81,15.62,1.13,21.46c-1.35,1.68-3.81,3.82-24.85,5.27
		C339.57,291.41,336.93,289.77,335.34,288.14z"/>
</g>
<radialGradient id="SVGID_00000168798098301372046410000004982033354845129885_" cx="185.5689" cy="-1930.582" r="23.74" gradientTransform="matrix(0 1 -1 0 -1627.4398 94.8236)" gradientUnits="userSpaceOnUse">
	<stop  offset="0.0372" style="stop-color:#1E1E1C"/>
	<stop  offset="0.1479" style="stop-color:#434341"/>
	<stop  offset="0.3832" style="stop-color:#8E8C8A"/>
	<stop  offset="0.5518" style="stop-color:#BCB9B8"/>
	<stop  offset="0.6359" style="stop-color:#CECBCA"/>
	<stop  offset="0.6462" style="stop-color:#AEACAB"/>
	<stop  offset="0.6598" style="stop-color:#8B8A88"/>
	<stop  offset="0.6743" style="stop-color:#6E6D6C"/>
	<stop  offset="0.6896" style="stop-color:#585756"/>
	<stop  offset="0.7063" style="stop-color:#484846"/>
	<stop  offset="0.7252" style="stop-color:#3F3F3D"/>
	<stop  offset="0.7514" style="stop-color:#3C3C3A"/>
	<stop  offset="0.9628" style="stop-color:#8B8C8A"/>
</radialGradient>
<path style="fill:url(#SVGID_00000168798098301372046410000004982033354845129885_);" d="M335.35,276.74
	c-2.3-2.46-8.4-1.53-12.63-1.07c-15.01,1.62-35.83,0.42-43.21,0c-2.4-0.14-6.81-0.44-8.64,1.61c-1.42,1.59-1.07,4.34,0.66,5.89
	c1.83,1.63,4.85,1.61,5.98,1.61c11.97,0,35.21,2.62,52.51-1.07c1.76-0.38,5.02-1.15,5.98-3.21
	C336.58,279.26,336.27,277.73,335.35,276.74z"/>
<g>
	
		<radialGradient id="SVGID_00000177459195150747260220000008481872412820607934_" cx="338.3899" cy="-2513.5649" r="29.6496" gradientTransform="matrix(0 0.8634 -0.7438 0 -1409.1115 -23.7612)" gradientUnits="userSpaceOnUse">
		<stop  offset="0.0372" style="stop-color:#1E1E1C"/>
		<stop  offset="0.1479" style="stop-color:#434341"/>
		<stop  offset="0.3832" style="stop-color:#8E8C8A"/>
		<stop  offset="0.5518" style="stop-color:#BCB9B8"/>
		<stop  offset="0.6359" style="stop-color:#CECBCA"/>
		<stop  offset="0.6462" style="stop-color:#AEACAB"/>
		<stop  offset="0.6598" style="stop-color:#8B8A88"/>
		<stop  offset="0.6743" style="stop-color:#6E6D6C"/>
		<stop  offset="0.6896" style="stop-color:#585756"/>
		<stop  offset="0.7063" style="stop-color:#484846"/>
		<stop  offset="0.7252" style="stop-color:#3F3F3D"/>
		<stop  offset="0.7514" style="stop-color:#3C3C3A"/>
		<stop  offset="0.9628" style="stop-color:#8B8C8A"/>
	</radialGradient>
	<path style="fill:url(#SVGID_00000177459195150747260220000008481872412820607934_);" d="M460.65,284.48
		c20.72-1.66,23.14-4.1,24.46-6.02c4.61-6.68,4.14-18.94-1.11-24.52c-1.97-2.09-4.45-3.07-21.87-1.29
		c-22.35,2.29-24.82,4.58-26.32,6.88c-4.1,6.32-3.86,17.3,0.74,22.8C438.12,284.21,440.72,286.08,460.65,284.48z M442.29,279.39
		c-3.47-4.16-3.66-12.46-0.56-17.23c1.13-1.74,3-3.47,19.89-5.2c13.17-1.35,15.04-0.6,16.53,0.98c3.97,4.22,4.32,13.48,0.84,18.53
		c-1,1.45-2.83,3.3-18.48,4.55C445.44,282.23,443.47,280.81,442.29,279.39z"/>
	
		<radialGradient id="SVGID_00000147197876488872028210000002840223646298789046_" cx="338.923" cy="-2513.374" r="22.5959" gradientTransform="matrix(0 0.8634 -0.7438 0 -1409.1115 -23.7612)" gradientUnits="userSpaceOnUse">
		<stop  offset="0.0372" style="stop-color:#1E1E1C"/>
		<stop  offset="0.1479" style="stop-color:#434341"/>
		<stop  offset="0.3832" style="stop-color:#8E8C8A"/>
		<stop  offset="0.5518" style="stop-color:#BCB9B8"/>
		<stop  offset="0.6359" style="stop-color:#CECBCA"/>
		<stop  offset="0.6462" style="stop-color:#AEACAB"/>
		<stop  offset="0.6598" style="stop-color:#8B8A88"/>
		<stop  offset="0.6743" style="stop-color:#6E6D6C"/>
		<stop  offset="0.6896" style="stop-color:#585756"/>
		<stop  offset="0.7063" style="stop-color:#484846"/>
		<stop  offset="0.7252" style="stop-color:#3F3F3D"/>
		<stop  offset="0.7514" style="stop-color:#3C3C3A"/>
		<stop  offset="0.9628" style="stop-color:#8B8C8A"/>
	</radialGradient>
	
		<path style="fill:none;stroke:url(#SVGID_00000147197876488872028210000002840223646298789046_);stroke-width:0.3993;stroke-miterlimit:10;" d="
		M442.29,279.39c-3.47-4.16-3.66-12.46-0.56-17.23c1.13-1.74,3-3.47,19.89-5.2c13.17-1.35,15.04-0.6,16.53,0.98
		c3.97,4.22,4.32,13.48,0.84,18.53c-1,1.45-2.83,3.3-18.48,4.55C445.44,282.23,443.47,280.81,442.29,279.39z"/>
	<path class="st4" d="M442.29,279.39c-3.47-4.16-3.66-12.46-0.56-17.23c1.13-1.74,3-3.47,19.89-5.2c13.17-1.35,15.04-0.6,16.53,0.98
		c3.97,4.22,4.32,13.48,0.84,18.53c-1,1.45-2.83,3.3-18.48,4.55C445.44,282.23,443.47,280.81,442.29,279.39z"/>
</g>
<radialGradient id="SVGID_00000098937348479904321390000001671493494748433059_" cx="181.2058" cy="-2040.756" r="23.74" gradientTransform="matrix(0 1 -1 0 -1627.4398 94.8236)" gradientUnits="userSpaceOnUse">
	<stop  offset="0.0372" style="stop-color:#1E1E1C"/>
	<stop  offset="0.1479" style="stop-color:#434341"/>
	<stop  offset="0.3832" style="stop-color:#8E8C8A"/>
	<stop  offset="0.5518" style="stop-color:#BCB9B8"/>
	<stop  offset="0.6359" style="stop-color:#CECBCA"/>
	<stop  offset="0.6462" style="stop-color:#AEACAB"/>
	<stop  offset="0.6598" style="stop-color:#8B8A88"/>
	<stop  offset="0.6743" style="stop-color:#6E6D6C"/>
	<stop  offset="0.6896" style="stop-color:#585756"/>
	<stop  offset="0.7063" style="stop-color:#484846"/>
	<stop  offset="0.7252" style="stop-color:#3F3F3D"/>
	<stop  offset="0.7514" style="stop-color:#3C3C3A"/>
	<stop  offset="0.9628" style="stop-color:#8B8C8A"/>
</radialGradient>
<path style="fill:url(#SVGID_00000098937348479904321390000001671493494748433059_);" d="M445.52,272.38
	c-2.3-2.46-8.4-1.53-12.63-1.07c-15.01,1.62-35.83,0.42-43.21,0c-2.4-0.14-6.81-0.44-8.64,1.61c-1.42,1.59-1.07,4.34,0.66,5.89
	c1.83,1.63,4.85,1.61,5.98,1.61c11.97,0,35.21,2.62,52.51-1.07c1.76-0.38,5.02-1.15,5.98-3.21
	C446.76,274.9,446.45,273.37,445.52,272.38z"/>
<g>
	
		<radialGradient id="SVGID_00000075137177839631995870000004728156159209429939_" cx="-3797.7886" cy="-1059.6836" r="29.6496" gradientTransform="matrix(-0.888 -0.4598 0.4598 -0.888 -2702.4485 -2316.5056)" gradientUnits="userSpaceOnUse">
		<stop  offset="0.0372" style="stop-color:#1E1E1C"/>
		<stop  offset="0.1479" style="stop-color:#434341"/>
		<stop  offset="0.3832" style="stop-color:#8E8C8A"/>
		<stop  offset="0.5518" style="stop-color:#BCB9B8"/>
		<stop  offset="0.6359" style="stop-color:#CECBCA"/>
		<stop  offset="0.6462" style="stop-color:#AEACAB"/>
		<stop  offset="0.6598" style="stop-color:#8B8A88"/>
		<stop  offset="0.6743" style="stop-color:#6E6D6C"/>
		<stop  offset="0.6896" style="stop-color:#585756"/>
		<stop  offset="0.7063" style="stop-color:#484846"/>
		<stop  offset="0.7252" style="stop-color:#3F3F3D"/>
		<stop  offset="0.7514" style="stop-color:#3C3C3A"/>
		<stop  offset="0.9628" style="stop-color:#8B8C8A"/>
	</radialGradient>
	<path style="fill:url(#SVGID_00000075137177839631995870000004728156159209429939_);" d="M166.31,362.19
		c-11.1,25.62-10.08,29.8-8.93,32.41c4.02,9.06,16.93,15.03,25.91,11.73c3.36-1.24,5.91-3.67,14.84-25.42
		c11.46-27.9,10.63-32.07,9.19-35.08c-3.96-8.26-15.41-13.82-23.91-11.26C180.51,335.44,176.98,337.55,166.31,362.19z
		 M182.89,342.98c6.43-1.93,15.08,2.27,18.07,8.51c1.09,2.28,1.72,5.43-6.94,26.51c-6.75,16.43-8.68,18.28-11.22,19.21
		c-6.79,2.49-16.54-2.02-19.58-8.87c-0.88-1.97-1.64-5.14,6.74-24.49C178.03,345.23,180.71,343.64,182.89,342.98z"/>
	
		<radialGradient id="SVGID_00000003098897372862978590000007477811726636995722_" cx="-3797.2554" cy="-1059.4928" r="22.6431" gradientTransform="matrix(-0.888 -0.4598 0.4598 -0.888 -2702.4485 -2316.5056)" gradientUnits="userSpaceOnUse">
		<stop  offset="0.0372" style="stop-color:#1E1E1C"/>
		<stop  offset="0.1479" style="stop-color:#434341"/>
		<stop  offset="0.3832" style="stop-color:#8E8C8A"/>
		<stop  offset="0.5518" style="stop-color:#BCB9B8"/>
		<stop  offset="0.6359" style="stop-color:#CECBCA"/>
		<stop  offset="0.6462" style="stop-color:#AEACAB"/>
		<stop  offset="0.6598" style="stop-color:#8B8A88"/>
		<stop  offset="0.6743" style="stop-color:#6E6D6C"/>
		<stop  offset="0.6896" style="stop-color:#585756"/>
		<stop  offset="0.7063" style="stop-color:#484846"/>
		<stop  offset="0.7252" style="stop-color:#3F3F3D"/>
		<stop  offset="0.7514" style="stop-color:#3C3C3A"/>
		<stop  offset="0.9628" style="stop-color:#8B8C8A"/>
	</radialGradient>
	
		<path style="fill:none;stroke:url(#SVGID_00000003098897372862978590000007477811726636995722_);stroke-width:0.4983;stroke-miterlimit:10;" d="
		M182.89,342.98c6.43-1.93,15.08,2.27,18.07,8.51c1.09,2.28,1.72,5.43-6.94,26.51c-6.75,16.43-8.68,18.28-11.22,19.21
		c-6.79,2.49-16.54-2.02-19.58-8.87c-0.88-1.97-1.64-5.14,6.74-24.49C178.03,345.23,180.71,343.64,182.89,342.98z"/>
	<path class="st4" d="M182.89,342.98c6.43-1.93,15.08,2.27,18.07,8.51c1.09,2.28,1.72,5.43-6.94,26.51
		c-6.75,16.43-8.68,18.28-11.22,19.21c-6.79,2.49-16.54-2.02-19.58-8.87c-0.88-1.97-1.64-5.14,6.74-24.49
		C178.03,345.23,180.71,343.64,182.89,342.98z"/>
</g>
<radialGradient id="SVGID_00000094587145283687938250000017518812530685496767_" cx="-3792.8042" cy="-1002.8749" r="23.74" gradientTransform="matrix(-0.888 -0.4598 0.4598 -0.888 -2702.4485 -2316.5056)" gradientUnits="userSpaceOnUse">
	<stop  offset="0.0372" style="stop-color:#1E1E1C"/>
	<stop  offset="0.1479" style="stop-color:#434341"/>
	<stop  offset="0.3832" style="stop-color:#8E8C8A"/>
	<stop  offset="0.5518" style="stop-color:#BCB9B8"/>
	<stop  offset="0.6359" style="stop-color:#CECBCA"/>
	<stop  offset="0.6462" style="stop-color:#AEACAB"/>
	<stop  offset="0.6598" style="stop-color:#8B8A88"/>
	<stop  offset="0.6743" style="stop-color:#6E6D6C"/>
	<stop  offset="0.6896" style="stop-color:#585756"/>
	<stop  offset="0.7063" style="stop-color:#484846"/>
	<stop  offset="0.7252" style="stop-color:#3F3F3D"/>
	<stop  offset="0.7514" style="stop-color:#3C3C3A"/>
	<stop  offset="0.9628" style="stop-color:#8B8C8A"/>
</radialGradient>
<path style="fill:url(#SVGID_00000094587145283687938250000017518812530685496767_);" d="M193.01,348.22
	c3.25-0.91,5.22-6.75,6.76-10.72c5.46-14.07,16.1-32.01,19.87-38.37c1.23-2.07,3.52-5.84,2.55-8.41c-0.76-2-3.37-2.94-5.53-2.12
	c-2.29,0.87-3.65,3.57-4.18,4.57c-5.51,10.63-18.51,30.06-23.19,47.12c-0.48,1.74-1.29,4.99,0.1,6.79
	C190.2,348.16,191.7,348.59,193.01,348.22z"/>
<g>
	
		<radialGradient id="SVGID_00000009587927273379782860000002752390010836374187_" cx="-3802.1519" cy="-1219.2605" r="29.6496" gradientTransform="matrix(-0.888 -0.4598 0.3565 -0.6886 -2801.7903 -2124.6357)" gradientUnits="userSpaceOnUse">
		<stop  offset="0.0372" style="stop-color:#1E1E1C"/>
		<stop  offset="0.1479" style="stop-color:#434341"/>
		<stop  offset="0.3832" style="stop-color:#8E8C8A"/>
		<stop  offset="0.5518" style="stop-color:#BCB9B8"/>
		<stop  offset="0.6359" style="stop-color:#CECBCA"/>
		<stop  offset="0.6462" style="stop-color:#AEACAB"/>
		<stop  offset="0.6598" style="stop-color:#8B8A88"/>
		<stop  offset="0.6743" style="stop-color:#6E6D6C"/>
		<stop  offset="0.6896" style="stop-color:#585756"/>
		<stop  offset="0.7063" style="stop-color:#484846"/>
		<stop  offset="0.7252" style="stop-color:#3F3F3D"/>
		<stop  offset="0.7514" style="stop-color:#3C3C3A"/>
		<stop  offset="0.9628" style="stop-color:#8B8C8A"/>
	</radialGradient>
	<path style="fill:url(#SVGID_00000009587927273379782860000002752390010836374187_);" d="M123.38,454.6
		c-8.22,20.06-6.87,23.6-5.53,25.85c4.66,7.82,17.5,13.92,25.75,12.03c3.09-0.71,5.29-2.48,11.81-19.56
		c8.36-21.91,7.19-25.41,5.53-28.03c-4.53-7.16-15.94-12.78-23.81-11.46C134.45,433.89,131.28,435.3,123.38,454.6z M137.41,440.31
		c5.94-1,14.57,3.25,17.99,8.66c1.25,1.97,2.13,4.62-4.18,21.18c-4.93,12.9-6.59,14.24-8.93,14.78c-6.24,1.43-15.94-3.18-19.46-9.09
		c-1.02-1.7-2.04-4.38,4.18-19.54C132.99,441.72,135.39,440.65,137.41,440.31z"/>
	
		<radialGradient id="SVGID_00000130612044889976940530000005406034169040747186_" cx="-3801.6187" cy="-1219.0697" r="22.6147" gradientTransform="matrix(-0.888 -0.4598 0.3565 -0.6886 -2801.7903 -2124.6357)" gradientUnits="userSpaceOnUse">
		<stop  offset="0.0372" style="stop-color:#1E1E1C"/>
		<stop  offset="0.1479" style="stop-color:#434341"/>
		<stop  offset="0.3832" style="stop-color:#8E8C8A"/>
		<stop  offset="0.5518" style="stop-color:#BCB9B8"/>
		<stop  offset="0.6359" style="stop-color:#CECBCA"/>
		<stop  offset="0.6462" style="stop-color:#AEACAB"/>
		<stop  offset="0.6598" style="stop-color:#8B8A88"/>
		<stop  offset="0.6743" style="stop-color:#6E6D6C"/>
		<stop  offset="0.6896" style="stop-color:#585756"/>
		<stop  offset="0.7063" style="stop-color:#484846"/>
		<stop  offset="0.7252" style="stop-color:#3F3F3D"/>
		<stop  offset="0.7514" style="stop-color:#3C3C3A"/>
		<stop  offset="0.9628" style="stop-color:#8B8C8A"/>
	</radialGradient>
	
		<path style="fill:none;stroke:url(#SVGID_00000130612044889976940530000005406034169040747186_);stroke-width:0.4388;stroke-miterlimit:10;" d="
		M137.41,440.31c5.94-1,14.57,3.25,17.99,8.66c1.25,1.97,2.13,4.62-4.18,21.18c-4.93,12.9-6.59,14.24-8.93,14.78
		c-6.24,1.43-15.94-3.18-19.46-9.09c-1.02-1.7-2.04-4.38,4.18-19.54C132.99,441.72,135.39,440.65,137.41,440.31z"/>
	<path class="st4" d="M137.41,440.31c5.94-1,14.57,3.25,17.99,8.66c1.25,1.97,2.13,4.62-4.18,21.18
		c-4.93,12.9-6.59,14.24-8.93,14.78c-6.24,1.43-15.94-3.18-19.46-9.09c-1.02-1.7-2.04-4.38,4.18-19.54
		C132.99,441.72,135.39,440.65,137.41,440.31z"/>
</g>
<radialGradient id="SVGID_00000083083288424252013520000016198963235254859167_" cx="-3797.1672" cy="-1113.0488" r="23.74" gradientTransform="matrix(-0.888 -0.4598 0.4598 -0.888 -2702.4485 -2316.5056)" gradientUnits="userSpaceOnUse">
	<stop  offset="0.0372" style="stop-color:#1E1E1C"/>
	<stop  offset="0.1479" style="stop-color:#434341"/>
	<stop  offset="0.3832" style="stop-color:#8E8C8A"/>
	<stop  offset="0.5518" style="stop-color:#BCB9B8"/>
	<stop  offset="0.6359" style="stop-color:#CECBCA"/>
	<stop  offset="0.6462" style="stop-color:#AEACAB"/>
	<stop  offset="0.6598" style="stop-color:#8B8A88"/>
	<stop  offset="0.6743" style="stop-color:#6E6D6C"/>
	<stop  offset="0.6896" style="stop-color:#585756"/>
	<stop  offset="0.7063" style="stop-color:#484846"/>
	<stop  offset="0.7252" style="stop-color:#3F3F3D"/>
	<stop  offset="0.7514" style="stop-color:#3C3C3A"/>
	<stop  offset="0.9628" style="stop-color:#8B8C8A"/>
</radialGradient>
<path style="fill:url(#SVGID_00000083083288424252013520000016198963235254859167_);" d="M146.22,448.07
	c3.25-0.91,5.22-6.75,6.76-10.72c5.46-14.07,16.1-32.01,19.87-38.37c1.23-2.07,3.52-5.84,2.55-8.41c-0.76-2-3.37-2.94-5.53-2.12
	c-2.29,0.87-3.65,3.57-4.18,4.57c-5.51,10.63-18.51,30.06-23.19,47.12c-0.48,1.74-1.29,4.99,0.1,6.79
	C143.42,448.01,144.92,448.44,146.22,448.07z"/>
<g>
	
		<radialGradient id="SVGID_00000176008092021260092550000009959953411642071177_" cx="-1084.178" cy="-2287.6018" r="29.6496" gradientTransform="matrix(-0.821 0.5709 -0.5709 -0.821 -1869.3542 -908.0725)" gradientUnits="userSpaceOnUse">
		<stop  offset="0.0372" style="stop-color:#1E1E1C"/>
		<stop  offset="0.1479" style="stop-color:#434341"/>
		<stop  offset="0.3832" style="stop-color:#8E8C8A"/>
		<stop  offset="0.5518" style="stop-color:#BCB9B8"/>
		<stop  offset="0.6359" style="stop-color:#CECBCA"/>
		<stop  offset="0.6462" style="stop-color:#AEACAB"/>
		<stop  offset="0.6598" style="stop-color:#8B8A88"/>
		<stop  offset="0.6743" style="stop-color:#6E6D6C"/>
		<stop  offset="0.6896" style="stop-color:#585756"/>
		<stop  offset="0.7063" style="stop-color:#484846"/>
		<stop  offset="0.7252" style="stop-color:#3F3F3D"/>
		<stop  offset="0.7514" style="stop-color:#3C3C3A"/>
		<stop  offset="0.9628" style="stop-color:#8B8C8A"/>
	</radialGradient>
	<path style="fill:url(#SVGID_00000176008092021260092550000009959953411642071177_);" d="M311.48,361.89
		c17.48,21.77,21.65,22.83,24.5,23.02c9.89,0.67,21.19-7.96,22.47-17.44c0.47-3.55-0.49-6.94-15.56-24.99
		c-19.33-23.16-23.4-24.37-26.74-24.5c-9.15-0.35-19.41,7.18-21.11,15.89C294.45,336.85,294.67,340.96,311.48,361.89z
		 M302.23,338.26c1.29-6.58,9.04-12.28,15.96-12.01c2.52,0.1,5.6,1.01,20.21,18.51c11.38,13.64,12.12,16.2,11.76,18.89
		c-0.97,7.17-9.5,13.69-16.98,13.18c-2.15-0.14-5.31-0.94-18.51-17.39C301.96,343.61,301.79,340.5,302.23,338.26z"/>
	
		<radialGradient id="SVGID_00000172431509801020370820000008673306369834401434_" cx="-1083.6448" cy="-2287.4111" r="22.6431" gradientTransform="matrix(-0.821 0.5709 -0.5709 -0.821 -1869.3542 -908.0725)" gradientUnits="userSpaceOnUse">
		<stop  offset="0.0372" style="stop-color:#1E1E1C"/>
		<stop  offset="0.1479" style="stop-color:#434341"/>
		<stop  offset="0.3832" style="stop-color:#8E8C8A"/>
		<stop  offset="0.5518" style="stop-color:#BCB9B8"/>
		<stop  offset="0.6359" style="stop-color:#CECBCA"/>
		<stop  offset="0.6462" style="stop-color:#AEACAB"/>
		<stop  offset="0.6598" style="stop-color:#8B8A88"/>
		<stop  offset="0.6743" style="stop-color:#6E6D6C"/>
		<stop  offset="0.6896" style="stop-color:#585756"/>
		<stop  offset="0.7063" style="stop-color:#484846"/>
		<stop  offset="0.7252" style="stop-color:#3F3F3D"/>
		<stop  offset="0.7514" style="stop-color:#3C3C3A"/>
		<stop  offset="0.9628" style="stop-color:#8B8C8A"/>
	</radialGradient>
	
		<path style="fill:none;stroke:url(#SVGID_00000172431509801020370820000008673306369834401434_);stroke-width:0.4983;stroke-miterlimit:10;" d="
		M302.23,338.26c1.29-6.58,9.04-12.28,15.96-12.01c2.52,0.1,5.6,1.01,20.21,18.51c11.38,13.64,12.12,16.2,11.76,18.89
		c-0.97,7.17-9.5,13.69-16.98,13.18c-2.15-0.14-5.31-0.94-18.51-17.39C301.96,343.61,301.79,340.5,302.23,338.26z"/>
	<path class="st4" d="M302.23,338.26c1.29-6.58,9.04-12.28,15.96-12.01c2.52,0.1,5.6,1.01,20.21,18.51
		c11.38,13.64,12.12,16.2,11.76,18.89c-0.97,7.17-9.5,13.69-16.98,13.18c-2.15-0.14-5.31-0.94-18.51-17.39
		C301.96,343.61,301.79,340.5,302.23,338.26z"/>
</g>
<radialGradient id="SVGID_00000038377328065807903880000009662151758333335963_" cx="-1079.1935" cy="-2230.7932" r="23.74" gradientTransform="matrix(-0.821 0.5709 -0.5709 -0.821 -1869.3542 -908.0725)" gradientUnits="userSpaceOnUse">
	<stop  offset="0.0372" style="stop-color:#1E1E1C"/>
	<stop  offset="0.1479" style="stop-color:#434341"/>
	<stop  offset="0.3832" style="stop-color:#8E8C8A"/>
	<stop  offset="0.5518" style="stop-color:#BCB9B8"/>
	<stop  offset="0.6359" style="stop-color:#CECBCA"/>
	<stop  offset="0.6462" style="stop-color:#AEACAB"/>
	<stop  offset="0.6598" style="stop-color:#8B8A88"/>
	<stop  offset="0.6743" style="stop-color:#6E6D6C"/>
	<stop  offset="0.6896" style="stop-color:#585756"/>
	<stop  offset="0.7063" style="stop-color:#484846"/>
	<stop  offset="0.7252" style="stop-color:#3F3F3D"/>
	<stop  offset="0.7514" style="stop-color:#3C3C3A"/>
	<stop  offset="0.9628" style="stop-color:#8B8C8A"/>
</radialGradient>
<path style="fill:url(#SVGID_00000038377328065807903880000009662151758333335963_);" d="M311.59,331.77
	c0.71-3.3-3.54-7.77-6.33-10.98c-9.9-11.39-20.8-29.17-24.67-35.47c-1.26-2.05-3.53-5.84-6.25-6.18c-2.12-0.26-4.18,1.6-4.45,3.91
	c-0.29,2.43,1.45,4.9,2.1,5.83c6.83,9.83,17.95,30.4,30.86,42.5c1.31,1.23,3.81,3.47,6.05,3.08
	C310.22,334.22,311.3,333.09,311.59,331.77z"/>
<g>
	
		<radialGradient id="SVGID_00000167380714333434843640000009929620753484190359_" cx="-1088.541" cy="-2397.7756" r="29.6496" gradientTransform="matrix(-0.821 0.5709 -0.5709 -0.821 -1869.3542 -908.0725)" gradientUnits="userSpaceOnUse">
		<stop  offset="0.0372" style="stop-color:#1E1E1C"/>
		<stop  offset="0.1479" style="stop-color:#434341"/>
		<stop  offset="0.3832" style="stop-color:#8E8C8A"/>
		<stop  offset="0.5518" style="stop-color:#BCB9B8"/>
		<stop  offset="0.6359" style="stop-color:#CECBCA"/>
		<stop  offset="0.6462" style="stop-color:#AEACAB"/>
		<stop  offset="0.6598" style="stop-color:#8B8A88"/>
		<stop  offset="0.6743" style="stop-color:#6E6D6C"/>
		<stop  offset="0.6896" style="stop-color:#585756"/>
		<stop  offset="0.7063" style="stop-color:#484846"/>
		<stop  offset="0.7252" style="stop-color:#3F3F3D"/>
		<stop  offset="0.7514" style="stop-color:#3C3C3A"/>
		<stop  offset="0.9628" style="stop-color:#8B8C8A"/>
	</radialGradient>
	<path style="fill:url(#SVGID_00000167380714333434843640000009929620753484190359_);" d="M377.96,449.86
		c17.48,21.77,21.65,22.83,24.5,23.02c9.89,0.67,21.19-7.96,22.47-17.44c0.47-3.55-0.49-6.94-15.56-24.99
		c-19.33-23.16-23.4-24.37-26.74-24.5c-9.15-0.35-19.41,7.18-21.11,15.89C360.93,424.82,361.15,428.93,377.96,449.86z
		 M368.71,426.23c1.29-6.58,9.04-12.28,15.96-12.01c2.52,0.1,5.6,1.01,20.21,18.51c11.38,13.64,12.12,16.2,11.76,18.89
		c-0.97,7.17-9.5,13.69-16.98,13.18c-2.15-0.14-5.31-0.94-18.51-17.39C368.43,431.58,368.27,428.47,368.71,426.23z"/>
	
		<radialGradient id="SVGID_00000155115961126106044130000005433372026462556038_" cx="-1088.0079" cy="-2397.585" r="22.6431" gradientTransform="matrix(-0.821 0.5709 -0.5709 -0.821 -1869.3542 -908.0725)" gradientUnits="userSpaceOnUse">
		<stop  offset="0.0372" style="stop-color:#1E1E1C"/>
		<stop  offset="0.1479" style="stop-color:#434341"/>
		<stop  offset="0.3832" style="stop-color:#8E8C8A"/>
		<stop  offset="0.5518" style="stop-color:#BCB9B8"/>
		<stop  offset="0.6359" style="stop-color:#CECBCA"/>
		<stop  offset="0.6462" style="stop-color:#AEACAB"/>
		<stop  offset="0.6598" style="stop-color:#8B8A88"/>
		<stop  offset="0.6743" style="stop-color:#6E6D6C"/>
		<stop  offset="0.6896" style="stop-color:#585756"/>
		<stop  offset="0.7063" style="stop-color:#484846"/>
		<stop  offset="0.7252" style="stop-color:#3F3F3D"/>
		<stop  offset="0.7514" style="stop-color:#3C3C3A"/>
		<stop  offset="0.9628" style="stop-color:#8B8C8A"/>
	</radialGradient>
	
		<path style="fill:none;stroke:url(#SVGID_00000155115961126106044130000005433372026462556038_);stroke-width:0.4983;stroke-miterlimit:10;" d="
		M368.71,426.23c1.29-6.58,9.04-12.28,15.96-12.01c2.52,0.1,5.6,1.01,20.21,18.51c11.38,13.64,12.12,16.2,11.76,18.89
		c-0.97,7.17-9.5,13.69-16.98,13.18c-2.15-0.14-5.31-0.94-18.51-17.39C368.43,431.58,368.27,428.47,368.71,426.23z"/>
	<path class="st4" d="M368.71,426.23c1.29-6.58,9.04-12.28,15.96-12.01c2.52,0.1,5.6,1.01,20.21,18.51
		c11.38,13.64,12.12,16.2,11.76,18.89c-0.97,7.17-9.5,13.69-16.98,13.18c-2.15-0.14-5.31-0.94-18.51-17.39
		C368.43,431.58,368.27,428.47,368.71,426.23z"/>
</g>
<radialGradient id="SVGID_00000002371350239226512250000013468525152804124835_" cx="-1083.5566" cy="-2340.967" r="23.74" gradientTransform="matrix(-0.821 0.5709 -0.5709 -0.821 -1869.3542 -908.0725)" gradientUnits="userSpaceOnUse">
	<stop  offset="0.0372" style="stop-color:#1E1E1C"/>
	<stop  offset="0.1479" style="stop-color:#434341"/>
	<stop  offset="0.3832" style="stop-color:#8E8C8A"/>
	<stop  offset="0.5518" style="stop-color:#BCB9B8"/>
	<stop  offset="0.6359" style="stop-color:#CECBCA"/>
	<stop  offset="0.6462" style="stop-color:#AEACAB"/>
	<stop  offset="0.6598" style="stop-color:#8B8A88"/>
	<stop  offset="0.6743" style="stop-color:#6E6D6C"/>
	<stop  offset="0.6896" style="stop-color:#585756"/>
	<stop  offset="0.7063" style="stop-color:#484846"/>
	<stop  offset="0.7252" style="stop-color:#3F3F3D"/>
	<stop  offset="0.7514" style="stop-color:#3C3C3A"/>
	<stop  offset="0.9628" style="stop-color:#8B8C8A"/>
</radialGradient>
<path style="fill:url(#SVGID_00000002371350239226512250000013468525152804124835_);" d="M378.06,419.73
	c0.71-3.3-3.54-7.77-6.33-10.98c-9.9-11.39-20.8-29.17-24.67-35.47c-1.26-2.05-3.53-5.84-6.25-6.18c-2.12-0.26-4.18,1.6-4.45,3.91
	c-0.29,2.43,1.45,4.9,2.1,5.83c6.83,9.83,17.95,30.4,30.86,42.5c1.31,1.23,3.81,3.47,6.05,3.08
	C376.7,422.18,377.78,421.06,378.06,419.73z"/>
<g>
	<line class="st25" x1="93.83" y1="170.92" x2="111.78" y2="170.92"/>
	<line class="st25" x1="102.81" y1="135.92" x2="102.81" y2="170.92"/>
</g>
<rect x="102.37" y="135.8" class="st26" width="19.66" height="13.52"/>
<rect x="102.37" y="135.8" class="st27" width="19.66" height="3.69"/>
<rect x="102.37" y="145.63" class="st27" width="19.66" height="3.69"/>
<g>
	<line class="st25" x1="125.17" y1="143.89" x2="143.11" y2="143.89"/>
	<line class="st25" x1="134.14" y1="108.89" x2="134.14" y2="143.89"/>
</g>
<rect x="133.7" y="108.77" class="st26" width="19.66" height="13.52"/>
<rect x="133.7" y="108.77" class="st27" width="19.66" height="3.69"/>
<rect x="133.7" y="118.6" class="st27" width="19.66" height="3.69"/>
<g>
	<line class="st25" x1="167.76" y1="518.87" x2="185.71" y2="518.87"/>
	<line class="st25" x1="176.73" y1="483.88" x2="176.73" y2="518.87"/>
</g>
<rect x="176.29" y="483.76" class="st26" width="19.66" height="13.52"/>
<rect x="176.29" y="483.76" class="st27" width="19.66" height="3.69"/>
<rect x="176.29" y="493.59" class="st27" width="19.66" height="3.69"/>
<g>
	<line class="st25" x1="203.39" y1="504.74" x2="221.34" y2="504.74"/>
	<line class="st25" x1="212.37" y1="469.74" x2="212.37" y2="504.74"/>
</g>
<rect x="211.93" y="469.63" class="st26" width="19.66" height="13.52"/>
<rect x="211.93" y="469.63" class="st27" width="19.66" height="3.69"/>
<rect x="211.93" y="479.46" class="st27" width="19.66" height="3.69"/>
<g>
	<line class="st25" x1="217.52" y1="499.83" x2="235.47" y2="499.83"/>
	<line class="st25" x1="226.5" y1="464.83" x2="226.5" y2="499.83"/>
</g>
<rect x="226.06" y="464.71" class="st26" width="19.66" height="13.52"/>
<rect x="226.06" y="464.71" class="st27" width="19.66" height="3.69"/>
<rect x="226.06" y="474.54" class="st27" width="19.66" height="3.69"/>
<g>
	<line class="st25" x1="229.27" y1="495.18" x2="247.21" y2="495.18"/>
	<line class="st25" x1="238.24" y1="460.18" x2="238.24" y2="495.18"/>
</g>
<rect x="237.8" y="460.06" class="st26" width="19.66" height="13.52"/>
<rect x="237.8" y="460.06" class="st27" width="19.66" height="3.69"/>
<rect x="237.8" y="469.89" class="st27" width="19.66" height="3.69"/>
<g>
	<line class="st25" x1="243.4" y1="490.26" x2="261.34" y2="490.26"/>
	<line class="st25" x1="252.37" y1="455.27" x2="252.37" y2="490.26"/>
</g>
<rect x="251.93" y="455.15" class="st26" width="19.66" height="13.52"/>
<rect x="251.93" y="455.15" class="st27" width="19.66" height="3.69"/>
<rect x="251.93" y="464.98" class="st27" width="19.66" height="3.69"/>
<g>
	<line class="st25" x1="301.15" y1="492.11" x2="319.1" y2="492.11"/>
	<line class="st25" x1="310.12" y1="457.11" x2="310.12" y2="492.11"/>
</g>
<rect x="309.69" y="456.99" class="st26" width="19.66" height="13.52"/>
<rect x="309.69" y="456.99" class="st27" width="19.66" height="3.69"/>
<rect x="309.69" y="466.82" class="st27" width="19.66" height="3.69"/>
<g>
	<line class="st25" x1="315.28" y1="481.05" x2="333.23" y2="481.05"/>
	<line class="st25" x1="324.25" y1="446.05" x2="324.25" y2="481.05"/>
</g>
<rect x="323.82" y="445.93" class="st26" width="19.66" height="13.52"/>
<rect x="323.82" y="445.93" class="st27" width="19.66" height="3.69"/>
<rect x="323.82" y="455.76" class="st27" width="19.66" height="3.69"/>
<g>
	<line class="st25" x1="225.07" y1="303.77" x2="243.02" y2="303.77"/>
	<line class="st25" x1="234.05" y1="268.77" x2="234.05" y2="303.77"/>
</g>
<rect x="233.61" y="268.65" class="st26" width="19.66" height="13.52"/>
<rect x="233.61" y="268.65" class="st27" width="19.66" height="3.69"/>
<rect x="233.61" y="278.48" class="st27" width="19.66" height="3.69"/>
<g>
	<line class="st25" x1="236.13" y1="293.32" x2="254.08" y2="293.32"/>
	<line class="st25" x1="245.1" y1="258.33" x2="245.1" y2="293.32"/>
</g>
<rect x="244.67" y="258.21" class="st26" width="19.66" height="13.52"/>
<rect x="244.67" y="258.21" class="st27" width="19.66" height="3.69"/>
<rect x="244.67" y="268.04" class="st27" width="19.66" height="3.69"/>
<g>
	<line class="st25" x1="181.64" y1="240.67" x2="199.59" y2="240.67"/>
	<line class="st25" x1="190.62" y1="205.67" x2="190.62" y2="240.67"/>
</g>
<rect x="190.18" y="205.55" class="st26" width="19.66" height="13.52"/>
<rect x="190.18" y="205.55" class="st27" width="19.66" height="3.69"/>
<rect x="190.18" y="215.38" class="st27" width="19.66" height="3.69"/>
<g>
	<line class="st25" x1="193.32" y1="229.61" x2="211.26" y2="229.61"/>
	<line class="st25" x1="202.29" y1="194.61" x2="202.29" y2="229.61"/>
</g>
<rect x="201.85" y="194.49" class="st26" width="19.66" height="13.52"/>
<rect x="201.85" y="194.49" class="st27" width="19.66" height="3.69"/>
<rect x="201.85" y="204.32" class="st27" width="19.66" height="3.69"/>
<g>
	<line class="st25" x1="299.31" y1="237.7" x2="317.26" y2="237.7"/>
	<line class="st25" x1="308.29" y1="202.7" x2="308.29" y2="237.7"/>
</g>
<rect x="307.85" y="202.58" class="st26" width="19.66" height="13.52"/>
<rect x="307.85" y="202.58" class="st27" width="19.66" height="3.69"/>
<rect x="307.85" y="212.41" class="st27" width="19.66" height="3.69"/>
<g>
	<line class="st25" x1="313.45" y1="231.55" x2="331.39" y2="231.55"/>
	<line class="st25" x1="322.42" y1="196.56" x2="322.42" y2="231.55"/>
</g>
<rect x="321.98" y="196.44" class="st26" width="19.66" height="13.52"/>
<rect x="321.98" y="196.44" class="st27" width="19.66" height="3.69"/>
<rect x="321.98" y="206.27" class="st27" width="19.66" height="3.69"/>
<g>
	<line class="st25" x1="325.12" y1="163.97" x2="343.07" y2="163.97"/>
	<line class="st25" x1="334.09" y1="128.97" x2="334.09" y2="163.97"/>
</g>
<rect x="333.65" y="128.85" class="st26" width="19.66" height="13.52"/>
<rect x="333.65" y="128.85" class="st27" width="19.66" height="3.69"/>
<rect x="333.65" y="138.68" class="st27" width="19.66" height="3.69"/>
<g>
	<line class="st25" x1="338.02" y1="155.98" x2="355.97" y2="155.98"/>
	<line class="st25" x1="346.99" y1="120.99" x2="346.99" y2="155.98"/>
</g>
<rect x="346.56" y="120.87" class="st26" width="19.66" height="13.52"/>
<rect x="346.56" y="120.87" class="st27" width="19.66" height="3.69"/>
<rect x="346.56" y="130.7" class="st27" width="19.66" height="3.69"/>
<g>
	<line class="st25" x1="465.87" y1="229.71" x2="483.81" y2="229.71"/>
	<line class="st25" x1="474.84" y1="194.71" x2="474.84" y2="229.71"/>
</g>
<rect x="474.4" y="194.59" class="st26" width="19.66" height="13.52"/>
<rect x="474.4" y="194.59" class="st27" width="19.66" height="3.69"/>
<rect x="474.4" y="204.42" class="st27" width="19.66" height="3.69"/>
<g>
	<line class="st25" x1="480" y1="220.49" x2="497.95" y2="220.49"/>
	<line class="st25" x1="488.97" y1="185.5" x2="488.97" y2="220.49"/>
</g>
<rect x="488.53" y="185.38" class="st26" width="19.66" height="13.52"/>
<rect x="488.53" y="185.38" class="st27" width="19.66" height="3.69"/>
<rect x="488.53" y="195.21" class="st27" width="19.66" height="3.69"/>
<g>
	<line class="st25" x1="494.13" y1="210.66" x2="512.08" y2="210.66"/>
	<line class="st25" x1="503.1" y1="175.67" x2="503.1" y2="210.66"/>
</g>
<rect x="502.66" y="175.55" class="st26" width="19.66" height="13.52"/>
<rect x="502.66" y="175.55" class="st27" width="19.66" height="3.69"/>
<rect x="502.66" y="185.38" class="st27" width="19.66" height="3.69"/>
<g>
	<g id="XMLID_00000183943796605524306800000013336946706375209608_">
		<g>
			
				<linearGradient id="SVGID_00000012459523742215831140000009259371767187026589_" gradientUnits="userSpaceOnUse" x1="215.5506" y1="366.8322" x2="319.7824" y2="340.2053">
				<stop  offset="0.0372" style="stop-color:#CCB28B"/>
				<stop  offset="0.2114" style="stop-color:#76664E"/>
				<stop  offset="0.2582" style="stop-color:#8E816D"/>
				<stop  offset="0.3219" style="stop-color:#AA9F90"/>
				<stop  offset="0.3896" style="stop-color:#C1B8AD"/>
				<stop  offset="0.4616" style="stop-color:#D3CCC3"/>
				<stop  offset="0.5397" style="stop-color:#DFD9D3"/>
				<stop  offset="0.6286" style="stop-color:#E7E1DC"/>
				<stop  offset="0.7514" style="stop-color:#E9E4DF"/>
				<stop  offset="0.9628" style="stop-color:#88765A"/>
			</linearGradient>
			<path style="fill:url(#SVGID_00000012459523742215831140000009259371767187026589_);" d="M214.83,316.17
				c3.32-0.93,7.27-2,11.63-3.14c16.62-4.34,39.26-9.84,55.95-13.88c5.01-1.21,9.49-2.29,13.11-3.17c5.26-1.28,8.7-2.12,9.32-2.33
				c0.18-0.06,2.21-0.74,2.82,0.02c0.35,0.44,0.23,1.39,0.35,1.39c0.05,0,0.08-0.17,0.1-0.17c0.58-0.12,21.1,91.28,21.31,92.1
				c0,0,0.03,0.14,0.07,0.28s0.07,0.28,0.07,0.28c-29.45,8.35-44.33,12.56-51.68,14.39c-11.97,2.98-24.12,5.67-33.28,7.63
				s-15.32,3.16-15.32,3.16c-0.05-0.21-0.13-0.52-0.22-0.88c-8.52-34.88-23.75-87.37-24.77-89.39c-0.05-0.1-0.35-0.64-0.35-1.39
				c0,0,0-0.62,0.27-1.25C204.45,319.28,208.49,317.95,214.83,316.17z"/>
			
				<radialGradient id="SVGID_00000052791920044745188540000014528035068146094724_" cx="246.0359" cy="271.1353" r="39.5535" gradientUnits="userSpaceOnUse">
				<stop  offset="0.0372" style="stop-color:#1E1E1C"/>
				<stop  offset="0.1479" style="stop-color:#434341"/>
				<stop  offset="0.3832" style="stop-color:#8E8C8A"/>
				<stop  offset="0.5518" style="stop-color:#BCB9B8"/>
				<stop  offset="0.6359" style="stop-color:#CECBCA"/>
				<stop  offset="0.6462" style="stop-color:#AEACAB"/>
				<stop  offset="0.6598" style="stop-color:#8B8A88"/>
				<stop  offset="0.6743" style="stop-color:#6E6D6C"/>
				<stop  offset="0.6896" style="stop-color:#585756"/>
				<stop  offset="0.7063" style="stop-color:#484846"/>
				<stop  offset="0.7252" style="stop-color:#3F3F3D"/>
				<stop  offset="0.7514" style="stop-color:#3C3C3A"/>
				<stop  offset="0.9628" style="stop-color:#8B8C8A"/>
			</radialGradient>
			<path style="fill:url(#SVGID_00000052791920044745188540000014528035068146094724_);" d="M263.41,251.41
				c-9.41-6.35-20.09-4.45-23.31-3.72c-2.14,0.49-15.04,3.66-20.41,15.06c-2.67,5.66-2.29,10.84-1.77,18.04
				c0.57,7.81,2.7,14.5,4.77,20.98c1.14,3.57,3.74,11.17,3.74,11.18l0.02,0.08c-4.37,1.14-8.32,2.2-11.63,3.14
				c-0.86-2.81-2.13-6.98-3.67-12.04c-2.41-7.94-3.62-11.92-3.82-12.64c-1.58-5.57-4.69-22.14,4.47-36.96
				c8.69-14.06,23.18-18.05,25.16-18.56c13.4-3.47,24.4,0.85,28.53,2.78c10.41,4.85,15.79,12.55,16.98,14.31
				c2.16,3.22,3.52,6.29,5.56,12.49c2.34,7.11,5.25,17.34,7.46,30.36l0.02,0.09c-3.61,0.88-8.09,1.96-13.11,3.17
				c-0.99-3.29-2.52-8.68-3.95-15.48c-2.15-10.19-1.97-13.42-4.55-18.97C272.46,261.58,269.7,255.65,263.41,251.41z"/>
		</g>
		<g>
			<path class="st30" d="M229.18,412.9C229.18,412.9,229.18,412.89,229.18,412.9l0.02-0.03c0.03-0.05,0.09-0.14,0.09-0.15
				c0,0,6.16-1.21,15.32-3.16s21.31-4.65,33.28-7.63c7.35-1.83,22.23-6.04,51.68-14.39c0,0-0.04-0.14-0.07-0.28
				s-0.07-0.28-0.07-0.28c-0.21-0.81-20.73-92.22-21.31-92.1c-0.03,0.01-0.05,0.18-0.1,0.17c-0.13,0,0-0.95-0.35-1.39
				c-0.61-0.76-2.64-0.08-2.82-0.02c-0.62,0.2-4.06,1.05-9.32,2.33c-3.61,0.88-8.09,1.96-13.11,3.17
				c-16.69,4.03-39.33,9.53-55.95,13.88c-4.37,1.14-8.32,2.2-11.63,3.14c-6.34,1.79-10.38,3.11-10.61,3.64
				c-0.28,0.63-0.27,1.25-0.27,1.25c0,0.74,0.31,1.29,0.35,1.39c1.02,2.02,16.25,54.51,24.77,89.39c0.09,0.36,0.16,0.67,0.22,0.88"
				/>
			<path class="st30" d="M295.5,295.9c-2.21-13.02-5.12-23.25-7.46-30.36c-2.04-6.21-3.4-9.27-5.56-12.49
				c-1.18-1.76-6.57-9.46-16.98-14.31c-4.13-1.93-15.14-6.24-28.53-2.78c-1.98,0.51-16.47,4.5-25.16,18.56
				c-9.16,14.82-6.05,31.39-4.47,36.96c0.21,0.72,1.41,4.7,3.82,12.64c1.54,5.07,2.81,9.24,3.67,12.04
				c0.01,0.01,0.01,0.03,0.01,0.04"/>
			<path class="st30" d="M282.44,299.24c-0.01-0.02-0.02-0.05-0.02-0.08c-0.99-3.29-2.52-8.68-3.95-15.48
				c-2.15-10.19-1.97-13.42-4.55-18.97c-1.46-3.13-4.21-9.06-10.5-13.3c-9.41-6.35-20.09-4.45-23.31-3.72
				c-2.14,0.49-15.04,3.66-20.41,15.06c-2.67,5.66-2.29,10.84-1.77,18.04c0.57,7.81,2.7,14.5,4.77,20.98
				c1.14,3.57,3.74,11.17,3.74,11.18"/>
		</g>
	</g>
</g>
<g>
	
		<radialGradient id="SVGID_00000015314850596593027510000017476651602934137500_" cx="-1881.3418" cy="1521.9214" r="29.6496" gradientTransform="matrix(0.1106 -0.9939 0.6124 0.0681 -576.0298 -1698.6709)" gradientUnits="userSpaceOnUse">
		<stop  offset="0.0372" style="stop-color:#1E1E1C"/>
		<stop  offset="0.1479" style="stop-color:#434341"/>
		<stop  offset="0.3832" style="stop-color:#8E8C8A"/>
		<stop  offset="0.5518" style="stop-color:#BCB9B8"/>
		<stop  offset="0.6359" style="stop-color:#CECBCA"/>
		<stop  offset="0.6462" style="stop-color:#AEACAB"/>
		<stop  offset="0.6598" style="stop-color:#8B8A88"/>
		<stop  offset="0.6743" style="stop-color:#6E6D6C"/>
		<stop  offset="0.6896" style="stop-color:#585756"/>
		<stop  offset="0.7063" style="stop-color:#484846"/>
		<stop  offset="0.7252" style="stop-color:#3F3F3D"/>
		<stop  offset="0.7514" style="stop-color:#3C3C3A"/>
		<stop  offset="0.9628" style="stop-color:#8B8C8A"/>
	</radialGradient>
	<path style="fill:url(#SVGID_00000015314850596593027510000017476651602934137500_);" d="M149.96,256.33
		c-17.27,0.01-19.57,2.6-20.91,4.69c-4.65,7.27-5.83,21.43-2.23,28.33c1.35,2.58,3.27,3.94,17.84,3.49
		c18.69-0.59,21.02-3,22.55-5.51c4.18-6.89,5.39-19.56,2.31-26.31C168.47,258.71,166.57,256.31,149.96,256.33z M164.43,263.87
		c2.33,5.11,1.42,14.68-1.75,19.89c-1.15,1.9-2.91,3.72-17.04,4.17c-11.01,0.34-12.46-0.68-13.48-2.64
		c-2.73-5.22-1.83-15.92,1.68-21.41c1.01-1.58,2.75-3.54,15.8-3.55C162.2,260.32,163.64,262.13,164.43,263.87z"/>
	
		<radialGradient id="SVGID_00000168835916755101120670000016978641289828655500_" cx="-1880.8086" cy="1522.1121" r="22.5919" gradientTransform="matrix(0.1106 -0.9939 0.6124 0.0681 -576.0298 -1698.6709)" gradientUnits="userSpaceOnUse">
		<stop  offset="0.0372" style="stop-color:#1E1E1C"/>
		<stop  offset="0.1479" style="stop-color:#434341"/>
		<stop  offset="0.3832" style="stop-color:#8E8C8A"/>
		<stop  offset="0.5518" style="stop-color:#BCB9B8"/>
		<stop  offset="0.6359" style="stop-color:#CECBCA"/>
		<stop  offset="0.6462" style="stop-color:#AEACAB"/>
		<stop  offset="0.6598" style="stop-color:#8B8A88"/>
		<stop  offset="0.6743" style="stop-color:#6E6D6C"/>
		<stop  offset="0.6896" style="stop-color:#585756"/>
		<stop  offset="0.7063" style="stop-color:#484846"/>
		<stop  offset="0.7252" style="stop-color:#3F3F3D"/>
		<stop  offset="0.7514" style="stop-color:#3C3C3A"/>
		<stop  offset="0.9628" style="stop-color:#8B8C8A"/>
	</radialGradient>
	
		<path style="fill:none;stroke:url(#SVGID_00000168835916755101120670000016978641289828655500_);stroke-width:0.3911;stroke-miterlimit:10;" d="
		M164.43,263.87c2.33,5.11,1.42,14.68-1.75,19.89c-1.15,1.9-2.91,3.72-17.04,4.17c-11.01,0.34-12.46-0.68-13.48-2.64
		c-2.73-5.22-1.83-15.92,1.68-21.41c1.01-1.58,2.75-3.54,15.8-3.55C162.2,260.32,163.64,262.13,164.43,263.87z"/>
	<path class="st4" d="M164.43,263.87c2.33,5.11,1.42,14.68-1.75,19.89c-1.15,1.9-2.91,3.72-17.04,4.17
		c-11.01,0.34-12.46-0.68-13.48-2.64c-2.73-5.22-1.83-15.92,1.68-21.41c1.01-1.58,2.75-3.54,15.8-3.55
		C162.2,260.32,163.64,262.13,164.43,263.87z"/>
</g>
<radialGradient id="SVGID_00000145775441733397496910000010827039285187809707_" cx="-1876.3569" cy="659.5309" r="23.74" gradientTransform="matrix(0.1106 -0.9939 0.9939 0.1106 -257.2102 -1663.1942)" gradientUnits="userSpaceOnUse">
	<stop  offset="0.0372" style="stop-color:#1E1E1C"/>
	<stop  offset="0.1479" style="stop-color:#434341"/>
	<stop  offset="0.3832" style="stop-color:#8E8C8A"/>
	<stop  offset="0.5518" style="stop-color:#BCB9B8"/>
	<stop  offset="0.6359" style="stop-color:#CECBCA"/>
	<stop  offset="0.6462" style="stop-color:#AEACAB"/>
	<stop  offset="0.6598" style="stop-color:#8B8A88"/>
	<stop  offset="0.6743" style="stop-color:#6E6D6C"/>
	<stop  offset="0.6896" style="stop-color:#585756"/>
	<stop  offset="0.7063" style="stop-color:#484846"/>
	<stop  offset="0.7252" style="stop-color:#3F3F3D"/>
	<stop  offset="0.7514" style="stop-color:#3C3C3A"/>
	<stop  offset="0.9628" style="stop-color:#8B8C8A"/>
</radialGradient>
<path style="fill:url(#SVGID_00000145775441733397496910000010827039285187809707_);" d="M158.35,274.66
	c2.02,2.7,8.18,2.45,12.43,2.46c15.09,0.05,35.65,3.54,42.94,4.78c2.37,0.4,6.72,1.19,8.77-0.64c1.59-1.42,1.54-4.2-0.01-5.92
	c-1.64-1.82-4.64-2.13-5.77-2.26c-11.9-1.33-34.7-6.49-52.31-4.74c-1.79,0.18-5.12,0.59-6.3,2.53
	C157.41,272.01,157.54,273.57,158.35,274.66z"/>
<path class="st34" d="M282.71,346.94c-2.22-0.22-4.39-0.3-6.6-0.46c-0.76-0.05-0.71-0.03-0.47-0.71c0.79-2.23-0.27-4.04-2.55-4.78
	c-0.2-0.07-0.45-0.03-0.32,0.24c0.22,0.48,0.12,1.08,0.69,1.44c0.92,0.73,0.83,2.87-0.25,3.25c-1.86,0.69-4.61-0.45-3.4-2.8
	c0.34-0.76,0.63-0.82,1.43-0.54c0.3,0.1,0.64-0.28,0.97,0.01c0.02-0.04,0.06-0.08,0.05-0.1c-0.09-0.36-0.26-0.74-0.54-0.92
	c-0.38-0.24-0.25,0.32-0.41,0.44c-0.24-0.08-0.16-0.71-0.6-0.31c-0.1,0.09-0.06,0.38-0.31,0.2c-0.15-0.11-0.34-0.23-0.28-0.5
	c0.16-0.7,0.9-1.31,1.63-1.32c0.57,0,1.15,0,1.72,0c0.42,0,0.82-0.1,1.16-0.35c0.11-0.08,0.16-0.21,0.08-0.32
	c-0.08-0.12-0.18-0.02-0.27,0.01c-0.85,0.31-1.79,0.05-2.68,0.1c-0.95,0.02-1.54,0.68-2.06,1.4c-0.23,0.31-0.34,0.62-0.08,0.95
	c0.17,0.22,0.11,0.41-0.03,0.62c-1.09,1.47-0.78,3.33,0.75,4.72c0.26,0.24,0.38,0.39-0.04,0.54c-1.35,0.49-2.69,1-4.04,1.47
	c-0.29,0.1-0.56,0.33-0.92,0.24c0.04-0.29,0.28-0.29,0.45-0.39c0.68-0.43,1.2-1.06,1.15-1.85c-0.08-1.14,0.34-2.06,0.95-2.92
	c0.31-0.43,0.2-0.59-0.21-0.82c-2.24-1.16-0.64-2.95-1.37-4.74c-0.12-0.31-0.1-0.59,0.29-0.75c0.34-0.14,0.42-0.49,0.46-0.82
	c0.06-0.41,0.12-0.81,0.15-1.22c0.08-0.92,0.03-1.8-0.55-2.59c-0.23-0.31-0.37-0.69-0.51-1.05c-0.11-0.27-0.36-0.6-0.11-0.86
	c0.27-0.29,0.61-0.05,0.91,0.06c0.14,0.05,0.31,0.24,0.44,0.06c0.28-0.38,0.23-0.81,0.13-1.24c-0.08-0.37-0.34-0.32-0.62-0.29
	c-0.54,0.09-0.72-0.45-0.3-0.78c0.2-0.21,0.43-0.31,0.72-0.18c0.53,0.23,0.86-0.02,1.11-0.46c0.09-0.16,0.22-0.33,0.14-0.52
	c-0.11-0.25-0.32-0.07-0.49-0.05c-0.44,0.1-0.84-0.41-1.22-0.08c-0.15,0.13-0.36,0.29-0.55,0.12c-0.18-0.16-0.01-0.38,0.03-0.57
	c0.12-0.35,0.34-0.84-0.28-0.81c-0.48-0.01-0.87,0.17-1.3,0.32c-0.2,0.07-0.51,0.23-0.38,0.36c0.24,0.23-0.22,0.86,0.47,0.78
	c0.13-0.02,0.27,0.03,0.23,0.19c-0.14,0.33-0.7,0-0.89-0.16c-0.18-0.15-0.27,0.01-0.35,0.09c-0.15,0.16,0.05,0.17,0.13,0.23
	c0.25,0.2,0.18,0.81,0.77,0.61c0.18,0.03-0.06,0.45,0.13,0.55c0.4,0.3,0.34,0.65,0.15,1.04c-0.12,0.25-0.09,0.52,0.18,0.63
	c0.43,0.17,0.46,0.53,0.51,0.89c0.07,0.47,0.39,0.84,0.39,1.35c0.01,0.89,0.45,1.75,0.26,2.68c-0.09,0.44-0.42,0.78-0.47,1.19
	c-0.05,0.41-0.15,0.59-0.57,0.57c-0.32-0.02-0.28,0.23-0.28,0.43c0,0.24,0.18,0.4,0.31,0.59c0.14,0.22,0.28,0.42-0.08,0.59
	c-0.24,0.11-0.25,0.32-0.05,0.5c0.41,0.39,0.41,0.91,0.34,1.38c-0.23,1.44-0.18,2.9-0.31,4.35c-0.15,1.67-0.16,1.67-1.8,1.98
	c-1.33,0.31-1.95,1.88-0.66,2.75c-0.78,0.54-1.75,0.34-2.46,0.97c-0.13,0.11-0.39,0.15-0.22,0.41c0.29,0.54,0.79,0.03,1.13-0.18
	c0.19-0.13,0.36-0.24,0.62-0.13c0.97,0.38,1.98,0.06,2.55-0.8c0.18-0.27,0.38-0.51,0.71-0.54c1.1-0.11,2.08-0.65,3.14-0.87
	c0.33-0.07,0.69,0.04,0.96-0.1c0.98-0.49,2.05-0.73,3.05-1.16c0.47-0.2,0.61-0.04,0.74,0.37c0.39,1.24,0.79,2.47,1.22,3.69
	c0.11,0.33,0.17,0.72,0.57,0.92c0.11-0.36,0.01-0.68-0.07-0.99c-0.27-1.1-0.46-2.21-0.62-3.33c-0.11-0.75,0.09-1.06,0.83-1.23
	c2.1-0.2,4.23-0.06,6.33-0.13C281.77,347.44,282.24,347.39,282.71,346.94z M244.91,335.48c-0.04-0.03-0.08-0.07-0.12-0.1
	c2.21-4.17,4.43-8.35,6.6-12.54c1.13-2.05,2.24-4.1,3.31-6.19c0.47-0.92,0.9-1.85,2.22-1.47c6.06-0.14,12.12-0.23,18.19-0.31
	c0.18,0,0.42-0.01,0.44-0.24c0.02-0.3-0.26-0.18-0.41-0.22c-6.43-0.14-12.88,0.06-19.31-0.09c-0.31-0.01-0.64-0.03-0.86,0.23
	c-0.47,0.59-0.89,1.25-1.21,1.91c-1.27,2.75-2.77,5.39-4.19,8.06c-2.21,4.07-4.18,8.29-6.55,12.27c-0.09,0.15-0.24,0.33-0.07,0.5
	c0.16,0.17,0.36,0.06,0.51-0.03c3.27-2,6.56-3.97,9.94-5.77c0.42-0.22,0.71-0.57,0.74-1.14
	C251.11,332.17,247.95,333.71,244.91,335.48z M283.61,331.63c0.35-0.69,0.09-1.3-0.14-1.9c-0.42-1.07-0.92-2.1-1.32-3.18
	c-0.45-1.2-0.41-1.27,0.61-2.05c0.74-0.46,0.12-1.48,0-2.27c-0.27-0.88-0.92-1.2-1.75-0.81c-1.59,0.76-3.18,1.53-4.74,2.36
	c-1.26,0.67-1.28,0.83-0.96,1.87c0.16,0.53,0.47,0.75,1.02,0.8c1.22,0.15,2.71,0.45,2.97,1.89c0.21,0.98,0.57,1.94,0.72,2.93
	c0.33,2.18,1.46,4.03,2.34,5.99c0.12,0.31,0.51,0.2,0.37-0.14c-0.45-1.86-1.34-3.57-1.59-5.49c-0.36-1.71-0.18-4.03-1.83-5.07
	c-0.38-0.24-0.63-0.59-0.78-1c-0.16-0.45,0.02-0.81,0.39-1.06c0.28-0.18,0.58-0.53,0.93-0.23c0.41,0.34,0.81,0.72,1.03,1.21
	C281.79,327.53,282.67,329.59,283.61,331.63z M251.59,353.07c0,0,0.01,0,0.01,0c0.05,0.22,0.09,0.45,0.16,0.66
	c0.06,0.18,0.03,0.5,0.3,0.45c0.23-0.04,0.17-0.35,0.15-0.54c-0.56-5.16-1.49-10.26-2.41-15.37c-0.14-0.77-0.6-0.97-1.32-0.64
	c-1.35,0.59-2.59,1.41-3.98,1.93c-0.47,0.15-0.42,0.65,0.08,0.73c0.69,0.19,1.35,0.53,2.08,0.52c1.2-0.04,1.81,0.89,2.48,1.69
	c0.64,0.77,0.65,0.77,0.18,1.66c-0.31,0.59-0.18,1.15,0.43,1.37c0.45,0.17,0.57,0.46,0.64,0.87
	C250.78,348.63,251.19,350.85,251.59,353.07z M258.67,344.05c-0.01,0.35,0.08,0.72,0.56,0.62c0.48-0.09,0.37-0.49,0.35-0.84
	c-0.08-1.13-0.31-2.23-0.49-3.34c-0.09-0.53-0.19-1.06-0.1-1.63c0.11-0.68,0.18-1.46-0.67-1.87c-0.28-0.13-0.37-0.44-0.3-0.75
	c0.13-0.56,0.15-1.13,0.31-1.69c0.11-0.41,0.38-0.73,0.5-1.12c0.07-0.21,0.2-0.44,0.02-0.64c-0.2-0.22-0.43-0.03-0.62,0.05
	c-0.3,0.13-0.59,0.3-0.88,0.44c-0.97,0.48-1.95,0.96-2.92,1.44c-0.22,0.11-0.36,0.27-0.34,0.53c0.01,0.17,0.14,0.23,0.28,0.28
	c0.8,0.28,0.97,0.55,0.89,1.39c-0.09,0.85-0.02,0.95,0.79,1.28c0.19,0.08,0.38,0.15,0.57,0.23c0.76,0.3,0.89,0.51,0.84,1.35
	c-0.06,1.09-0.31,2.15-0.45,3.22c-0.03,0.2-0.13,0.45,0.1,0.55c0.24,0.1,0.41-0.1,0.53-0.31c0.12-0.26,0.31-0.54,0.64-0.47
	c0.21,0.03,0.2,0.23,0.24,0.38C258.61,343.45,258.49,343.76,258.67,344.05z M279.83,343.45c0.33-0.54,0.35-1.05,0.42-1.55
	c0.15-1.03,0.68-1.25,1.52-0.6c0.81,0.49,1.31,1.59,2.17,1.85c1.98,0.33,0.76,3.2,2.66,3.59c-0.58-0.88-0.67-1.94-1.11-2.87
	c-0.29-0.63-0.58-1.32-1.33-1.52c-0.48-0.13-0.72-0.42-0.9-0.84c-0.43-0.98-1.29-1.49-2.34-1.41c-0.45,0.04-0.85,0.03-1.02-0.53
	c-0.11-0.35-0.51-0.46-0.81-0.63c-0.18-0.1-0.37-0.17-0.5-0.35c-0.82-1.15-1.6-2.31-2.67-3.27c-0.73-0.65-1.4-1.39-2.24-1.91
	c-0.12-0.08-0.25-0.23-0.43-0.09c0.03,0.35,0.24,0.58,0.5,0.74c1.59,1.33,3.12,2.88,3.75,4.91c0.24,0.76,1.29,0.74,1.89,1.13
	c0.38,0.17,0.45,0.41,0.08,0.67c-0.29,0.21-0.51,0.47-0.38,0.83C279.31,342.22,279.58,342.83,279.83,343.45z M256.16,319.3
	c-0.04-0.19-0.13-0.39-0.3-0.44c-0.26-0.08-0.25,0.22-0.33,0.36c-1.72,3.26-3.43,6.52-5.14,9.79c-0.15,0.29-0.5,0.54-0.3,0.92
	c0.1,0.16,1.03-0.4,1.14-0.78c1.47-3.02,3.1-5.96,4.68-8.92C256.07,319.94,256.25,319.65,256.16,319.3z M271.41,329.47
	c0.05-0.34-0.63-2.45-0.79-2.54c-0.86-0.62-1.23-1.62-2.22-2.13c-1.22-0.55,0.12,1.17-1.21,0.92c-0.3-0.05-0.47,0.02-0.6,0.27
	c-0.14,0.28,0.07,0.42,0.24,0.56c0.21,0.18,0.4,0.63,0.74,0.11c0.06-0.1,0.18,0.03,0.26,0.09c0.2,0.14,0.4,0.29,0.6,0.43
	c0.14,0.09,0.29,0.19,0.42,0c0.1-0.15,0.21-0.33,0.08-0.51c-0.09-0.13-0.22-0.24-0.33-0.36c-0.09-0.1-0.15-0.2-0.06-0.33
	c0.23-0.31,0.7-0.04,0.92,0.16c0.3,0.3,0.51,0.68,0.87,0.94c0.25,0.18,0.15,0.38-0.15,0.48c-1.22,0.19,0.24,1.63,0.71,1.8
	c0.07-0.21-0.09-0.27-0.23-0.37c-0.18-0.13-0.32-0.34-0.12-0.51c0.19-0.17,0.33,0.07,0.42,0.21
	C271.12,328.9,271.23,329.13,271.41,329.47z M263,328.46c0.14-0.6,0.62-0.94,0.95-1.39c0.43-0.6,0.83-1.21,1.41-1.67
	c0.17-0.13,0.32-0.25,0.32-0.49c0-0.35,0.2-0.4,0.49-0.35c0.36,0.12,0.8-0.04,0.86-0.46c0.03-0.14-0.1-0.15-0.18-0.2
	c-0.18-0.11-0.34-0.13-0.49,0.06c-0.35,0.56-1.34-0.11-1.32,0.84c0,0.11-0.14,0.14-0.24,0.14c-0.42,0.01-0.53,0.33-0.64,0.64
	c-0.19,0.52-0.33,1.12-0.83,1.41C262.62,327.4,262.94,327.93,263,328.46z M264.19,335.57c0.29-0.35,0.17-0.65-0.03-0.95
	c-0.39-0.58-0.7-1.28-0.51-1.91c0.34-1.13-0.27-2.16-0.1-3.25c0.03-0.22-0.28-0.27-0.36-0.07c-0.13,0.49-0.42,0.96-0.17,1.48
	c0.17,0.35,0.16,0.7,0.11,1.08c-0.13,0.92-0.15,1.84,0.36,2.68C263.7,334.96,264.14,335.11,264.19,335.57z M263.89,338.39
	c0.09-0.42,0.26-0.74,0.55-1.06c1.62-1.61,0.51-4.11-0.07-5.97c-0.12,0.85-0.17,1.7,0.18,2.49c0.25,0.55,0.39,1.02,0.12,1.62
	c-0.31,0.67-0.56,1.36-0.96,1.99C263.49,337.8,263.48,338.11,263.89,338.39z M268.11,337.14c0.53-0.32,0.62-0.88,0.66-1.43
	c0.06-0.72,0.34-1.3,0.93-1.72c0.4-0.28,0.81-0.56,1.2-0.86c0.21-0.16,0.37-0.36,0.23-0.68c-0.31,0.26-0.56,0.59-0.87,0.7
	c-0.87,0.33-1.3,1-1.67,1.77C268.25,335.62,268.31,336.4,268.11,337.14z M268.3,341.67c-1-0.78-0.26-1.89-0.64-2.79
	c-0.04-0.1,0.03-0.2,0.14-0.23c0.27-0.08,0.21-0.32,0.25-0.51c0.03-0.15,0.21-0.4-0.1-0.44c-0.22-0.03-0.48-0.03-0.58,0.31
	c-0.17,0.6-0.59,1.18-0.04,1.81c0.09,0.1,0,0.35-0.01,0.54C267.32,341.03,267.65,341.54,268.3,341.67z M271.81,328.43
	c0.03,0.3,0.29,0.38,0.47,0.52c0.48,0.37,0.76,0.79,0.64,1.47c-0.09,0.64-0.51,2.47,0.72,2.17c-0.46-0.18-0.46-0.49-0.44-0.82
	C273.21,330.39,273.7,328.69,271.81,328.43z M264.71,342.78c-0.07-0.25-0.02-0.5-0.35-0.47c-0.18,0.02-0.25,0.09-0.24,0.27
	c0.08,1.4-0.07,2.81,0.14,4.2c0.02,0.15-0.04,0.39,0.17,0.4c0.23,0.01,0.17-0.24,0.18-0.38c0.08-1.16-0.1-2.32,0.12-3.48
	C264.77,343.13,264.72,342.92,264.71,342.78z M272.32,327.02c-0.1-0.94-1.37-1.2-2.07-1.68c-0.12-0.06-0.24-0.22-0.37-0.06
	c-0.09,0.11,0.03,0.22,0.09,0.33c0.29,0.56,0.9,0.68,1.39,0.96c0.33,0.19,0.66,0.36,0.56,0.83c-0.06,0.27-0.05,0.53,0.15,0.75
	c0.02,0.02,0.13,0,0.16-0.04C272.49,327.77,272.44,327.46,272.32,327.02z M271.09,329.72c-0.36,0.46-0.79,0.29-1.19,0.32
	c-0.19,0.01-0.43-0.07-0.54,0.18c-0.05,0.12,0.01,0.24,0.11,0.32c0.19,0.17,0.35,0.2,0.57,0c0.12-0.1,0.44-0.29,0.54,0.08
	c0.23,0.61-0.12,1.26-0.83,1.03c-0.34-0.09-0.67-0.19-1.01-0.29c0.64,1.19,2.17,0.5,2.86-0.26c-0.32,0.15-0.59,0.13-0.79-0.14
	C270.46,330.48,271.13,330.29,271.09,329.72z M263.52,340.48c0.09,0.18,0.09,0.56,0.34,0.55c0.29-0.01,0.13-0.36,0.18-0.56
	c0.02-0.08,0.04-0.16,0.04-0.24c-0.01-0.29,0.39-0.72-0.09-0.83c-0.48-0.11-0.29,0.47-0.46,0.71
	C263.45,340.21,263.46,340.33,263.52,340.48z M263.6,341.38c0.16,0.23,0.2,0.53,0.53,0.59c0.08,0.01,0.17-0.07,0.15-0.16
	c-0.07-0.31-0.36-0.34-0.59-0.46C263.68,341.34,263.66,341.36,263.6,341.38z"/>
<path class="st35" d="M282.71,346.94c-0.47,0.45-0.93,0.5-1.41,0.51c-1.89,0.02-3.78,0.03-5.66,0.05c-0.22,0-0.45,0.03-0.67,0.07
	c-0.74,0.17-0.95,0.48-0.83,1.23c0.17,1.12,0.35,2.23,0.62,3.33c0.08,0.31,0.18,0.63,0.07,0.99c-0.4-0.19-0.46-0.59-0.57-0.92
	c-0.43-1.22-0.83-2.45-1.22-3.69c-0.13-0.41-0.27-0.57-0.74-0.37c-1,0.43-2.07,0.66-3.05,1.16c-0.27,0.14-0.64,0.03-0.96,0.1
	c-1.07,0.22-2.05,0.76-3.14,0.87c-0.33,0.03-0.53,0.28-0.71,0.54c-0.58,0.86-1.59,1.18-2.55,0.8c-0.26-0.1-0.43,0.01-0.62,0.13
	c-0.19,0.12-0.37,0.26-0.57,0.37c-0.25,0.14-0.43,0.04-0.57-0.18c-0.16-0.26,0.1-0.3,0.22-0.41c0.32-0.27,0.7-0.42,1.11-0.5
	c0.45-0.1,0.92-0.17,1.35-0.47c-0.53-0.38-0.81-0.94-0.7-1.45c0.13-0.59,0.63-1.03,1.24-1.27c0.04-0.01,0.08-0.01,0.12-0.02
	c1.64-0.31,1.65-0.31,1.8-1.98c0.13-1.45,0.09-2.9,0.31-4.35c0.07-0.47,0.08-0.99-0.34-1.38c-0.19-0.18-0.19-0.38,0.05-0.5
	c0.36-0.17,0.22-0.37,0.08-0.59c-0.12-0.19-0.3-0.35-0.31-0.59c0-0.2-0.04-0.45,0.28-0.43c0.42,0.03,0.52-0.15,0.57-0.57
	c0.05-0.41,0.38-0.75,0.47-1.19c0.2-0.93-0.25-1.78-0.26-2.68c0-0.51-0.33-0.88-0.39-1.35c-0.05-0.36-0.07-0.72-0.51-0.89
	c-0.27-0.1-0.31-0.38-0.18-0.63c0.19-0.39,0.26-0.74-0.15-1.04c-0.12-0.09-0.08-0.22-0.06-0.34c0.01-0.08,0-0.23-0.07-0.2
	c-0.59,0.2-0.51-0.4-0.77-0.61c-0.08-0.06-0.28-0.07-0.13-0.23c0.08-0.08,0.17-0.24,0.35-0.09c0.17,0.14,0.37,0.24,0.6,0.29
	c0.17,0.04,0.27-0.08,0.29-0.14c0.04-0.15-0.1-0.2-0.23-0.19c-0.68,0.08-0.22-0.55-0.47-0.78c-0.13-0.13,0.18-0.29,0.38-0.36
	c0.42-0.15,0.81-0.33,1.3-0.32c0.41,0.01,0.47,0.14,0.4,0.46c-0.03,0.12-0.09,0.23-0.12,0.35c-0.04,0.19-0.22,0.41-0.03,0.57
	c0.19,0.16,0.4,0.01,0.55-0.12c0.19-0.16,0.36-0.14,0.56-0.05c0.21,0.09,0.43,0.14,0.66,0.12c0.17-0.01,0.37-0.2,0.49,0.05
	c0.08,0.18-0.05,0.36-0.14,0.52c-0.25,0.45-0.58,0.69-1.11,0.46c-0.29-0.13-0.52-0.03-0.72,0.18c-0.15,0.15-0.29,0.31-0.21,0.54
	c0.08,0.24,0.32,0.26,0.52,0.24c0.28-0.03,0.54-0.07,0.62,0.29c0.1,0.43,0.15,0.87-0.13,1.24c-0.13,0.18-0.3,0-0.44-0.06
	c-0.3-0.12-0.64-0.35-0.91-0.06c-0.24,0.26,0.01,0.59,0.11,0.86c0.14,0.36,0.28,0.74,0.51,1.05c0.58,0.79,0.63,1.67,0.55,2.59
	c-0.03,0.41-0.1,0.82-0.15,1.22c-0.05,0.33-0.12,0.68-0.46,0.82c-0.39,0.16-0.41,0.44-0.29,0.75c0.3,0.76,0.25,1.52,0.12,2.3
	c-0.18,1.11,0.28,1.92,1.25,2.44c0.41,0.22,0.52,0.39,0.21,0.82c-0.62,0.86-1.03,1.78-0.95,2.92c0.05,0.79-0.46,1.42-1.15,1.85
	c-0.17,0.1-0.41,0.11-0.45,0.39c0.35,0.1,0.63-0.14,0.92-0.24c1.35-0.47,2.7-0.97,4.04-1.47c0.42-0.15,0.3-0.31,0.04-0.54
	c-1.35-1.24-1.74-2.79-1.07-4.2c0.09-0.18,0.21-0.35,0.32-0.52c0.14-0.2,0.2-0.4,0.03-0.62c-0.26-0.34-0.15-0.64,0.08-0.95
	c0.52-0.72,1.11-1.38,2.06-1.4c0.52-0.01,1.06,0.03,1.59,0.04c0.38,0.01,0.74,0.01,1.09-0.14c0.09-0.04,0.19-0.14,0.27-0.01
	c0.07,0.12,0.02,0.25-0.08,0.32c-0.35,0.25-0.74,0.35-1.16,0.35c-0.57,0-1.15,0-1.72,0c-0.74,0.01-1.48,0.61-1.63,1.32
	c-0.06,0.27,0.13,0.39,0.28,0.5c0.25,0.18,0.21-0.11,0.31-0.2c0.44-0.39,0.36,0.24,0.6,0.31c0.16-0.12,0.03-0.68,0.41-0.44
	c0.28,0.17,0.44,0.56,0.54,0.92c0.01,0.03-0.03,0.07-0.05,0.1c-0.33-0.28-0.67,0.1-0.97-0.01c-0.8-0.28-1.1-0.22-1.43,0.54
	c-0.55,1.24-0.34,2.17,0.87,2.71c0.83,0.37,1.69,0.37,2.53,0.08c0.67-0.23,1.07-1.34,0.83-2.18c-0.12-0.4-0.25-0.86-0.57-1.07
	c-0.57-0.36-0.48-0.96-0.69-1.44c-0.12-0.27,0.12-0.31,0.32-0.24c2.28,0.75,3.35,2.55,2.55,4.78c-0.24,0.68-0.28,0.66,0.47,0.71
	c2.01,0.13,4.02,0.26,6.03,0.39C282.29,346.88,282.45,346.91,282.71,346.94z M262.84,349.29c0.08,0.1,0.05,0.49,0.27,0.38
	c0.34-0.19,0.14-0.63,0.19-0.95c0.02-0.15-0.1-0.21-0.25-0.14C262.77,348.72,262.7,348.95,262.84,349.29z M264.25,349.94
	c-0.51-0.06-0.51-0.06-0.82,0.27C263.91,350.21,263.91,350.21,264.25,349.94z"/>
<path class="st36" d="M244.91,335.48c3.04-1.77,6.2-3.31,9.21-5.14c-0.03,0.57-0.32,0.92-0.74,1.14c-2.98,1.56-5.84,3.34-8.74,5.02
	c-0.41,0.24-0.79,0.51-1.2,0.75c-0.15,0.09-0.35,0.2-0.51,0.03c-0.17-0.18-0.02-0.35,0.07-0.5c0.72-1.17,1.39-2.37,2.02-3.6
	c1.5-2.9,3.01-5.79,4.53-8.67c0.98-1.85,2-3.68,2.96-5.53c0.43-0.83,0.83-1.68,1.24-2.53c0.32-0.66,0.74-1.32,1.21-1.91
	c0.21-0.26,0.54-0.24,0.86-0.23c3.03,0.1,6.07,0.05,9.1,0.03c1.62-0.01,3.24,0,4.86,0.01c1.7,0.01,3.41,0.02,5.11,0.03
	c0.08,0,0.17-0.01,0.25,0.01c0.16,0.04,0.44-0.08,0.41,0.22c-0.02,0.23-0.26,0.24-0.44,0.24c-0.66,0.02-1.31,0.03-1.97,0.02
	c-1.99-0.03-3.98,0.09-5.97,0.1c-1.94,0.01-3.88,0.17-5.83,0.1c-1.43-0.05-2.87,0.05-4.3,0.08c-0.04,0-0.09,0.02-0.12,0.01
	c-1.32-0.38-1.75,0.56-2.22,1.47c-1.06,2.08-2.17,4.14-3.31,6.19c-0.92,1.67-1.74,3.39-2.63,5.08c-1.18,2.24-2.39,4.47-3.59,6.71
	c-0.13,0.25-0.25,0.5-0.38,0.75C244.83,335.41,244.87,335.44,244.91,335.48z"/>
<path class="st36" d="M283.61,331.63c-0.49-1.1-0.99-2.19-1.48-3.29c-0.42-0.96-0.82-1.92-1.25-2.87c-0.23-0.49-0.63-0.87-1.03-1.21
	c-0.35-0.29-0.66,0.05-0.93,0.23c-0.38,0.25-0.55,0.61-0.39,1.06c0.15,0.41,0.4,0.76,0.78,1c0.66,0.43,1.08,1,1.26,1.8
	c0.24,1.08,0.44,2.17,0.58,3.27c0.2,1.57,0.84,3,1.31,4.48c0.1,0.33,0.19,0.67,0.28,1.01c0.03,0.12,0.07,0.26-0.09,0.31
	c-0.14,0.05-0.23-0.05-0.28-0.17c-0.88-1.96-2.01-3.81-2.34-5.99c-0.15-0.99-0.51-1.95-0.72-2.93c-0.18-0.87-0.74-1.35-1.53-1.59
	c-0.47-0.14-0.96-0.26-1.44-0.3c-0.55-0.05-0.85-0.27-1.02-0.8c-0.32-1.04-0.31-1.19,0.96-1.87c1.55-0.83,3.14-1.6,4.74-2.36
	c0.82-0.39,1.48-0.07,1.75,0.81c0.14,0.45,0.21,0.92,0.34,1.38c0.11,0.39-0.01,0.64-0.34,0.89c-1.02,0.78-1.05,0.86-0.61,2.05
	c0.4,1.07,0.9,2.11,1.32,3.18C283.7,330.33,283.97,330.94,283.61,331.63z"/>
<path class="st36" d="M251.59,353.07c-0.4-2.22-0.81-4.44-1.2-6.66c-0.07-0.41-0.19-0.7-0.64-0.87c-0.61-0.22-0.74-0.78-0.43-1.37
	c0.47-0.89,0.47-0.89-0.18-1.66c-0.15-0.17-0.29-0.35-0.43-0.52c-0.52-0.66-1.11-1.19-2.04-1.17c-0.73,0.01-1.39-0.33-2.08-0.52
	c-0.18-0.05-0.38-0.12-0.4-0.33c-0.03-0.22,0.16-0.34,0.32-0.4c0.97-0.35,1.85-0.88,2.76-1.34c0.4-0.2,0.81-0.4,1.22-0.59
	c0.72-0.33,1.17-0.13,1.32,0.64c0.35,1.88,0.67,3.76,0.99,5.64c0.26,1.49,0.53,2.99,0.75,4.49c0.25,1.74,0.46,3.49,0.67,5.24
	c0.02,0.18,0.09,0.49-0.15,0.54c-0.27,0.05-0.24-0.27-0.3-0.45c-0.07-0.21-0.11-0.44-0.16-0.66
	C251.6,353.07,251.59,353.07,251.59,353.07z"/>
<path class="st36" d="M258.67,344.05c-0.18-0.3-0.06-0.6-0.15-0.88c-0.05-0.15-0.03-0.35-0.24-0.38c-0.19-0.03-0.37,0.03-0.48,0.2
	c-0.06,0.09-0.1,0.18-0.15,0.27c-0.12,0.2-0.29,0.41-0.53,0.31c-0.23-0.1-0.12-0.35-0.1-0.55c0.14-1.08,0.39-2.14,0.45-3.22
	c0.04-0.84-0.08-1.04-0.84-1.35c-0.19-0.08-0.38-0.15-0.57-0.23c-0.81-0.33-0.87-0.43-0.79-1.28c0.08-0.83-0.09-1.1-0.89-1.39
	c-0.14-0.05-0.27-0.11-0.28-0.28c-0.02-0.26,0.12-0.42,0.34-0.53c0.97-0.48,1.95-0.96,2.92-1.44c0.29-0.15,0.58-0.31,0.88-0.44
	c0.19-0.08,0.41-0.27,0.62-0.05c0.18,0.2,0.05,0.42-0.02,0.64c-0.12,0.39-0.38,0.71-0.5,1.12c-0.16,0.56-0.18,1.13-0.31,1.69
	c-0.07,0.31,0.02,0.62,0.3,0.75c0.85,0.41,0.78,1.19,0.67,1.87c-0.1,0.58,0.01,1.1,0.1,1.63c0.18,1.11,0.42,2.21,0.49,3.34
	c0.02,0.36,0.13,0.75-0.35,0.84C258.74,344.77,258.66,344.41,258.67,344.05z"/>
<path class="st35" d="M279.83,343.45c-0.25-0.62-0.52-1.23-0.75-1.86c-0.13-0.36,0.09-0.62,0.38-0.83c0.37-0.27,0.3-0.5-0.08-0.67
	c-0.39-0.18-0.79-0.36-1.2-0.49c-0.35-0.11-0.6-0.32-0.69-0.64c-0.42-1.45-1.32-2.57-2.36-3.62c-0.45-0.45-0.85-0.94-1.39-1.29
	c-0.26-0.17-0.47-0.39-0.5-0.74c0.18-0.13,0.31,0.02,0.43,0.09c0.85,0.52,1.51,1.25,2.24,1.91c1.07,0.96,1.85,2.12,2.67,3.27
	c0.13,0.18,0.32,0.24,0.5,0.35c0.3,0.17,0.7,0.28,0.81,0.63c0.18,0.56,0.58,0.56,1.02,0.53c1.05-0.08,1.9,0.42,2.34,1.41
	c0.18,0.42,0.42,0.71,0.9,0.84c0.76,0.2,1.04,0.89,1.33,1.52c0.21,0.46,0.34,0.97,0.51,1.45c0.17,0.48,0.27,0.99,0.6,1.42
	c-0.52-0.12-0.89-0.44-1.07-0.92c-0.16-0.44-0.23-0.92-0.33-1.38c-0.15-0.7-0.58-1.13-1.26-1.29c-0.32-0.08-0.55-0.24-0.76-0.49
	c-0.43-0.5-0.9-0.96-1.42-1.36c-0.84-0.65-1.37-0.43-1.52,0.6C280.18,342.4,280.16,342.91,279.83,343.45z"/>
<path class="st36" d="M256.16,319.3c0.09,0.35-0.09,0.64-0.25,0.92c-1.59,2.96-3.21,5.9-4.68,8.92c-0.02,0.04-0.03,0.08-0.05,0.11
	c-0.18,0.33-1.01,0.82-1.09,0.67c-0.2-0.37,0.15-0.63,0.3-0.92c1.71-3.27,3.42-6.53,5.14-9.79c0.07-0.14,0.07-0.43,0.33-0.36
	C256.03,318.91,256.12,319.11,256.16,319.3z"/>
<path class="st35" d="M271.41,329.47c-0.18-0.34-0.3-0.58-0.44-0.8c-0.09-0.14-0.23-0.37-0.42-0.21c-0.2,0.17-0.06,0.38,0.12,0.51
	c0.14,0.1,0.3,0.16,0.23,0.37c-0.4-0.11-1.16-0.98-1.19-1.35c-0.03-0.35,0.26-0.38,0.48-0.45c0.3-0.1,0.39-0.3,0.15-0.48
	c-0.36-0.26-0.58-0.63-0.87-0.94c-0.16-0.17-0.37-0.25-0.6-0.29c-0.13-0.02-0.24,0.02-0.32,0.13c-0.08,0.13-0.03,0.23,0.06,0.33
	c0.11,0.12,0.24,0.23,0.33,0.36c0.13,0.18,0.03,0.36-0.08,0.51c-0.13,0.2-0.29,0.1-0.42,0c-0.2-0.14-0.4-0.29-0.6-0.43
	c-0.08-0.05-0.19-0.18-0.26-0.09c-0.34,0.52-0.53,0.07-0.74-0.11c-0.17-0.14-0.39-0.28-0.24-0.56c0.13-0.25,0.31-0.32,0.6-0.27
	c0.38,0.06,0.73,0.02,0.64-0.57c-0.05-0.33-0.01-0.63,0.56-0.35c0.53,0.26,0.83,0.7,1.21,1.07c0.35,0.34,0.55,0.81,1.01,1.06
	C270.78,327.02,271.46,329.13,271.41,329.47z"/>
<path class="st35" d="M263,328.46c-0.05-0.53-0.38-1.06,0.33-1.46c0.5-0.28,0.64-0.88,0.83-1.41c0.11-0.32,0.22-0.63,0.64-0.64
	c0.1,0,0.25-0.03,0.24-0.14c-0.02-0.65,0.47-0.55,0.85-0.58c0.2-0.02,0.35-0.11,0.47-0.26c0.14-0.19,0.31-0.17,0.49-0.06
	c0.08,0.05,0.21,0.07,0.18,0.2c-0.04,0.19-0.14,0.34-0.31,0.43c-0.17,0.09-0.36,0.05-0.54,0.02c-0.29-0.05-0.49,0.01-0.49,0.35
	c0,0.23-0.15,0.35-0.32,0.49c-0.59,0.45-0.99,1.07-1.41,1.67C263.62,327.52,263.14,327.87,263,328.46z"/>
<path class="st35" d="M264.19,335.57c-0.06-0.46-0.49-0.61-0.69-0.93c-0.51-0.84-0.49-1.76-0.36-2.68c0.05-0.38,0.06-0.73-0.11-1.08
	c-0.25-0.53,0.04-1,0.17-1.48c0.02-0.06,0.11-0.13,0.17-0.13c0.11,0,0.2,0.1,0.18,0.2c-0.18,1.08,0.44,2.12,0.1,3.25
	c-0.19,0.63,0.12,1.33,0.51,1.91C264.37,334.93,264.49,335.22,264.19,335.57z"/>
<path class="st35" d="M263.89,338.39c-0.41-0.28-0.4-0.59-0.18-0.92c0.4-0.63,0.65-1.32,0.96-1.99c0.28-0.61,0.13-1.07-0.12-1.62
	c-0.35-0.79-0.29-1.65-0.18-2.49c0.49,1.44,1.01,2.86,0.88,4.41c-0.06,0.64-0.43,1.14-0.81,1.56
	C264.15,337.65,263.98,337.97,263.89,338.39z"/>
<path class="st35" d="M268.11,337.14c0.2-0.74,0.14-1.52,0.47-2.21c0.37-0.77,0.8-1.45,1.67-1.77c0.32-0.12,0.56-0.44,0.87-0.7
	c0.14,0.32-0.02,0.52-0.23,0.68c-0.39,0.3-0.79,0.58-1.2,0.86c-0.6,0.42-0.88,0.99-0.93,1.72
	C268.73,336.27,268.64,336.82,268.11,337.14z"/>
<path class="st35" d="M268.3,341.67c-0.65-0.13-0.97-0.65-0.97-1.32c0-0.18,0.09-0.44,0.01-0.54c-0.55-0.63-0.13-1.21,0.04-1.81
	c0.1-0.34,0.35-0.34,0.58-0.31c0.3,0.04,0.12,0.29,0.1,0.44c-0.03,0.19,0.02,0.43-0.25,0.51c-0.11,0.03-0.18,0.14-0.14,0.23
	C268.03,339.78,267.3,340.9,268.3,341.67z"/>
<path class="st35" d="M271.81,328.43c1.08,0.22,1.45,0.66,1.44,1.69c-0.01,0.55-0.03,1.1-0.05,1.65c-0.02,0.33-0.02,0.64,0.44,0.82
	c-0.55,0.12-0.71-0.1-0.8-0.47c-0.13-0.58-0.01-1.15,0.08-1.7c0.12-0.68-0.17-1.09-0.64-1.47
	C272.1,328.81,271.84,328.74,271.81,328.43z"/>
<path class="st35" d="M264.71,342.78c0.01,0.14,0.06,0.35,0.02,0.54c-0.22,1.15-0.03,2.32-0.12,3.48c-0.01,0.14,0.05,0.39-0.18,0.38
	c-0.21-0.01-0.15-0.25-0.17-0.4c-0.2-1.4-0.06-2.8-0.14-4.2c-0.01-0.19,0.06-0.26,0.24-0.27
	C264.69,342.28,264.64,342.53,264.71,342.78z"/>
<path class="st35" d="M272.32,327.02c0.04,0.19,0.07,0.27,0.08,0.35c0.04,0.27,0,0.53-0.18,0.75c-0.03,0.04-0.14,0.06-0.16,0.04
	c-0.2-0.21-0.21-0.48-0.15-0.75c0.1-0.48-0.23-0.65-0.56-0.83c-0.49-0.28-1.09-0.4-1.39-0.96c-0.06-0.11-0.18-0.22-0.09-0.33
	c0.13-0.16,0.25,0,0.37,0.06c0.38,0.2,0.75,0.43,1.14,0.6C271.91,326.19,272.27,326.54,272.32,327.02z"/>
<path class="st35" d="M271.09,329.72c0.04,0.56-0.63,0.76-0.28,1.23c0.2,0.27,0.47,0.29,0.79,0.14c-0.43,0.48-0.99,0.77-1.59,0.86
	c-0.48,0.08-1-0.02-1.28-0.61c0.34,0.1,0.67,0.2,1.01,0.29c0.29,0.08,0.57,0.08,0.77-0.2c0.19-0.26,0.13-0.56,0.06-0.83
	c-0.1-0.37-0.42-0.18-0.54-0.08c-0.23,0.2-0.38,0.17-0.57,0c-0.1-0.09-0.17-0.2-0.11-0.32c0.11-0.24,0.35-0.17,0.54-0.18
	C270.3,330.01,270.73,330.18,271.09,329.72z"/>
<path class="st35" d="M263.52,340.48c-0.06-0.15-0.07-0.27,0.01-0.38c0.18-0.23-0.01-0.82,0.46-0.71c0.48,0.11,0.08,0.54,0.09,0.83
	c0,0.08-0.02,0.16-0.04,0.24c-0.05,0.2,0.11,0.55-0.18,0.56C263.61,341.04,263.61,340.66,263.52,340.48z"/>
<path class="st35" d="M263.6,341.38c0.06-0.02,0.08-0.03,0.09-0.03c0.23,0.12,0.52,0.15,0.59,0.46c0.02,0.09-0.07,0.17-0.15,0.16
	C263.8,341.91,263.76,341.6,263.6,341.38z"/>
<path class="st35" d="M270.82,366.66c-0.75,0.21-1.5,0.41-2.25,0.62c0.83-0.53,0.4-1.21,0.23-1.85c-0.19-0.75-0.43-1.5-0.61-2.25
	c-0.14-0.6-0.32-1.12-1.15-0.96c0.26-0.45,0.67-0.29,0.98-0.39c0.69-0.22,1.39-0.44,2.1-0.58c1.31-0.37,2.28,1.37,1.27,2.29
	c-0.31,0.31-0.32,0.48,0.03,0.75c0.66,0.5,1.23,1.12,2.05,1.38c0.8,0.25,1.31-0.12,1.14-0.91c-0.27-1.22-0.68-2.42-0.97-3.64
	c-0.12-0.52-0.66-0.23-0.94-0.63c1.25-0.35,2.44-0.76,3.65-0.97c0.69-0.12,0.34,0.63,0.63,1.03c-0.47-0.13-0.61-0.6-1-0.55
	c-0.54,0.07-1.28,0-1.48,0.51c-0.21,0.52,0.15,1.17,0.39,1.71c0.13,0.3,1.34-0.06,1.56-0.46c0.07-0.13,0.04-0.3,0.23-0.41
	c0.37,0.44,0.36,0.98,0.51,1.54c-0.44-0.01-0.55-0.51-0.93-0.39c-0.39,0.13-1.06,0.06-1.12,0.43c-0.1,0.59,0.14,1.25,0.47,1.78
	c0.26,0.42,0.74,0.21,1.1,0.09c0.58-0.19,1.14-0.43,1.21-1.17c0.02-0.39,0.45-0.39,0.42,0.04c0.06,0.61,0.02,1.05-0.77,1.25
	c-1.38,0.34-2.77,0.65-4.11,1.15c-0.57,0.22-1.15,0.08-1.63-0.31c-0.68-0.38-1.33-1.59-2.19-1.16c-0.31,0.19-0.03,0.5,0.01,0.75
	C269.8,365.97,269.92,366.63,270.82,366.66z M269.06,363.12C269.07,363.12,269.07,363.12,269.06,363.12
	c0.08,0.26,0.15,0.53,0.23,0.79c0.04,0.14,0.06,0.28,0.26,0.31c0.51,0.08,1.29-0.53,1.37-1.08c0.1-0.69-0.36-1.37-0.99-1.46
	C268.79,361.48,268.76,362.25,269.06,363.12z"/>
<path class="st35" d="M253.87,365.78c0.71-0.37,1.34-0.59,2.08-0.04c1.02,0.76,2.15,1.38,3.24,2.05c0.2,0.12,0.41,0.42,0.64,0.23
	c0.21-0.17-0.02-0.47-0.08-0.7c-0.12-0.49-0.27-0.96-0.41-1.45c-0.3-1.05-0.32-1.07-1.46-1.27c0.82-0.23,1.49-0.41,2.21-0.61
	c-0.06,0.36-0.55,0.43-0.49,0.8c0.24,1.43,0.71,2.82,1.06,4.22c0.04,0.16,0.15,0.36,0,0.5c-0.2,0.19-0.38-0.01-0.53-0.1
	c-1.27-0.81-2.53-1.62-3.8-2.43c-0.18-0.11-0.39-0.36-0.59-0.24c-0.27,0.17-0.04,0.46,0.02,0.68c0.14,0.56,0.31,1.11,0.47,1.67
	c0.17,0.62,0.34,1.23,1.22,1.22c-0.66,0.18-1.32,0.36-1.98,0.54c0.82-0.61,0.38-1.35,0.2-2.06c-0.14-0.56-0.33-1.11-0.45-1.67
	C255.07,366.39,254.82,365.78,253.87,365.78z"/>
<path class="st35" d="M261.51,372.65c-0.02-0.18,0.06-0.26,0.15-0.28c1.24-0.31,2.43-0.8,3.72-0.87c2.38-0.3,3.64,2.77,1.93,4.39
	c-1.21,1.3-2.86,1.42-4.48,1.81c0.8-0.37,0.62-0.93,0.44-1.52c-0.26-0.86-0.51-1.73-0.71-2.61
	C262.43,372.96,262.22,372.52,261.51,372.65z M263.73,374.55c0.16,0.58,0.31,1.16,0.48,1.73c0.09,0.28,0.22,0.63,0.57,0.58
	c3.93-0.36,2.71-6.24-1.17-4.67c-0.35,0.14-0.45,0.33-0.35,0.69C263.43,373.44,263.57,373.99,263.73,374.55z"/>
<path class="st35" d="M290.92,355.58c1.52-0.59,3.01-1.08,4.6-1.02c1.6,0.06,2.57,2.39,1.64,3.9c-1.11,1.64-3.13,1.87-4.95,2.27
	c0.9-0.4,0.6-1.02,0.44-1.63c-0.21-0.75-0.41-1.5-0.62-2.25C291.86,356.28,291.87,355.56,290.92,355.58z M293.13,357.55
	C293.14,357.55,293.14,357.55,293.13,357.55c0.17,0.58,0.32,1.16,0.49,1.73c0.1,0.34,0.29,0.56,0.7,0.55
	c2.62-0.12,3.07-3.71,0.89-4.7c-0.86-0.33-1.76-0.2-2.42,0.3c-0.44,0.33,0.13,1.01,0.2,1.53C293,357.17,293.08,357.36,293.13,357.55
	z"/>
<path class="st35" d="M266.28,363.74c-2.45-2.13-5.3,0.88-3.53,3.27c0.87,1.15,1.87,1.31,3.12,0.8c0.45-0.19,0.56-0.56,0.39-0.99
	c-0.15-0.41-0.07-1.03-0.8-0.98c-0.13,0.01-0.3,0.11-0.42-0.16c0.69-0.3,1.42-0.47,2.35-0.65c-0.78,0.72-0.35,1.36-0.16,1.96
	c0.12,0.4,0.05,0.57-0.32,0.75c-6.12,3.33-8.26-4.97-1.43-5.23C266.34,362.49,266.03,363.32,266.28,363.74z"/>
<path class="st35" d="M295.35,368.73c0.69-0.36,0.6-0.86,0.42-1.43c-0.29-0.93-0.54-1.88-0.78-2.83c-0.13-0.51-0.31-0.91-0.95-0.74
	c0.01-0.11-0.01-0.19,0.01-0.19c1.4-0.54,2.81-1.04,4.34-0.96c2.07,0.05,2.9,2.87,1.55,4.29
	C298.77,368.15,296.99,368.37,295.35,368.73z M299.56,364.71c-0.51-1.89-2.36-1.95-3.57-1.41c-0.3,0.14-0.32,0.35-0.24,0.62
	c0.31,1.11,0.6,2.23,0.92,3.34c0.16,0.57,0.54,0.71,1.11,0.56C299.24,367.44,299.97,366.2,299.56,364.71z"/>
<path class="st35" d="M288.76,358.86c0.95,3.73-4.9,5.4-5.97,1.72c-0.44-1.6,0.54-3.31,2.27-3.62
	C286.8,356.64,288.17,356.95,288.76,358.86z M287.8,359.29c-0.15-0.54-0.38-1.02-0.77-1.44c-0.81-0.87-2.55-0.85-3.21,0.35
	c-0.76,1.37,0.24,3.59,1.76,3.96C287.23,362.47,288.38,361.13,287.8,359.29z"/>
<path class="st35" d="M250.33,366.5c4.06-0.97,5.43,4.42,1.46,5.59C247.77,373.14,246.39,367.59,250.33,366.5z M253.13,368.89
	c-0.54-2.68-4.25-2.92-4.26,0.08c0.03,1.68,1.68,3.38,3.3,2.62C253.1,371.21,253.47,370.15,253.13,368.89z"/>
<path class="st35" d="M252.84,380.58c-4.09,1.08-5.32-4.7-1.36-5.6C255.51,373.98,256.81,379.53,252.84,380.58z M250.07,378.15
	c0.53,2.64,4.37,3.03,4.25-0.13c-0.08-1.6-1.54-3.27-3.12-2.59C250.12,375.83,249.71,376.82,250.07,378.15z"/>
<path class="st35" d="M301.5,354.5c0.14,0.51,0.27,1,0.42,1.53c-0.38,0.01-0.48-0.45-0.82-0.37c-0.41,0.09-1.04,0.03-1.16,0.39
	c-0.18,0.59,0.13,1.23,0.41,1.77c0.22,0.43,0.67,0.19,1.02,0.11c0.63-0.15,1.22-0.33,1.29-1.13c0.03-0.3,0.32-0.19,0.35-0.06
	c0.11,0.4,0.26,0.97-0.2,1.13c-1.31,0.45-2.66,0.76-4.08,1.05c0.92-0.45,0.62-1.11,0.43-1.76c-0.23-0.79-0.46-1.59-0.65-2.4
	c-0.13-0.53-0.33-0.96-0.96-1.16c1.2-0.33,2.38-0.76,3.6-0.95c0.67-0.1,0.48,0.66,0.54,1.19c-0.57-0.99-1.33-0.67-2.09-0.47
	c-0.36,0.1-0.51,0.27-0.38,0.65c0.08,0.24,0.11,0.49,0.21,0.72c0.11,0.27,0.03,0.78,0.48,0.72c0.49-0.07,1.09-0.03,1.32-0.66
	C301.29,354.71,301.25,354.56,301.5,354.5z"/>
<path class="st35" d="M303.77,360.67c4.04-1.08,5.28,4.46,1.49,5.58C301.18,367.34,299.8,361.76,303.77,360.67z M306.52,362.97
	c-0.26-1.29-1.64-2.44-2.98-1.88c-0.8,0.29-1.27,0.98-1.24,1.95c0.01,1.34,0.86,2.72,2.26,2.94
	C306.16,365.96,307,364.77,306.52,362.97z"/>
<path class="st35" d="M276.12,368.55c0.73-0.41,1.48-0.55,2.33-0.68c-0.87,0.44-0.5,1.05-0.35,1.63c0.32,1.34,0.78,3.45,2.5,3
	c1.83-0.33,1.27-2.46,0.85-3.81c-0.3-1.06-0.31-1.05-1.45-1.29c0.81-0.34,1.49-0.51,2.25-0.56c-0.76,0.41-0.58,1-0.42,1.59
	c0.17,0.63,0.36,1.26,0.47,1.9c0.25,1.43-0.41,2.39-1.82,2.72c-1.41,0.33-2.29-0.19-2.73-1.63c-0.18-0.6-0.36-1.2-0.5-1.81
	C277.11,369.01,276.94,368.48,276.12,368.55z"/>
<path class="st35" d="M272.57,375.04c0.56-0.34,0.55-0.78,0.4-1.29c-0.29-0.99-0.54-1.99-0.83-2.97c-0.21-0.73-0.23-0.72-0.93-0.84
	c0-0.04,0-0.12,0.01-0.13c1.24-0.36,3.7-1.55,4.52-0.01c0.67,1.2-0.48,2.54-1.73,2.58c-0.66,0.02-0.39,0.45-0.29,0.86
	c0.13,0.64,0.29,1.24,1.19,1.16C274.13,374.61,273.35,374.83,272.57,375.04z M273.08,370.9C273.09,370.9,273.09,370.9,273.08,370.9
	c0.18,0.36,0.1,1.12,0.58,1.19c1.69,0.18,1.76-2.49,0.26-2.65C272.79,369.28,272.78,370.03,273.08,370.9z"/>
<path class="st35" d="M247.67,371.58c0.16,1.16,0.08,1.4-0.81,1.82c-1.09,0.5-2.23,0.71-3.37,0.22c-1.78-0.78-2.16-3.07-0.8-4.46
	c0.94-0.96,2.15-1.2,3.41-1.3c0.25-0.02,0.81,0.83,0.73,1.08c-0.07,0.22-0.24,0.16-0.34,0.04c-0.42-0.5-0.93-0.75-1.59-0.61
	c-2.21,0.24-2.78,3.07-1.14,4.48c1.31,1.12,2.88,0.75,3.56-0.85C247.39,371.84,247.39,371.65,247.67,371.58z"/>
<path class="st35" d="M258.75,374.42c-0.36,0.04-0.43-0.23-0.58-0.38c-0.58-0.63-1.93-0.25-1.81,0.67c0.14,1.06,1.35,0.95,2.13,1.17
	c1.71,0.34,1.85,2.22,0.34,2.98c-0.19,0.11-0.42,0.18-0.63,0.23c-1.26,0.35-1.57,0.16-1.88-1.15c0.3-0.14,0.39,0.14,0.52,0.28
	c0.57,0.71,2.01,0.82,2.25-0.24c0.12-0.62-0.19-1.02-0.76-1.2c-0.98-0.36-2.56-0.25-2.68-1.6c-0.14-1.22,1.26-1.96,2.32-1.89
	C258.69,373.34,258.61,373.94,258.75,374.42z"/>
<path class="st35" d="M278.9,362.76c0.48,0.33,0.72,0.72,1.15,0.9c1.37,0.57,2.51-1.37,0.79-1.89c-0.48-0.14-0.98-0.23-1.46-0.36
	c-1.35-0.28-1.49-2.02-0.36-2.69c0.32-0.22,0.68-0.32,1.05-0.39c0.93-0.17,1.15,0.02,1.2,1.07c-0.31,0.03-0.38-0.28-0.57-0.42
	c-0.43-0.33-0.88-0.3-1.34-0.08c-0.83,0.43-0.48,1.61,0.44,1.71c1.05,0.17,2.73,0.51,2.67,1.7c0.04,0.8-0.82,1.64-1.71,1.82
	C279.56,364.46,279.16,364.2,278.9,362.76z"/>
<path class="st35" d="M285.46,371.49c0.75-0.36,0.62-0.9,0.44-1.49c-0.29-0.96-0.52-1.94-0.81-2.9c-0.08-0.25,0.01-0.73-0.43-0.65
	c-0.48,0.09-1.09,0.07-1.28,0.72c-0.07,0.22,0.06,0.51-0.23,0.66c-0.23-0.11-0.18-0.35-0.24-0.52c-0.21-0.61-0.18-0.88,0.64-1.02
	c1.27-0.2,2.55-0.54,3.75-1.07c0.18-0.08,0.33-0.17,0.42,0.07c0.14,0.38,0.27,0.78,0.41,1.18c-0.37,0.06-0.43-0.18-0.54-0.32
	c-0.46-0.61-1.01-0.27-1.51-0.11c-0.55,0.18-0.17,0.6-0.1,0.88c0.21,0.88,0.48,1.74,0.7,2.62c0.17,0.68,0.29,1.36,1.27,1.27
	C287.11,371.04,286.29,371.26,285.46,371.49z"/>
<path class="st35" d="M294.73,368.93c-0.67,0.18-1.34,0.37-2.17,0.6c0.79-0.78,0.11-1.23-0.27-1.58c-0.58-0.54-1.24,0.02-1.8,0.21
	c-0.59,0.2-0.29,0.88-0.34,1.34c-0.05,0.47,0.43,0.27,0.81,0.43c-0.68,0.39-1.31,0.49-1.99,0.56c0.72-0.51,0.7-1.28,0.8-2
	c0.18-1.22,0.35-2.43,0.52-3.65c0.03-0.19,0.01-0.44,0.26-0.48c0.2-0.03,0.29,0.17,0.39,0.31c0.84,1.1,1.66,2.2,2.5,3.3
	C293.77,368.39,294.07,368.87,294.73,368.93z M290.55,365.52c-0.08,0.73-0.14,1.24-0.2,1.75c-0.12,0.7,0.63,0.24,0.99,0.2
	c0.42-0.09,0.48-0.26,0.2-0.6C291.23,366.48,290.96,366.07,290.55,365.52z"/>
<path class="st35" d="M308.66,363.45c0.38,0.32,0.64,0.58,0.94,0.79c0.73,0.57,2.02-0.02,1.81-1c-0.26-1.07-1.61-0.84-2.41-1.21
	c-1.17-0.43-1.39-1.67-0.45-2.5c0.52-0.45,1.17-0.62,1.83-0.56c0.65,0.06,0.55,0.67,0.68,1.14c-0.35,0-0.41-0.27-0.57-0.42
	c-0.59-0.58-1.86-0.23-1.79,0.67c0.05,1,1.21,0.98,1.94,1.18c1.05,0.23,1.52,0.67,1.56,1.46c0.06,0.88-1,1.82-2.02,1.84
	C309.06,364.99,308.84,364.81,308.66,363.45z"/>
<path class="st35" d="M245.03,382.39c0.81-0.34,0.57-0.89,0.43-1.42c-0.22-0.8-0.45-1.59-0.66-2.39c-0.16-0.61-0.27-1.25-1.17-1.22
	c0.78-0.34,1.53-0.57,2.39-0.63c-0.78,0.36-0.6,0.91-0.43,1.48c0.25,0.84,0.46,1.69,0.71,2.54c0.11,0.36,0.09,0.94,0.61,0.9
	c0.62-0.04,1.32-0.07,1.69-0.76c0.13-0.23,0.04-0.56,0.31-0.73c0.45,0.93,0.3,1.31-0.59,1.55c-1.03,0.28-2.06,0.57-3.09,0.85
	C245.16,382.5,245.1,382.45,245.03,382.39z"/>
<path class="st35" d="M268.01,370.76c0.76-0.38,1.52-0.57,2.35-0.66c-0.69,0.36-0.58,0.86-0.41,1.43c0.28,0.91,0.51,1.83,0.77,2.75
	c0.23,0.81,0.23,0.81,1.01,0.87c-0.38,0.37-1.53,0.72-2.48,0.69c1-0.36,0.72-0.98,0.55-1.56c-0.22-0.8-0.47-1.59-0.67-2.39
	C268.99,371.3,268.88,370.71,268.01,370.76z"/>
<g>
	<line class="st25" x1="125.61" y1="373.15" x2="143.56" y2="373.15"/>
	<line class="st25" x1="134.59" y1="338.15" x2="134.59" y2="373.15"/>
</g>
<rect x="134.15" y="338.03" class="st26" width="19.66" height="13.52"/>
<rect x="134.15" y="338.03" class="st27" width="19.66" height="3.69"/>
<rect x="134.15" y="347.86" class="st27" width="19.66" height="3.69"/>
<g>
	<line class="st25" x1="125.61" y1="373.15" x2="143.56" y2="373.15"/>
	<line class="st25" x1="134.59" y1="338.15" x2="134.59" y2="373.15"/>
</g>
<rect x="134.15" y="338.03" class="st26" width="19.66" height="13.52"/>
<rect x="134.15" y="338.03" class="st27" width="19.66" height="3.69"/>
<rect x="134.15" y="347.86" class="st27" width="19.66" height="3.69"/>
<g>
	<line class="st25" x1="137.29" y1="365.16" x2="155.23" y2="365.16"/>
	<line class="st25" x1="146.26" y1="330.16" x2="146.26" y2="365.16"/>
</g>
<rect x="145.82" y="330.04" class="st26" width="19.66" height="13.52"/>
<rect x="145.82" y="330.04" class="st27" width="19.66" height="3.69"/>
<rect x="145.82" y="339.87" class="st27" width="19.66" height="3.69"/>
<g>
	<line class="st25" x1="137.29" y1="365.16" x2="155.23" y2="365.16"/>
	<line class="st25" x1="146.26" y1="330.16" x2="146.26" y2="365.16"/>
</g>
<rect x="145.82" y="330.04" class="st26" width="19.66" height="13.52"/>
<rect x="145.82" y="330.04" class="st27" width="19.66" height="3.69"/>
<rect x="145.82" y="339.87" class="st27" width="19.66" height="3.69"/>
<g>
	<line class="st25" x1="395.43" y1="376.83" x2="413.38" y2="376.83"/>
	<line class="st25" x1="404.4" y1="341.84" x2="404.4" y2="376.83"/>
</g>
<rect x="403.96" y="341.72" class="st26" width="19.66" height="13.52"/>
<rect x="403.96" y="341.72" class="st27" width="19.66" height="3.69"/>
<rect x="403.96" y="351.55" class="st27" width="19.66" height="3.69"/>
<g>
	<line class="st25" x1="395.43" y1="376.83" x2="413.38" y2="376.83"/>
	<line class="st25" x1="404.4" y1="341.84" x2="404.4" y2="376.83"/>
</g>
<rect x="403.96" y="341.72" class="st26" width="19.66" height="13.52"/>
<rect x="403.96" y="341.72" class="st27" width="19.66" height="3.69"/>
<rect x="403.96" y="351.55" class="st27" width="19.66" height="3.69"/>
<g>
	<line class="st25" x1="406.49" y1="365.77" x2="424.43" y2="365.77"/>
	<line class="st25" x1="415.46" y1="330.78" x2="415.46" y2="365.77"/>
</g>
<rect x="415.02" y="330.66" class="st26" width="19.66" height="13.52"/>
<rect x="415.02" y="330.66" class="st27" width="19.66" height="3.69"/>
<rect x="415.02" y="340.49" class="st27" width="19.66" height="3.69"/>
<g>
	<line class="st25" x1="406.49" y1="365.77" x2="424.43" y2="365.77"/>
	<line class="st25" x1="415.46" y1="330.78" x2="415.46" y2="365.77"/>
</g>
<rect x="415.02" y="330.66" class="st26" width="19.66" height="13.52"/>
<rect x="415.02" y="330.66" class="st27" width="19.66" height="3.69"/>
<rect x="415.02" y="340.49" class="st27" width="19.66" height="3.69"/>
<g>
	<line class="st25" x1="410.17" y1="414.92" x2="428.12" y2="414.92"/>
	<line class="st25" x1="419.15" y1="379.93" x2="419.15" y2="414.92"/>
</g>
<rect x="418.71" y="379.81" class="st26" width="19.66" height="13.52"/>
<rect x="418.71" y="379.81" class="st27" width="19.66" height="3.69"/>
<rect x="418.71" y="389.64" class="st27" width="19.66" height="3.69"/>
<g>
	<line class="st25" x1="410.17" y1="414.92" x2="428.12" y2="414.92"/>
	<line class="st25" x1="419.15" y1="379.93" x2="419.15" y2="414.92"/>
</g>
<rect x="418.71" y="379.81" class="st26" width="19.66" height="13.52"/>
<rect x="418.71" y="379.81" class="st27" width="19.66" height="3.69"/>
<rect x="418.71" y="389.64" class="st27" width="19.66" height="3.69"/>
<g>
	<line class="st25" x1="70.39" y1="144.01" x2="88.33" y2="144.01"/>
	<line class="st25" x1="79.36" y1="109.02" x2="79.36" y2="144.01"/>
</g>
<rect x="78.92" y="108.9" class="st26" width="19.66" height="13.52"/>
<rect x="78.92" y="108.9" class="st27" width="19.66" height="3.69"/>
<rect x="78.92" y="118.73" class="st27" width="19.66" height="3.69"/>
</svg>
