<?xml version="1.0" encoding="UTF-8"?>
<svg id="Capa_1" data-name="Capa 1" xmlns="http://www.w3.org/2000/svg" viewBox="0 0 618.99 624.03">
  <defs>
    <style>
      .cls-1 {
        fill: #fff;
      }

      .cls-2 {
        fill: #312782;
        stroke: #312782;
      }

      .cls-2, .cls-3, .cls-4, .cls-5 {
        stroke-miterlimit: 10;
        stroke-width: 1.47px;
      }

      .cls-3 {
        fill: #e20613;
        stroke: #e20613;
      }

      .cls-4 {
        fill: #1d1d1b;
      }

      .cls-4, .cls-5 {
        stroke: #fff;
      }

      .cls-5 {
        fill: none;
      }
    </style>
  </defs>
  <rect class="cls-2" x=".74" y=".85" width="310.75" height="310.75"/>
  <rect class="cls-1" x="18.37" y="18.48" width="275.49" height="275.49"/>
  <rect class="cls-3" x="34.76" y="34.87" width="242.71" height="242.71"/>
  <g>
    <line class="cls-5" x1="127.94" y1="156.57" x2="127.27" y2="189.25"/>
    <line class="cls-5" x1="123.55" y1="156.76" x2="122.61" y2="189.28"/>
    <line class="cls-5" x1="126.74" y1="141.58" x2="126.25" y2="143.38"/>
    <line class="cls-5" x1="128.25" y1="141.64" x2="126.74" y2="141.58"/>
    <line class="cls-5" x1="129.5" y1="141.31" x2="128.52" y2="141.26"/>
    <line class="cls-5" x1="128.12" y1="141.63" x2="128.52" y2="141.26"/>
    <line class="cls-5" x1="129.41" y1="141.21" x2="130.25" y2="138.47"/>
    <line class="cls-5" x1="131.55" y1="140.3" x2="130.41" y2="138.43"/>
    <line class="cls-5" x1="173.71" y1="140.38" x2="131.55" y2="140.3"/>
    <line class="cls-5" x1="179.4" y1="143.38" x2="178.62" y2="141.61"/>
    <line class="cls-5" x1="176.74" y1="141.28" x2="173.66" y2="141.28"/>
    <line class="cls-5" x1="179.01" y1="141.61" x2="177.12" y2="141.91"/>
    <line class="cls-5" x1="176.74" y1="141.38" x2="177.09" y2="141.99"/>
    <line class="cls-5" x1="174.11" y1="140.34" x2="173.51" y2="141.28"/>
    <g>
      <rect class="cls-5" x="144.04" y="126.34" width="16.43" height="5.39"/>
      <rect class="cls-5" x="142.96" y="124.71" width="19.03" height="9.42"/>
      <rect class="cls-5" x="134.36" y="143.38" width="36.49" height="3.16"/>
      <g>
        <path class="cls-5" d="M179.4,143.38s56.86,.84,56.86,.84c0,0-4.25,4.44-4.25,4.44,1.97,13.29,3.95,26.57,5.92,39.86l1.43,.64c.17,2.05,.34,4.11,.51,6.16l.5,.05,.16,1.53c-2.42,.06-4.84,.12-7.27,.18,0,0-.6-.32-1.22-.44-.36-.07-.37,0-1.52-.02-.22,0-.4-.01-.52-.01-1.06-7.87-2.11-15.73-3.17-23.6-4.05,.04-8.1,.07-12.15,.11,0,0,1.92,10.48,2.7,22.43,.06,.85,.09,1.53,.11,1.85,0,0-.14,.01-.14,.01-.08,0-1.88,.09-7.2,.34-.39-.1-.78-.2-1.17-.3-.6,.03-1.2,.05-1.81,.08,0,0-.03-.18-.03-.19-.05-.31,.27-1.02,.04-1.29-.04-.04-.11-.1-.25-.11,0,0-.85-5.8-1.32-11.25-.38-4.34-.12-3.89-.47-8.33-.54-6.79-.84-10.22-2.43-12.34-.15-.19-3.53-4.55-8.79-4.46-.73,.01-3.96,.07-6.08,2.36-1.55,1.68-1.95,3.97-2.11,4.9-.16,.91-.17,1.62-.17,1.92-.09,11.15,1.28,25.64,1.1,26.49-.01,.05-.1,.38,.07,.65,.06,.1,.15,.17,.22,.22v1.85c-2.11,.05-4.23,.1-6.34,.15l-.41,.29s-11.52,.05-12.2,.11c-.03,0-.19,.02-.41,0-.22-.02-.38-.06-.41-.07-.22-.06-1.09-.1-3.54-.07,0,0-.07-.43-.07-.43-.1-.57-.08-20.23-.09-22.76-.05-7.42-.09-12.89-4-16.22-2.21-1.88-4.91-2.45-6.9-2.61-1.93,.17-4.55,.73-6.7,2.61-3.81,3.33-3.84,8.8-3.89,16.22-.02,2.52,0,22.19-.09,22.76,0,0-.07,.43-.07,.43-2.38-.03-3.23,.01-3.44,.07-.03,0-.18,.05-.4,.07-.21,.02-.36,0-.4,0-.66-.06-11.86-.11-11.86-.11l-.4-.29c-2.05-.05-4.11-.1-6.16-.15v-1.85c.07-.05,.16-.12,.22-.22,.17-.27,.08-.6,.07-.65-.17-.85,1.16-15.34,1.07-26.49,0-.3-.01-1.01-.17-1.92-.16-.93-.55-3.21-2.06-4.9-2.06-2.29-5.2-2.35-5.91-2.36-5.11-.09-8.4,4.27-8.54,4.46-1.55,2.12-1.84,5.55-2.36,12.34-.34,4.44-.09,3.99-.46,8.33-.46,5.44-1.28,11.25-1.28,11.25-.14,.02-.2,.07-.24,.11-.22,.27,.08,.98,.04,1.29,0,.01-.03,.19-.03,.19-.59-.03-1.17-.05-1.76-.08-.38,.1-.76,.2-1.14,.3-5.17-.24-6.92-.33-7-.34,0,0-.13-.01-.13-.01,.02-.32,.05-1,.11-1.85,.76-11.95,2.62-22.43,2.62-22.43-3.94-.04-7.87-.07-11.81-.11-1.03,7.87-2.05,15.73-3.08,23.6-.11,0-.29,.01-.5,.01-1.12,.02-1.13-.04-1.48,.02-.6,.11-1.19,.44-1.19,.44-2.35-.06-4.71-.12-7.06-.18l.15-1.53,.49-.05c.17-2.05,.33-4.11,.5-6.16l1.39-.64c1.92-13.29,3.84-26.57,5.76-39.86,0,0-4.14-4.44-4.14-4.44,0,0,55.26-.84,55.27-.84"/>
        <path class="cls-5" d="M186.28,164.64c.66-.39,2.5-1.36,4.95-1.13,.38,.04,3.51,.39,5.57,2.99,.99,1.25,1.27,2.46,1.78,4.84,.6,2.74,.69,4.84,.77,6.25,.19,3.63-.19-5.25,1.14,15.16,.05,.82,.31,4.77,.31,4.77,2.13,0,4.25,0,6.38,0"/>
        <line class="cls-5" x1="230" y1="196.61" x2="221.31" y2="196.75"/>
        <line class="cls-5" x1="218.88" y1="175.47" x2="221.31" y2="196.75"/>
        <line class="cls-5" x1="215.09" y1="175.54" x2="218.88" y2="175.47"/>
        <line class="cls-5" x1="77.35" y1="196.61" x2="86.36" y2="196.39"/>
        <line class="cls-5" x1="88.63" y1="176.2" x2="86.36" y2="196.39"/>
        <line class="cls-5" x1="88.63" y1="176.2" x2="91.76" y2="176.07"/>
        <path class="cls-5" d="M119.67,164.15c-.77-.28-2.73-.88-5.08-.24-.25,.07-3.34,.95-5.1,3.96-.9,1.55-1.08,3-1.17,3.78-.8,7.09-1.2,10.64-1.29,14.03-.1,3.87-.49,7.72-.73,11.58h0c-2.26,.09-4.51,.18-6.77,.27"/>
        <path class="cls-5" d="M152.69,164.61c-1.31,.19-3.43,.71-5.08,2.39-2.17,2.21-2.34,5.23-2.43,7.35-.5,11.71-.09,23.4-.09,23.4,0,0-.02-.22-.02-.22,0,0,.02,.17,.02,.22-.02,.2-.66,.43-3.24,.6"/>
        <path class="cls-5" d="M152.69,164.61c1.31,.19,3.43,.71,5.08,2.39,2.17,2.21,2.34,5.23,2.43,7.35,.5,11.71,.09,23.4,.09,23.4,0,0,.02-.22,.02-.22,0,0-.02,.17-.02,.22,.02,.2,.66,.43,3.24,.6"/>
      </g>
      <path class="cls-5" d="M75.6,144.16c.65-.82,1.26-1.91,1.03-2.99-.24-1.09-1.23-1.76-1.01-2.1,.26-.41,1.81,.41,2.23-.15,.18-.23-.04-.43,0-1.31,.03-.64,.06-1.09,.36-1.45,.32-.38,.65-.31,.87-.75,.15-.29,.04-.39,.22-.65,.24-.36,.53-.29,.68-.6,.12-.27-.07-.38,.03-.71,.12-.4,.45-.33,.62-.76,.13-.32,0-.48,.19-.82,.03-.05,.12-.21,.27-.33,.41-.32,1.05-.24,1.49,0,.39,.21,.82,.68,.73,1.03-.06,.22-.26,.17-.41,.44-.27,.47,.22,.89-.05,1.36-.09,.15-.25,.28-.3,.54-.02,.1-.02,.22-.03,.27,0,.21-.01,.31,.03,.35,.12,.13,.41-.13,.62,0,.08,.05,.07,.1,.3,.57,.1,.21,.13,.26,.19,.27,.14,.04,.24-.15,.46-.3,.52-.36,1.3-.24,1.3-.24,1.72-1.25,2.21-1.49,2.27-1.42,.08,.1-.7,.62-.68,1.42,.01,.42,.24,.8,.03,1.06-.1,.12-.19,.1-.3,.24-.17,.24-.16,.61-.03,.68,.05,.03,.1,0,.59-.27,.14-.08,.21-.12,.24-.14,.57-.33,1.93-.27,1.95-.11,0,.05-.12,.09-.22,.14-1.29,.57-1.49,2.87-2.89,3.32-.08,.03-.14,.04-.14,.05,.01,.22,9.08-.14,9.08-.14,.07,0,.67,.08,.81-.19,.08-.16-.03-.36-.08-.46-.41-.76-.89-1.38-1.08-1.66,0,0-.11-.15-.97-1.91,.52,.17,1.27,.45,2.13,.89,.71,.36,.99,.58,1.14,.47,0,0,.23-.18-1.14-3.21,2.31,1.88,3.16,2.1,3.46,1.85,.24-.19,.06-.6,.22-1.93,.11-.98,.17-1.47,.46-1.82,.66-.82,2.35-1.1,3.14-.27,.45,.47,.5,1.2,.41,1.69-.06,.32-.33,.75-.86,1.61-.42,.68-.58,.88-.51,.95,.11,.13,.69-.34,1.7-.82,0,0,.46-.22,3-1.01-1.17,1.3-1.3,1.73-1.19,1.88,.23,.3,1.91-.12,2.22-.13,0,0,.19,0,.19,0-1.09,1.27-2.18,2.54-3.27,3.81,11.37,.02,19.68,.03,20.19,.02,.04,0,.14,0,.22-.07,.28-.24-.15-.92-.16-1.63,0-.87,.62-1.72,1.24-2.14,.87-.58,1.72-.3,2.23-.98,.08-.1,.47-.65,.47-.65v-4.86c-.86-1.08-1.3-2.02-1.55-2.69-.17-.47-.58-1.71-.58-1.71,1.01,.25,1.44,.12,1.62-.11,0,0,.29-.36-.9-3.19,1.56-1.31,2.96-2.35,4.07-3.12,2.58-1.79,4.22-2.92,5.55-2.94,.09,0,.78,0,.83-.22,.03-.16-.34-.27-.61-.65-.23-.32-.36-.79-.29-1.16,.16-.9,1.41-.8,1.77-1.82,.22-.64-.02-1.38-.07-1.52-.2-.6-.47-.68-.47-1.05,.01-.62,.8-1.2,1.51-1.38,1.07-.26,2.34,.3,2.45,.94,.04,.23-.11,.26-.25,.73-.32,1.04,.14,1.77-.25,2.07-.19,.14-.42,.06-.43,.15-.02,.13,.55,.26,1.19,.62,.94,.53,.94,.98,1.51,1.05,.5,.07,1.05-.2,1.37-.54,.44-.47,.38-1.02,.76-1.12,.23-.06,.4,.09,.62,.19,1.19,.53,2.89-.93,3.02-.73,.05,.07-.24,.2-.4,.62-.2,.53,0,1.01-.29,1.23-.07,.06-.14,.07-.14,.07,0,0,.5-.19,2.67-1.05"/>
      <path class="cls-5" d="M233.39,144.18c-.44-.78-.89-1.9-.57-3.01,.32-1.11,1.29-1.8,1.08-2.1-.28-.41-1.94,.41-2.4-.15-.19-.23,.05-.43,0-1.31-.04-.64-.06-1.09-.39-1.45-.34-.38-.7-.31-.94-.75-.16-.29-.04-.39-.23-.65-.26-.36-.57-.29-.72-.6-.13-.27,.08-.38-.03-.71-.13-.4-.48-.33-.67-.76-.14-.32,0-.48-.2-.82-.03-.05-.13-.21-.29-.33-.44-.32-1.13-.24-1.59,0-.42,.21-.88,.68-.78,1.03,.06,.22,.27,.17,.43,.44,.29,.47-.24,.89,.06,1.36,.1,.15,.26,.28,.32,.54,.02,.1,.03,.22,.03,.27,0,.21,.01,.31-.03,.35-.13,.13-.43-.13-.67,0-.09,.05-.07,.1-.32,.57-.11,.21-.14,.26-.2,.27-.15,.04-.26-.15-.49-.3-.56-.36-1.39-.24-1.39-.24-1.84-1.25-2.37-1.49-2.44-1.42-.09,.1,.75,.62,.72,1.42-.01,.42-.26,.8-.03,1.06,.1,.12,.21,.1,.32,.24,.18,.24,.17,.61,.03,.68-.05,.03-.11,0-.64-.27-.15-.08-.23-.12-.26-.14-.61-.33-2.07-.27-2.09-.11,0,.05,.13,.09,.23,.14,1.38,.57,1.59,2.87,3.1,3.32,.08,.03,.15,.04,.14,.05-.01,.22-9.74-.14-9.74-.14-.08,0-.72,.08-.87-.19-.09-.16,.03-.36,.09-.46,.44-.76,.95-1.38,1.16-1.66,0,0,.12-.15,1.04-1.91-.56,.17-1.36,.45-2.29,.89-.76,.36-1.06,.58-1.22,.47,0,0-.25-.18,1.22-3.21-2.47,1.88-3.38,2.1-3.71,1.85-.25-.19-.07-.6-.23-1.93-.12-.98-.18-1.47-.49-1.82-.71-.82-2.52-1.1-3.36-.27-.48,.47-.54,1.2-.43,1.69,.07,.32,.36,.75,.93,1.61,.45,.68,.62,.88,.55,.95-.12,.13-.74-.34-1.83-.82,0,0-.5-.22-3.22-1.01,1.25,1.3,1.39,1.73,1.28,1.88-.25,.3-2.05-.12-2.38-.13,0,0-.2,0-.2,0,1.17,1.27,2.34,2.54,3.51,3.81-12.2,.02-21.11,.03-21.66,.02-.05,0-.15,0-.23-.07-.3-.24,.16-.92,.17-1.63,.01-.87-.66-1.72-1.33-2.14-.93-.58-1.85-.3-2.4-.98-.08-.1-.5-.65-.5-.65v-4.86c.93-1.08,1.4-2.02,1.66-2.69,.18-.47,.62-1.71,.62-1.71-1.09,.25-1.55,.12-1.74-.11,0,0-.31-.36,.97-3.19-1.68-1.31-3.18-2.35-4.37-3.12-2.76-1.79-4.53-2.92-5.95-2.94-.09,0-.84,0-.89-.22-.04-.16,.36-.27,.66-.65,.25-.32,.38-.79,.31-1.16-.18-.9-1.51-.8-1.89-1.82-.24-.64,.03-1.38,.08-1.52,.22-.6,.51-.68,.5-1.05-.01-.62-.86-1.2-1.62-1.38-1.15-.26-2.51,.3-2.63,.94-.04,.23,.12,.26,.27,.73,.34,1.04-.15,1.77,.27,2.07,.2,.14,.45,.06,.46,.15,.03,.13-.59,.26-1.28,.62-1.01,.53-1.01,.98-1.62,1.05-.54,.07-1.12-.2-1.47-.54-.47-.47-.41-1.02-.81-1.12-.24-.06-.43,.09-.66,.19-1.27,.53-3.1-.93-3.24-.73-.05,.07,.26,.2,.43,.62,.22,.53-.01,1.01,.31,1.23,.08,.06,.16,.07,.15,.07,0,0-.58-.21-2.86-1.05"/>
      <line class="cls-5" x1="137.06" y1="119.97" x2="151.98" y2="114.04"/>
      <line class="cls-5" x1="168.52" y1="119.54" x2="151.98" y2="114.04"/>
      <line class="cls-5" x1="140.63" y1="121.28" x2="164.15" y2="121.17"/>
      <line class="cls-5" x1="165.12" y1="119.97" x2="168.9" y2="119.59"/>
      <line class="cls-5" x1="139.98" y1="119.97" x2="137.06" y2="119.97"/>
      <line class="cls-5" x1="165.12" y1="119.97" x2="164.15" y2="121.17"/>
      <line class="cls-5" x1="139.85" y1="119.97" x2="140.63" y2="121.28"/>
      <line class="cls-5" x1="212.58" y1="156.66" x2="224.69" y2="156.39"/>
      <line class="cls-5" x1="213.82" y1="165.86" x2="225.93" y2="165.48"/>
      <line class="cls-5" x1="224.69" y1="156.39" x2="225.93" y2="165.48"/>
      <line class="cls-5" x1="212.58" y1="156.66" x2="213.82" y2="165.86"/>
      <g>
        <path class="cls-5" d="M183.82,156.06l6.92-.05c-3.8,1.69-5.15,2.66-5.66,3.25-.07,.08-1.05,1.22-1.05,1.22h0"/>
        <line class="cls-5" x1="183.96" y1="156.06" x2="184.04" y2="160.47"/>
      </g>
      <g>
        <path class="cls-5" d="M203.81,155.87l-6.92,.1c3.83,1.6,5.2,2.55,5.73,3.12,.07,.08,1.07,1.19,1.07,1.19h0"/>
        <line class="cls-5" x1="203.68" y1="155.87" x2="203.7" y2="160.29"/>
      </g>
      <g>
        <path class="cls-5" d="M141.84,153.15l6.92-.05c-3.8,1.69-5.15,2.66-5.66,3.25-.07,.08-1.05,1.22-1.05,1.22h0"/>
        <line class="cls-5" x1="141.97" y1="153.15" x2="142.05" y2="157.56"/>
      </g>
      <g>
        <path class="cls-5" d="M163.53,153.15l-6.92-.05c3.8,1.69,5.15,2.66,5.66,3.25,.07,.08,1.05,1.22,1.05,1.22h0"/>
        <line class="cls-5" x1="163.4" y1="153.15" x2="163.32" y2="157.56"/>
      </g>
      <g>
        <path class="cls-5" d="M102.29,156.49l6.92-.05c-3.8,1.69-5.15,2.66-5.66,3.25-.07,.08-1.05,1.22-1.05,1.22h0"/>
        <line class="cls-5" x1="102.42" y1="156.49" x2="102.5" y2="160.9"/>
      </g>
      <g>
        <path class="cls-5" d="M121.99,156.49l-6.92-.05c3.8,1.69,5.15,2.66,5.66,3.25,.07,.08,1.05,1.22,1.05,1.22h0"/>
        <line class="cls-5" x1="121.85" y1="156.49" x2="121.77" y2="160.9"/>
      </g>
      <line class="cls-5" x1="82.43" y1="157.24" x2="93.6" y2="157.2"/>
      <line class="cls-5" x1="81.39" y1="166.28" x2="92.99" y2="166.49"/>
      <line class="cls-5" x1="93.6" y1="157.2" x2="92.99" y2="166.49"/>
      <line class="cls-5" x1="82.43" y1="157.24" x2="81.39" y2="166.28"/>
    </g>
    <line class="cls-5" x1="212.96" y1="167.93" x2="227.82" y2="167.98"/>
    <line class="cls-5" x1="213.2" y1="169.67" x2="227.88" y2="169.99"/>
    <line class="cls-5" x1="213.03" y1="168.89" x2="227.91" y2="168.87"/>
    <line class="cls-5" x1="79.52" y1="168.77" x2="93.68" y2="168.85"/>
    <line class="cls-5" x1="79.44" y1="169.64" x2="93.68" y2="169.78"/>
    <line class="cls-5" x1="79.44" y1="170.38" x2="93.66" y2="170.4"/>
    <path class="cls-5" d="M75.3,157.39h0s4.4,.25,4.4,.25h0s.68-3.85,.68-3.85h0s-1.13,.27-2.13-.11c-.08-.03-.39-.15-.83-.29-.4-.13-.59-.17-.68-.07-.13,.12,.04,.35-.07,.47-.21,.23-1.06-.37-1.26-.15-.11,.12,.11,.33,0,.58-.14,.29-.54,.18-.89,.58-.14,.16-.2,.32-.23,.4-.03,.08-.22,.63,.04,.98,.28,.39,.85,.16,1.01,.51,0,0,.04,.09-.04,.69Z"/>
    <path class="cls-5" d="M95.98,157.45h0s4.4-.17,4.4-.17h0s.32-3.89,.32-3.89h0s-1.1,.37-2.13,.1c-.08-.02-.4-.11-.85-.21-.41-.09-.6-.11-.69,0-.11,.14,.07,.35-.03,.48-.19,.25-1.09-.26-1.27-.02-.1,.13,.15,.32,.05,.58-.11,.31-.52,.23-.83,.66-.13,.17-.17,.34-.19,.42-.02,.08-.15,.65,.13,.97,.32,.36,.86,.08,1.05,.41,0,0,.05,.08,.03,.69Z"/>
    <path class="cls-5" d="M231.78,156.55h0s-4.4,.25-4.4,.25h0s-.68-3.85-.68-3.85h0s1.13,.27,2.13-.11c.08-.03,.39-.15,.83-.29,.4-.13,.59-.17,.68-.07,.13,.12-.04,.35,.07,.47,.21,.23,1.06-.37,1.26-.15,.11,.12-.11,.33,0,.58,.14,.29,.54,.18,.89,.58,.14,.16,.2,.32,.23,.4,.03,.08,.22,.63-.04,.98-.28,.39-.85,.16-1.01,.51,0,0-.04,.09,.04,.69Z"/>
    <path class="cls-5" d="M210.47,152.62h0s-4.4-.16-4.4-.16h0s-.6,3.86-.6,3.86h0s1.13-.29,2.13,.06c.08,.03,.39,.14,.84,.27,.4,.12,.59,.15,.69,.06,.12-.13-.05-.35,.06-.47,.21-.24,1.06,.34,1.26,.12,.11-.12-.12-.33-.01-.58,.13-.3,.54-.2,.88-.6,.14-.16,.19-.33,.22-.41,.03-.08,.2-.64-.06-.98-.29-.38-.86-.14-1.02-.49,0,0-.04-.09,.02-.69Z"/>
    <path class="cls-5" d="M133.69,152.94h0s4.4,.25,4.4,.25h0s.68-3.85,.68-3.85h0s-1.13,.27-2.13-.11c-.08-.03-.39-.15-.83-.29-.4-.13-.59-.17-.68-.07-.13,.12,.04,.35-.07,.47-.21,.23-1.06-.37-1.26-.15-.11,.12,.11,.33,0,.58-.14,.29-.54,.18-.89,.58-.14,.16-.2,.32-.23,.4-.03,.08-.22,.63,.04,.98,.28,.39,.85,.16,1.01,.51,0,0,.04,.09-.04,.69Z"/>
    <path class="cls-5" d="M172.1,152.94h0s-4.4,.25-4.4,.25h0s-.68-3.85-.68-3.85h0s1.13,.27,2.13-.11c.08-.03,.39-.15,.83-.29,.4-.13,.59-.17,.68-.07,.13,.12-.04,.35,.07,.47,.21,.23,1.06-.37,1.26-.15,.11,.12-.11,.33,0,.58,.14,.29,.54,.18,.89,.58,.14,.16,.2,.32,.23,.4,.03,.08,.22,.63-.04,.98-.28,.39-.85,.16-1.01,.51,0,0-.04,.09,.04,.69Z"/>
    <path class="cls-5" d="M182.4,156.22h0s-4.4,.17-4.4,.17h0s-.61-3.86-.61-3.86h0s1.13,.29,2.13-.07c.08-.03,.39-.14,.83-.27,.4-.12,.59-.16,.69-.06,.12,.13-.04,.35,.06,.47,.21,.24,1.06-.35,1.26-.12,.11,.12-.12,.33-.01,.58,.13,.3,.54,.19,.88,.59,.14,.16,.19,.33,.22,.41,.03,.08,.2,.64-.05,.98-.29,.38-.86,.14-1.02,.49,0,0-.04,.09,.02,.69Z"/>
    <path class="cls-5" d="M123.55,156.76h0s4.4-.19,4.4-.19h0s.3-3.9,.3-3.9h0s-1.1,.38-2.13,.1c-.08-.02-.4-.11-.85-.21-.41-.09-.6-.11-.69,0-.11,.14,.07,.35-.03,.48-.19,.25-1.09-.26-1.27-.02-.1,.13,.15,.32,.06,.58-.11,.31-.52,.24-.83,.66-.12,.17-.17,.34-.19,.42-.02,.08-.15,.65,.13,.97,.32,.36,.86,.07,1.05,.4,0,0,.05,.08,.03,.69Z"/>
    <line class="cls-5" x1="231.78" y1="156.55" x2="237.22" y2="188.55"/>
    <line class="cls-5" x1="227.93" y1="156.77" x2="232.88" y2="188.63"/>
    <line class="cls-5" x1="210.45" y1="156.36" x2="214.59" y2="189.25"/>
    <line class="cls-5" x1="205.47" y1="156.33" x2="209.9" y2="188.79"/>
    <line class="cls-5" x1="182.07" y1="156.39" x2="183.53" y2="188.63"/>
    <line class="cls-5" x1="178" y1="156.39" x2="179.25" y2="188.65"/>
    <line class="cls-5" x1="171.95" y1="153.27" x2="172.72" y2="188.79"/>
    <line class="cls-5" x1="167.7" y1="153.19" x2="168.16" y2="188.7"/>
    <line class="cls-5" x1="75.3" y1="157.39" x2="70.95" y2="188.68"/>
    <line class="cls-5" x1="79.69" y1="157.64" x2="75.59" y2="188.48"/>
    <line class="cls-5" x1="95.98" y1="157.45" x2="92.4" y2="189.24"/>
    <line class="cls-5" x1="100.38" y1="157.28" x2="96.81" y2="189.06"/>
    <line class="cls-5" x1="133.69" y1="152.94" x2="132.93" y2="189.25"/>
    <line class="cls-5" x1="138.08" y1="153.19" x2="137.89" y2="189.25"/>
    <line class="cls-5" x1="70.72" y1="188.79" x2="76.34" y2="188.63"/>
    <line class="cls-5" x1="91.91" y1="189.25" x2="97.71" y2="189.21"/>
    <line class="cls-5" x1="121.81" y1="189.14" x2="128.25" y2="189.35"/>
    <line class="cls-5" x1="132.2" y1="189.25" x2="138.47" y2="189.25"/>
    <line class="cls-5" x1="167.37" y1="188.79" x2="174.15" y2="188.79"/>
    <line class="cls-5" x1="178.63" y1="188.79" x2="184" y2="188.79"/>
    <line class="cls-5" x1="231.81" y1="188.79" x2="237.92" y2="188.51"/>
    <line class="cls-5" x1="209.1" y1="189.25" x2="215.81" y2="189.25"/>
  </g>
  <rect class="cls-2" x="307.51" y=".74" width="310.75" height="310.75"/>
  <rect class="cls-1" x="325.14" y="18.37" width="275.49" height="275.49"/>
  <rect class="cls-3" x="341.53" y="34.76" width="242.71" height="242.71"/>
  <g>
    <path class="cls-5" d="M417.97,223.25c-.25,.29-.02,.83,.13,1.38,.15,.52,.29,1.3,.24,2.33,27.72-1.74,38.49-2.41,38.53-2.41,0,0,15.55-.26,65.39,2.59,.12-1.24,.25-2.47,.37-3.71-4.92-.75-8.37-1.02-10.75-1.1-.58-.02-1.17-.04-1.85-.38-2.17-1.1-1.59-3.75-3.52-8.89-.3-.79-1.18-3.04-2.22-6.11-.35-1.03-.79-2.4-.22-3.72,.35-.81,.79-.92,1.27-1.61,.55-.78,.82-1.85,.27-5.56-.37-2.51-.63-4.2-1.5-6.72-.96-2.75-2.03-4.68-2.41-5.37-4.8-8.78-7.39-13.51-7.6-19.08-.2-5.38,1.98-7.47,.19-12.13-.78-2.05-1.6-2.7-2.01-5.09-.63-3.7,.44-7.46,.69-8.34,0,0,.02-.07,.94-3.15,.39-1.55,.61-1.87,.74-1.85,.15,.02,.11,.47,.44,.76,.49,.44,1.39,.16,1.47,.13,1.41-.45,1.89-2.5,2.14-3.55,.32-1.35,.56-2.39,0-3.01-.73-.82-2.01,0-3.41-.8-.91-.51-1.01-1.21-1.74-2.41-.22-.37-2.85-4.58-6.49-5.09-1.33-.19-1.97,.24-3.28-.33-.87-.39-1.36-.92-2.21-1.81-2.31-2.43-3.77-3.01-3.55-3.61,.11-.29,.45-.21,1.07-.6,.88-.56,1-1.27,1.61-2.28,1.2-2,2.21-1.66,2.61-3.08,.33-1.15-.31-1.46,.07-2.68,.45-1.46,1.45-1.3,1.67-2.41,.35-1.68-1.52-4.25-2.41-5.15-.1-.1-.51-.51-.4-.74,.13-.25,.76,.06,1.14-.2,.77-.53,.41-3.44-1-4.08-.93-.42-1.68,.42-2.61-.07-.71-.37-.88-1.18-1.14-2.01-1.17-3.81-3.55-6.78-4.62-6.56-.23,.05-.51,.26-.67,.13-.16-.13,0-.47,0-.87-.01-.62-.43-1.06-.69-1.36-4-4.66-5.17-7.68-5.17-7.68-.21-.55-.39-1.15-.97-1.47-1.03-.58-2.13,.37-2.94-.2-.59-.41-.2-1.04-.67-2.01-.83-1.71-2.72-1.12-4.8-3.2-.87-.86-.9-1.33-1.71-1.66-.94-.39-2.15-.27-3.06,.25-.9,.51-.73,.96-1.71,1.51-.31,.17-1.46,.82-2.56,.45-.88-.3-.94-.98-1.76-1.1-.58-.09-.83,.22-1.61,.5-.91,.33-1.26,.16-4.27,.1-1.35-.03-2.02-.04-2.31,0-1.67,.22-1.82,.76-3.71,1.2-1.89,.44-2.21,.02-2.96,.6-.99,.77-1.53,2.39-1.61,2.61-.17,.53-.16,.73-.4,1.1-.6,.93-1.66,1.22-1.81,1.25-1.57,.4-2.1-.8-3.51-.35-.2,.06-1.3,.41-1.81,1.36-.23,.42-.23,.77-.6,1-.4,.26-.65,.03-1.2,.3-.12,.06-.55,.29-.8,.75-.09,.16-.16,.39-.3,.85-.14,.46-.14,.56-.25,.65-.26,.23-.67,.03-1,.01-1.15-.07-2.77,1.89-2.87,3.8-.05,1,.34,1.54-.05,1.96-.44,.47-1.1-.03-1.86,.35-1.39,.7-1.33,3.49-1.31,3.97,.04,1.03,.27,1.03,.25,1.96-.03,1.35-.52,2.1-.9,3.16-.57,1.59-.53,2.94-.5,4.22,.08,3.29,1.36,4.01,.7,6.12-.21,.69-.51,1.13-.35,1.81,.17,.73,.7,.98,1.76,2.26,.29,.35,.14,.2,1,1.36,1.25,1.67,1.88,2.5,2.31,2.81,.98,.7,1.22,.31,2.41,1.15,.61,.43,.45,.47,1.76,1.61,1.17,1.02,1.38,1.07,1.61,1.56,.33,.72,.05,1.03,.5,1.76,.27,.43,.62,.73,.95,1,.41,.34,.66,.55,1.05,.7,.72,.28,1.18,.1,1.41,.45,.16,.24-.01,.4,.15,.6,.26,.31,.76,.02,1.31,.3,.17,.09,.19,.16,.6,.65,1.05,1.28,1.45,1.48,1.61,1.56,.32,.15,.56,.26,.85,.2,.8-.16,.91-1.35,1.46-1.36,.42,0,.45,.71,1.15,.95,.41,.14,.99,.12,1.31-.2,.36-.36,.08-.79,.45-1.2,.32-.36,.95-.52,1.31-.3,.35,.21,.2,.66,.6,.9,.25,.15,.35,0,.8,.1,.62,.14,.7,.49,1.31,.6,.34,.06,.54,0,.65,0,1.93,.13,1.4,24.73,1.76,26.15,0,.03,.04,.15,0,.25-.23,.49-1.7-.21-2.91,.15-1.1,.33-1.67,1.62-2.81,4.22-.91,2.07-.85,2.74-.65,3.21,.22,.54,.57,.72,1.41,1.36,1.63,1.25,2.85,2.18,3.56,3.51,.56,1.05,.66,2.09,.79,3.31,.13,1.28,.04,2.26,.02,2.51-.48,5.62,.25,34.46,.48,38.81,0,.11,.02,.36,.02,.7,.01,1.12-.1,2.2-.85,5.42-.37,1.56-.61,2.45-1.1,3.51-.47,1.01-.74,1.26-.95,1.41-.9,.63-1.78,.14-3.21,.3-1.25,.14-1.7,.64-3.01,1.25-1.24,.58-2.64,.81-5.42,1.25-5.86,.94-8.79,1.41-9.04,1.4-.12,0-.49-.04-.69,.18Z"/>
    <path class="cls-5" d="M484.2,219.76c.29,.47,1.14,.42,1.67,.4,4.27-.19,6.65-.29,7.9,.07,.15,.04,.72,.22,1.41,.07,.31-.07,.81-.18,.94-.47,.27-.61-1.28-1.48-3.15-3.55-1.08-1.2-1.51-1.95-3.01-3.35-.77-.72-1.54-1.33-2.28-1.14-.51,.14-.84,.62-.87,.67-.43,.66-.06,1.16-.4,1.61-.46,.61-1.39,0-1.94,.54-.67,.65,.45,1.83-.09,3.83-.16,.6-.39,.98-.18,1.32Z"/>
    <path class="cls-5" d="M460.12,170.67c-.38,.39-.21,1.11-.16,1.33,.78,3.54,.3,7.31,1.22,10.82,1.13,4.3,.02,2.96,1.5,13.01,1.31,8.9,2.41,11.55,2.82,12.49,2.13,4.87,5.21,8.41,5.72,8.13,.37-.2-.84-2.33-1.25-6.43-.2-2-.32-3.09-.05-4.47,.71-3.72,3.09-4,4.32-8.13,.28-.96,.83-2.89,.35-5.17-.26-1.22-.56-1.37-2.26-4.57-1.66-3.13-2.5-4.74-3.06-6.83-.36-1.37-.24-1.5-.7-3.06-.63-2.16-.97-2.27-1.66-4.52-.57-1.86-.49-2.26-1-2.61-.79-.53-1.35,.15-3.61-.05-1.13-.1-1.78-.34-2.16,.05Z"/>
    <path class="cls-5" d="M458.56,126.39c-.14,.15-.11,.38-.1,.45,.12,1.06,.23,6.27,.16,8.05-.14,3.79-.21,5.68-.36,6.51-.02,.13-.09,.48,.1,.7,.43,.52,1.56-.31,2.41,.2,.36,.22,.54,.75,.9,1.81,.26,.78,.4,1.16,.35,1.61-.07,.69-.39,.78-.6,1.76-.07,.31-.16,.74-.1,1.25,.09,.84,.47,.91,.7,1.71,.39,1.32-.32,2.23,.25,2.71,.14,.12,.37,.22,.55,.15,.35-.13,.38-.83,.39-1.04,.11-1.47,1.51-2.8,2.07-3.33,1.36-1.3,3.65-2.17,4.42-2.46,.27-.1,.65-.24,.95-.6,.6-.71,.16-1.4,.6-2.37,.41-.92,1-.76,1.51-1.64,.45-.77,.19-1.21,.25-2.86,.03-.88,.11-2.61,.85-4.32,.6-1.38,.93-1.12,1.36-2.26,.76-2.01,.21-4.04-.05-4.97-.15-.54-.58-1.94-1.15-3.41-.23-.58-.46-1.12-.4-1.86,.06-.87,.48-1.41,.3-1.56-.25-.2-.97,.92-1.96,.9-1.31-.03-1.89-2.01-2.71-1.81-.41,.1-.65,.68-1.05,1.66-.33,.8-.36,1.26-.8,1.51-.35,.2-.51,0-.9,.15-.84,.31-.66,1.4-1.36,1.81-.86,.51-1.69-.82-2.91-.45-1.22,.37-1.37,1.98-2.49,1.99-.45,0-.94-.24-1.17,.02Z"/>
  </g>
  <rect class="cls-2" x=".74" y="312.47" width="310.75" height="310.75"/>
  <rect class="cls-1" x="18.37" y="330.1" width="275.49" height="275.49"/>
  <rect class="cls-3" x="34.76" y="348.1" width="242.71" height="242.71"/>
  <g>
    <line class="cls-4" x1="171.41" y1="437.44" x2="170.76" y2="504.32"/>
    <line class="cls-5" x1="169.07" y1="505.89" x2="170.76" y2="504.32"/>
    <line class="cls-5" x1="56.59" y1="499.02" x2="87.13" y2="499.02"/>
    <line class="cls-5" x1="56.91" y1="483.96" x2="88.47" y2="484.36"/>
    <line class="cls-5" x1="55.39" y1="480.98" x2="88.47" y2="481.59"/>
    <line class="cls-5" x1="56.95" y1="482.33" x2="56.59" y2="498.69"/>
    <line class="cls-5" x1="55.39" y1="480.98" x2="56.95" y2="482.33"/>
    <line class="cls-5" x1="88.47" y1="481.59" x2="87.13" y2="499.02"/>
    <line class="cls-5" x1="57.44" y1="480.05" x2="85.66" y2="480.77"/>
    <line class="cls-5" x1="55.39" y1="480.98" x2="57.44" y2="480.05"/>
    <line class="cls-5" x1="85.66" y1="480.77" x2="88.47" y2="481.59"/>
    <line class="cls-5" x1="141.47" y1="472.8" x2="154.83" y2="472.93"/>
    <line class="cls-5" x1="142.39" y1="504.77" x2="141.47" y2="472.8"/>
    <line class="cls-5" x1="153.7" y1="504.43" x2="154.83" y2="472.93"/>
    <line class="cls-5" x1="141.63" y1="474.83" x2="149.6" y2="474.83"/>
    <line class="cls-5" x1="148.75" y1="504.23" x2="149.6" y2="474.83"/>
    <line class="cls-5" x1="153.7" y1="504.43" x2="148.75" y2="504.23"/>
    <line class="cls-5" x1="163.26" y1="504.79" x2="153.7" y2="504.43"/>
    <line class="cls-5" x1="162.6" y1="460.05" x2="163.26" y2="504.79"/>
    <line class="cls-5" x1="143.48" y1="459.1" x2="162.6" y2="460.05"/>
    <line class="cls-5" x1="143.52" y1="456.17" x2="143.48" y2="459.1"/>
    <line class="cls-5" x1="129.81" y1="456.31" x2="143.52" y2="456.17"/>
    <line class="cls-5" x1="129.86" y1="458.52" x2="129.81" y2="456.31"/>
    <line class="cls-5" x1="126.66" y1="458.61" x2="129.86" y2="458.52"/>
    <line class="cls-5" x1="126.23" y1="461.31" x2="126.66" y2="458.61"/>
    <line class="cls-5" x1="128.78" y1="461.67" x2="126.23" y2="461.31"/>
    <line class="cls-5" x1="129.84" y1="465.32" x2="128.78" y2="461.67"/>
    <line class="cls-5" x1="128.49" y1="466.4" x2="129.84" y2="465.32"/>
    <line class="cls-5" x1="128.3" y1="468.11" x2="128.49" y2="466.4"/>
    <line class="cls-5" x1="129.84" y1="468.29" x2="128.3" y2="468.11"/>
    <line class="cls-5" x1="129.07" y1="504.03" x2="129.84" y2="468.29"/>
    <line class="cls-5" x1="134.19" y1="504.61" x2="142.39" y2="504.77"/>
    <line class="cls-5" x1="129.07" y1="504.03" x2="134.19" y2="504.61"/>
    <line class="cls-5" x1="148.52" y1="474.83" x2="149.18" y2="486.35"/>
    <line class="cls-5" x1="148.85" y1="499.41" x2="142.24" y2="499.43"/>
    <line class="cls-5" x1="87.97" y1="469.72" x2="129.79" y2="470.33"/>
    <line class="cls-5" x1="85.04" y1="475.2" x2="87.97" y2="469.72"/>
    <line class="cls-5" x1="85.68" y1="480.41" x2="85.92" y2="476.92"/>
    <line class="cls-5" x1="85.04" y1="475.2" x2="84.86" y2="476.99"/>
    <line class="cls-5" x1="85.91" y1="477.12" x2="84.86" y2="476.99"/>
    <line class="cls-5" x1="88.93" y1="472.87" x2="129.72" y2="473.58"/>
    <line class="cls-5" x1="88.42" y1="482.19" x2="88.93" y2="472.87"/>
    <line class="cls-5" x1="87.13" y1="499.02" x2="129.16" y2="499.02"/>
    <line class="cls-5" x1="96.22" y1="476.33" x2="101.68" y2="476.25"/>
    <line class="cls-5" x1="99.52" y1="477.06" x2="101.65" y2="477.06"/>
    <line class="cls-5" x1="101.68" y1="476.25" x2="101.61" y2="477.06"/>
    <line class="cls-5" x1="101.47" y1="487.56" x2="96.31" y2="487.53"/>
    <line class="cls-5" x1="96.22" y1="476.33" x2="96.17" y2="487.67"/>
    <line class="cls-5" x1="101.5" y1="480.73" x2="101.47" y2="487.56"/>
    <line class="cls-5" x1="99.56" y1="478.14" x2="101.5" y2="480.73"/>
    <line class="cls-5" x1="99.59" y1="477.06" x2="99.56" y2="478.14"/>
    <line class="cls-5" x1="105.24" y1="476.22" x2="109.67" y2="476.25"/>
    <line class="cls-5" x1="104.96" y1="487.55" x2="109.69" y2="487.55"/>
    <line class="cls-5" x1="109.69" y1="480.46" x2="109.69" y2="487.55"/>
    <line class="cls-5" x1="104.96" y1="480.75" x2="104.96" y2="487.55"/>
    <line class="cls-5" x1="106.98" y1="478.43" x2="104.96" y2="480.75"/>
    <line class="cls-5" x1="106.94" y1="477.06" x2="106.98" y2="478.43"/>
    <line class="cls-5" x1="105.24" y1="476.22" x2="105.27" y2="477.1"/>
    <line class="cls-5" x1="106.94" y1="477.06" x2="105.25" y2="477.06"/>
    <line class="cls-5" x1="108.17" y1="477" x2="109.69" y2="477.06"/>
    <line class="cls-5" x1="109.67" y1="476.25" x2="109.69" y2="477.06"/>
    <line class="cls-5" x1="108.17" y1="477" x2="108.19" y2="477.99"/>
    <line class="cls-5" x1="109.78" y1="480.52" x2="108.19" y2="477.99"/>
    <line class="cls-5" x1="114.78" y1="498.35" x2="122.32" y2="498.44"/>
    <line class="cls-5" x1="114.59" y1="487.55" x2="114.78" y2="498.35"/>
    <line class="cls-5" x1="122.56" y1="487.85" x2="122.32" y2="498.44"/>
    <line class="cls-5" x1="115.54" y1="487.55" x2="114.69" y2="487.74"/>
    <line class="cls-5" x1="121.47" y1="487.55" x2="122.56" y2="487.85"/>
    <line class="cls-5" x1="121.08" y1="484.15" x2="121.47" y2="487.55"/>
    <line class="cls-5" x1="115.57" y1="484" x2="115.54" y2="487.55"/>
    <line class="cls-5" x1="116.37" y1="482.94" x2="116.4" y2="483.73"/>
    <line class="cls-5" x1="115.57" y1="484" x2="116.4" y2="483.73"/>
    <line class="cls-5" x1="113.15" y1="482.72" x2="116.38" y2="482.8"/>
    <line class="cls-5" x1="113.13" y1="480.75" x2="113.15" y2="482.72"/>
    <line class="cls-5" x1="114.88" y1="477.28" x2="113.13" y2="480.75"/>
    <line class="cls-5" x1="113.49" y1="477.24" x2="114.88" y2="477.28"/>
    <line class="cls-5" x1="113.46" y1="476.36" x2="113.49" y2="477.24"/>
    <line class="cls-5" x1="123.66" y1="476.49" x2="113.46" y2="476.36"/>
    <line class="cls-5" x1="121.83" y1="477.17" x2="123.62" y2="477.26"/>
    <line class="cls-5" x1="123.66" y1="476.49" x2="123.62" y2="477.26"/>
    <line class="cls-5" x1="121.83" y1="477.17" x2="121.8" y2="477.64"/>
    <line class="cls-5" x1="123.64" y1="480.75" x2="121.8" y2="477.64"/>
    <line class="cls-5" x1="123.55" y1="483.05" x2="123.64" y2="480.59"/>
    <line class="cls-5" x1="120.74" y1="482.96" x2="123.55" y2="483.05"/>
    <line class="cls-5" x1="120.2" y1="483.33" x2="120.74" y2="482.96"/>
    <line class="cls-5" x1="120.18" y1="484" x2="120.13" y2="483.15"/>
    <line class="cls-5" x1="121.09" y1="484.24" x2="120.32" y2="484"/>
    <line class="cls-5" x1="126.99" y1="476.43" x2="129.16" y2="476.43"/>
    <line class="cls-5" x1="126.77" y1="480.59" x2="126.99" y2="487.7"/>
    <line class="cls-5" x1="129.42" y1="487.7" x2="126.99" y2="487.7"/>
    <line class="cls-5" x1="126.99" y1="476.43" x2="126.99" y2="477.22"/>
    <line class="cls-5" x1="128.4" y1="477.41" x2="126.99" y2="477.41"/>
    <line class="cls-5" x1="126.88" y1="480.59" x2="128.52" y2="477.41"/>
    <line class="cls-5" x1="129.16" y1="476.43" x2="129.55" y2="481.74"/>
    <line class="cls-5" x1="197.4" y1="454.83" x2="197.4" y2="511.86"/>
    <line class="cls-5" x1="218.6" y1="455.62" x2="220.85" y2="511.86"/>
    <line class="cls-5" x1="197.4" y1="454.83" x2="218.6" y2="455.62"/>
    <line class="cls-5" x1="204.04" y1="460.49" x2="203.8" y2="510.09"/>
    <line class="cls-5" x1="197.4" y1="459.96" x2="204.51" y2="459.96"/>
    <line class="cls-5" x1="203.8" y1="510.09" x2="213.86" y2="511"/>
    <line class="cls-5" x1="234.71" y1="511.86" x2="220.85" y2="511.86"/>
    <line class="cls-5" x1="213.86" y1="511" x2="220.44" y2="511.86"/>
    <line class="cls-5" x1="230.92" y1="435.91" x2="234.71" y2="511.86"/>
    <line class="cls-5" x1="232.4" y1="432.12" x2="230.92" y2="435.91"/>
    <line class="cls-5" x1="236.01" y1="432.23" x2="232.4" y2="432.12"/>
    <line class="cls-5" x1="240.21" y1="429.74" x2="236.01" y2="432.23"/>
    <line class="cls-5" x1="240.09" y1="426.63" x2="240.21" y2="429.74"/>
    <line class="cls-5" x1="178.04" y1="425.32" x2="240.09" y2="426.63"/>
    <line class="cls-5" x1="175.02" y1="427.3" x2="178.04" y2="425.32"/>
    <line class="cls-5" x1="175.32" y1="430.14" x2="175.02" y2="427.3"/>
    <line class="cls-5" x1="179.76" y1="430.14" x2="175.32" y2="430.14"/>
    <line class="cls-5" x1="178.58" y1="432.17" x2="179.76" y2="430.14"/>
    <line class="cls-5" x1="167.27" y1="432.17" x2="178.58" y2="432.17"/>
    <line class="cls-5" x1="166.08" y1="434.38" x2="167.27" y2="432.17"/>
    <line class="cls-5" x1="166.2" y1="437.04" x2="166.08" y2="434.38"/>
    <line class="cls-5" x1="171.41" y1="437.44" x2="166.2" y2="437.04"/>
    <line class="cls-5" x1="183" y1="511.86" x2="197.4" y2="511.86"/>
    <line class="cls-5" x1="170.05" y1="510.55" x2="183" y2="511.86"/>
    <line class="cls-5" x1="169.07" y1="505.89" x2="169.78" y2="510.6"/>
  </g>
  <rect class="cls-2" x="307.51" y="312.54" width="310.75" height="310.75"/>
  <rect class="cls-1" x="325.14" y="330.17" width="275.49" height="275.49"/>
  <rect class="cls-3" x="341.53" y="348.17" width="242.71" height="242.71"/>
  <g>
    <g>
      <g>
        <g>
          <line class="cls-4" x1="467.47" y1="517.65" x2="366.67" y2="517.6"/>
          <line class="cls-4" x1="367.22" y1="501.83" x2="366.67" y2="517.6"/>
          <line class="cls-5" x1="366.08" y1="500.33" x2="367.22" y2="501.83"/>
          <line class="cls-5" x1="367.17" y1="500.27" x2="366.08" y2="500.33"/>
          <line class="cls-5" x1="367.54" y1="491.87" x2="367.17" y2="500.27"/>
          <line class="cls-5" x1="366.65" y1="491.9" x2="367.54" y2="491.97"/>
          <line class="cls-5" x1="366.65" y1="490.65" x2="366.65" y2="491.9"/>
          <line class="cls-5" x1="368.58" y1="489.76" x2="367.09" y2="489.77"/>
          <line class="cls-5" x1="367.09" y1="490.48" x2="367.09" y2="489.77"/>
          <line class="cls-5" x1="366.62" y1="490.57" x2="367.18" y2="490.48"/>
          <line class="cls-5" x1="368.46" y1="486.58" x2="368.44" y2="489.77"/>
          <line class="cls-5" x1="372.44" y1="486.62" x2="368.46" y2="486.72"/>
          <path class="cls-5" d="M372.62,486.09c.32-.07,.65-.13,.97-.2,.2-.08,1.37-.55,1.89-1.93,.29-.76,.51-2.15-.05-2.83-.12-.14-.22-.19-.22-.32-.02-.48,1.32-1.07,2.51-1.13,0,0,.97-.04,2.07,.66,.09,.06,.24,.16,.25,.32,.01,.2-.21,.34-.32,.46,0,0-.45,.48,.13,3.35h0c.04,.26,.18,1.12,.72,1.42,.18,.1,.37,.12,.67,.14,.4,.04,.73,0,.95-.03"/>
          <line class="cls-5" x1="372.69" y1="486.08" x2="372.44" y2="486.62"/>
          <line class="cls-5" x1="438.21" y1="487.91" x2="388.76" y2="487.56"/>
          <line class="cls-5" x1="385.73" y1="486.35" x2="388.76" y2="487.56"/>
          <line class="cls-5" x1="382.49" y1="486.35" x2="385.73" y2="486.35"/>
          <line class="cls-5" x1="382.1" y1="485.93" x2="382.49" y2="486.35"/>
          <line class="cls-5" x1="438.94" y1="469.87" x2="438.21" y2="487.91"/>
          <line class="cls-5" x1="437.62" y1="467.71" x2="438.96" y2="470.08"/>
          <line class="cls-5" x1="439.21" y1="467.76" x2="437.62" y2="467.71"/>
          <line class="cls-5" x1="439.21" y1="467.76" x2="439.37" y2="461.06"/>
          <line class="cls-5" x1="439.01" y1="459.79" x2="439.37" y2="461.29"/>
          <line class="cls-5" x1="439.77" y1="459.55" x2="439.01" y2="459.79"/>
          <line class="cls-5" x1="440.07" y1="450.24" x2="439.77" y2="459.55"/>
          <line class="cls-5" x1="439.56" y1="448.58" x2="439.56" y2="449.62"/>
          <line class="cls-5" x1="439.56" y1="449.53" x2="440.14" y2="450.39"/>
          <line class="cls-5" x1="440.37" y1="448.25" x2="439.56" y2="448.72"/>
          <line class="cls-5" x1="440.9" y1="442.35" x2="440.37" y2="448.25"/>
          <line class="cls-5" x1="443.49" y1="438.07" x2="440.9" y2="442.35"/>
          <line class="cls-5" x1="443.82" y1="434.01" x2="443.82" y2="436.99"/>
          <line class="cls-5" x1="443.25" y1="436.95" x2="443.82" y2="436.99"/>
          <line class="cls-5" x1="442.99" y1="437.99" x2="443.49" y2="438.07"/>
          <line class="cls-5" x1="443.25" y1="436.95" x2="442.99" y2="437.99"/>
          <path class="cls-5" d="M445.72,427.16c-.6,.3-.77,.59-.8,.83-.05,.47,.42,1.13,.42,1.13h0c-.51,1.63-1.02,3.26-1.53,4.89"/>
          <line class="cls-5" x1="449.47" y1="448.72" x2="450.25" y2="449.26"/>
          <line class="cls-5" x1="449.39" y1="442.78" x2="449.47" y2="448.72"/>
          <line class="cls-5" x1="447.14" y1="438.26" x2="449.39" y2="442.78"/>
          <line class="cls-5" x1="447.11" y1="434.18" x2="446.89" y2="437.15"/>
          <line class="cls-5" x1="447.45" y1="437.17" x2="446.89" y2="437.15"/>
          <line class="cls-5" x1="447.64" y1="438.23" x2="447.14" y2="438.26"/>
          <line class="cls-5" x1="447.45" y1="437.17" x2="447.64" y2="438.23"/>
          <path class="cls-5" d="M445.72,427.16c.58,.36,.73,.67,.74,.91,.02,.48-.5,1.09-.5,1.09h0c.38,1.68,.77,3.35,1.15,5.03"/>
        </g>
        <line class="cls-5" x1="450.25" y1="449.26" x2="450.22" y2="450.24"/>
        <line class="cls-5" x1="449.72" y1="451.12" x2="450.22" y2="450.24"/>
        <line class="cls-5" x1="449.72" y1="459.9" x2="449.72" y2="451.12"/>
        <line class="cls-5" x1="449.86" y1="462.87" x2="450.48" y2="461.79"/>
        <line class="cls-5" x1="449.72" y1="459.9" x2="450.48" y2="461.79"/>
        <line class="cls-5" x1="449.86" y1="462.87" x2="449.86" y2="465.02"/>
        <line class="cls-5" x1="451.3" y1="465.02" x2="449.86" y2="465.02"/>
        <line class="cls-5" x1="452.99" y1="465.02" x2="457.07" y2="465.02"/>
        <path class="cls-5" d="M451.15,465.02c-.09-3.43,.02-4.74,.2-5.12,.04-.08,.16-.29,.22-.62,.08-.43-.03-.61,.1-.87,.09-.17,.27-.35,.48-.35,.27,0,.49,.27,.55,.52,.05,.19-.03,.26-.02,.56,.01,.28,.1,.48,.13,.58,.26,.72,.24,2.58,.22,3.98,0,.32-.01,.77-.03,1.31"/>
        <path class="cls-5" d="M456.96,465.11c-.09-3.43,.02-4.74,.2-5.12,.04-.08,.16-.29,.22-.62,.08-.43-.03-.61,.1-.87,.09-.17,.27-.35,.48-.35,.27,0,.49,.27,.55,.52,.05,.19-.03,.26-.02,.56,.01,.28,.1,.48,.13,.58,.26,.72,.24,2.58,.22,3.98,0,.32-.01,.77-.03,1.31"/>
        <path class="cls-5" d="M462.17,455.02c.13,.38,1.38,4.11-.47,7.36-.94,1.65-2.25,2.42-2.89,2.73"/>
        <line class="cls-5" x1="461.97" y1="453.75" x2="462.04" y2="454.9"/>
        <line class="cls-5" x1="462.41" y1="455.88" x2="462.41" y2="455.88"/>
        <line class="cls-5" x1="462.41" y1="455.88" x2="462.04" y2="454.9"/>
        <line class="cls-5" x1="462.86" y1="453.78" x2="461.97" y2="453.75"/>
        <line class="cls-5" x1="463.72" y1="449.5" x2="464.59" y2="451.24"/>
        <line class="cls-5" x1="465.35" y1="449.45" x2="463.72" y2="449.5"/>
        <line class="cls-5" x1="465.23" y1="451.12" x2="464.59" y2="451.24"/>
        <line class="cls-5" x1="467.04" y1="440.52" x2="466.77" y2="444.37"/>
        <line class="cls-5" x1="465.65" y1="445.17" x2="466.78" y2="444.19"/>
        <line class="cls-5" x1="465.15" y1="448.18" x2="466.57" y2="447.17"/>
        <line class="cls-5" x1="467.39" y1="434.43" x2="467.39" y2="437.7"/>
        <line class="cls-5" x1="466.32" y1="436.07" x2="468.44" y2="436.07"/>
        <path class="cls-5" d="M462.86,453.78c.25-.03,.85-.15,1.42-.69,.76-.73,.91-1.71,.95-1.96"/>
        <path class="cls-5" d="M466.57,447.17c.04,.17,.12,.69-.1,1.24-.32,.8-1.02,1.01-1.12,1.04"/>
        <path class="cls-5" d="M465.65,445.17c-.13,.13-.66,.69-.73,1.63-.06,.66,.14,1.17,.24,1.38"/>
        <path class="cls-5" d="M467.39,437.7c-.48,.1-.87,.49-.99,1.01-.15,.63,.11,1.34,.65,1.67"/>
      </g>
      <line class="cls-5" x1="438.29" y1="492.51" x2="388.5" y2="492.51"/>
      <line class="cls-5" x1="385.73" y1="491.9" x2="388.5" y2="492.51"/>
      <line class="cls-5" x1="367.54" y1="491.97" x2="385.73" y2="491.9"/>
      <line class="cls-5" x1="438.08" y1="501.31" x2="388.02" y2="501.08"/>
      <line class="cls-5" x1="384.53" y1="500.56" x2="388.26" y2="501.08"/>
      <line class="cls-5" x1="367.17" y1="500.27" x2="384.53" y2="500.56"/>
      <line class="cls-5" x1="438.08" y1="499.64" x2="388.17" y2="499.46"/>
      <line class="cls-5" x1="384.63" y1="498.65" x2="388.17" y2="499.46"/>
      <line class="cls-5" x1="367.36" y1="498.42" x2="384.63" y2="498.65"/>
      <line class="cls-5" x1="390.01" y1="508.35" x2="392.39" y2="508.41"/>
      <line class="cls-5" x1="389.86" y1="513.73" x2="392.32" y2="513.61"/>
      <line class="cls-5" x1="390.01" y1="508.35" x2="389.86" y2="513.73"/>
      <line class="cls-5" x1="392.39" y1="508.41" x2="392.29" y2="513.73"/>
      <line class="cls-5" x1="397.49" y1="508.35" x2="399.88" y2="508.41"/>
      <line class="cls-5" x1="397.34" y1="513.73" x2="399.8" y2="513.61"/>
      <line class="cls-5" x1="397.49" y1="508.35" x2="397.34" y2="513.73"/>
      <line class="cls-5" x1="399.88" y1="508.41" x2="399.78" y2="513.73"/>
      <line class="cls-5" x1="405.06" y1="508.38" x2="407.45" y2="508.44"/>
      <line class="cls-5" x1="404.91" y1="513.75" x2="407.37" y2="513.64"/>
      <line class="cls-5" x1="405.06" y1="508.38" x2="404.91" y2="513.75"/>
      <line class="cls-5" x1="407.45" y1="508.44" x2="407.35" y2="513.75"/>
      <line class="cls-5" x1="412.89" y1="508.41" x2="415.27" y2="508.47"/>
      <line class="cls-5" x1="412.74" y1="513.78" x2="415.2" y2="513.67"/>
      <line class="cls-5" x1="412.89" y1="508.41" x2="412.74" y2="513.78"/>
      <line class="cls-5" x1="415.27" y1="508.47" x2="415.17" y2="513.78"/>
      <line class="cls-5" x1="420.74" y1="508.61" x2="423.13" y2="508.67"/>
      <line class="cls-5" x1="420.59" y1="513.98" x2="423.05" y2="513.86"/>
      <line class="cls-5" x1="420.74" y1="508.61" x2="420.59" y2="513.98"/>
      <line class="cls-5" x1="423.13" y1="508.67" x2="423.03" y2="513.98"/>
      <line class="cls-5" x1="393.96" y1="493.87" x2="390.63" y2="493.87"/>
      <line class="cls-5" x1="390.63" y1="494.55" x2="393.96" y2="494.49"/>
      <line class="cls-5" x1="390.93" y1="499.47" x2="390.88" y2="494.55"/>
      <line class="cls-5" x1="393.6" y1="499.43" x2="393.55" y2="494.51"/>
      <line class="cls-5" x1="393.81" y1="493.87" x2="393.96" y2="494.49"/>
      <line class="cls-5" x1="390.63" y1="493.87" x2="390.63" y2="494.41"/>
      <line class="cls-5" x1="401.49" y1="494" x2="398.16" y2="494"/>
      <line class="cls-5" x1="398.16" y1="494.68" x2="401.49" y2="494.62"/>
      <line class="cls-5" x1="398.46" y1="499.59" x2="398.41" y2="494.67"/>
      <line class="cls-5" x1="401.13" y1="499.56" x2="401.08" y2="494.63"/>
      <line class="cls-5" x1="401.34" y1="494" x2="401.49" y2="494.62"/>
      <line class="cls-5" x1="398.16" y1="494" x2="398.16" y2="494.53"/>
      <line class="cls-5" x1="408.88" y1="493.88" x2="405.54" y2="493.88"/>
      <line class="cls-5" x1="405.54" y1="494.55" x2="408.88" y2="494.5"/>
      <line class="cls-5" x1="405.84" y1="499.47" x2="405.79" y2="494.55"/>
      <line class="cls-5" x1="408.52" y1="499.44" x2="408.46" y2="494.51"/>
      <line class="cls-5" x1="408.73" y1="493.88" x2="408.88" y2="494.5"/>
      <line class="cls-5" x1="405.54" y1="493.88" x2="405.54" y2="494.41"/>
      <line class="cls-5" x1="416.54" y1="494" x2="413.21" y2="494"/>
      <line class="cls-5" x1="413.21" y1="494.68" x2="416.54" y2="494.62"/>
      <line class="cls-5" x1="413.5" y1="499.59" x2="413.45" y2="494.67"/>
      <line class="cls-5" x1="416.18" y1="499.56" x2="416.13" y2="494.63"/>
      <line class="cls-5" x1="416.39" y1="494" x2="416.54" y2="494.62"/>
      <line class="cls-5" x1="413.21" y1="494" x2="413.21" y2="494.53"/>
      <line class="cls-5" x1="424.4" y1="493.98" x2="421.07" y2="493.98"/>
      <line class="cls-5" x1="421.07" y1="494.66" x2="424.4" y2="494.6"/>
      <line class="cls-5" x1="421.36" y1="499.58" x2="421.31" y2="494.65"/>
      <line class="cls-5" x1="424.04" y1="499.54" x2="423.99" y2="494.62"/>
      <line class="cls-5" x1="424.25" y1="493.98" x2="424.4" y2="494.6"/>
      <line class="cls-5" x1="421.07" y1="493.98" x2="421.07" y2="494.51"/>
      <line class="cls-5" x1="431.94" y1="493.88" x2="428.6" y2="493.88"/>
      <line class="cls-5" x1="428.6" y1="494.55" x2="431.94" y2="494.5"/>
      <line class="cls-5" x1="428.9" y1="499.47" x2="428.85" y2="494.55"/>
      <line class="cls-5" x1="431.58" y1="499.44" x2="431.53" y2="494.51"/>
      <line class="cls-5" x1="431.79" y1="493.88" x2="431.94" y2="494.5"/>
      <line class="cls-5" x1="428.6" y1="493.88" x2="428.6" y2="494.41"/>
      <line class="cls-5" x1="428.64" y1="508.95" x2="431.03" y2="509.01"/>
      <line class="cls-5" x1="428.49" y1="514.32" x2="430.95" y2="514.2"/>
      <line class="cls-5" x1="428.64" y1="508.95" x2="428.49" y2="514.32"/>
      <line class="cls-5" x1="431.03" y1="509.01" x2="430.93" y2="514.32"/>
      <line class="cls-5" x1="438.21" y1="487.91" x2="437.95" y2="517.62"/>
      <path class="cls-5" d="M467.43,450.66c-.09,0-.69,.02-1.06,.58-.24,.35-.4,.95-.2,1.23,0,0,.12,.16,1.23,.12h0"/>
      <path class="cls-5" d="M467.43,455.74c-1,.07-1.44,.52-1.63,.77-.46,.62-.16,1.08-.4,3.5-.11,1.07-.24,1.71,.06,1.96,.29,.24,1.42,.07,1.06,.08h0c-.03-2.16,.13-2.98,.33-3.27,.04-.06,.19-.25,.23-.54,.05-.3-.05-.44-.03-.69,.01-.19,.09-.46,.4-.77"/>
      <line class="cls-5" x1="442.46" y1="481.2" x2="444.85" y2="481.26"/>
      <line class="cls-5" x1="442.31" y1="486.57" x2="444.77" y2="486.46"/>
      <line class="cls-5" x1="442.46" y1="481.2" x2="442.31" y2="486.57"/>
      <line class="cls-5" x1="444.85" y1="481.26" x2="444.75" y2="486.57"/>
      <path class="cls-5" d="M445.94,456.55s.13-1.43,.16-2.73c.04-1.78,.05-2.68-.44-3.16-.42-.41-1-.39-1.11-.39-.09,0-.72,.03-1.16,.5-.26,.28-.39,.66-.44,3.43-.02,1.1-.02,2.46-.02,2.46h0l3.02-.12h0Z"/>
      <rect class="cls-5" x="440.17" y="494.51" width="6.4" height=".02"/>
      <rect class="cls-5" x="439.97" y="495.25" width="6.83" height="6.81"/>
      <line class="cls-5" x1="446.57" y1="494.51" x2="446.57" y2="495.1"/>
      <line class="cls-5" x1="439.97" y1="494.53" x2="440.17" y2="495.25"/>
      <line class="cls-5" x1="449.7" y1="472.81" x2="449.65" y2="485.69"/>
      <line class="cls-5" x1="451.3" y1="472.64" x2="451.11" y2="486.32"/>
      <line class="cls-5" x1="452.76" y1="472.84" x2="452.54" y2="486.27"/>
      <line class="cls-5" x1="457.29" y1="472.64" x2="457.07" y2="486.29"/>
      <line class="cls-5" x1="458.56" y1="472.58" x2="458.41" y2="486.03"/>
      <line class="cls-5" x1="463.41" y1="472.58" x2="463.34" y2="486.27"/>
      <line class="cls-5" x1="464.63" y1="472.75" x2="464.58" y2="486.01"/>
      <line class="cls-5" x1="458.98" y1="486.67" x2="462.7" y2="486.67"/>
      <line class="cls-5" x1="458.98" y1="471.48" x2="463.09" y2="471.48"/>
      <line class="cls-5" x1="452.99" y1="471.48" x2="457.18" y2="471.48"/>
      <line class="cls-5" x1="450.1" y1="471.48" x2="451.11" y2="471.48"/>
      <line class="cls-5" x1="449.86" y1="486.67" x2="450.87" y2="486.67"/>
      <line class="cls-5" x1="449.86" y1="486.06" x2="449.86" y2="486.61"/>
      <line class="cls-5" x1="450.81" y1="486.2" x2="450.8" y2="486.67"/>
      <line class="cls-5" x1="451.12" y1="486.23" x2="450.77" y2="486.22"/>
      <line class="cls-5" x1="449.59" y1="486.06" x2="449.86" y2="486.06"/>
      <line class="cls-5" x1="449.68" y1="485.63" x2="449.68" y2="486.06"/>
      <line class="cls-5" x1="450.15" y1="472.76" x2="449.63" y2="472.78"/>
      <line class="cls-5" x1="450.92" y1="472.72" x2="451.3" y2="472.72"/>
      <line class="cls-5" x1="450.98" y1="471.53" x2="450.99" y2="472.72"/>
      <line class="cls-5" x1="450.1" y1="471.48" x2="450.1" y2="472.66"/>
      <line class="cls-5" x1="453.07" y1="471.48" x2="453.1" y2="472.83"/>
      <line class="cls-5" x1="452.7" y1="472.84" x2="453.1" y2="472.83"/>
      <line class="cls-5" x1="457.02" y1="471.48" x2="457.04" y2="472.66"/>
      <line class="cls-5" x1="457.35" y1="472.66" x2="457.04" y2="472.66"/>
      <line class="cls-5" x1="453" y1="486.61" x2="456.73" y2="486.61"/>
      <line class="cls-5" x1="456.65" y1="486.27" x2="456.65" y2="486.67"/>
      <line class="cls-5" x1="457.12" y1="486.27" x2="456.61" y2="486.27"/>
      <line class="cls-5" x1="453" y1="486.22" x2="453" y2="486.77"/>
      <line class="cls-5" x1="452.49" y1="486.22" x2="453" y2="486.22"/>
      <line class="cls-5" x1="467.7" y1="486.77" x2="465.01" y2="486.77"/>
      <line class="cls-5" x1="467.7" y1="471.68" x2="465.01" y2="471.68"/>
      <line class="cls-5" x1="464.6" y1="472.66" x2="465.16" y2="472.66"/>
      <line class="cls-5" x1="465.11" y1="471.68" x2="465.1" y2="472.66"/>
      <line class="cls-5" x1="463" y1="472.59" x2="463.41" y2="472.58"/>
      <line class="cls-5" x1="463" y1="471.48" x2="463.04" y2="472.66"/>
      <line class="cls-5" x1="465.01" y1="486.06" x2="465.01" y2="486.83"/>
      <line class="cls-5" x1="464.58" y1="486.01" x2="465.01" y2="486.06"/>
      <line class="cls-5" x1="462.7" y1="486.27" x2="462.75" y2="486.83"/>
      <line class="cls-5" x1="463.34" y1="486.27" x2="462.7" y2="486.27"/>
      <line class="cls-5" x1="459.04" y1="486.14" x2="458.98" y2="486.67"/>
      <line class="cls-5" x1="458.49" y1="485.98" x2="459.12" y2="486.14"/>
      <line class="cls-5" x1="465.29" y1="479.02" x2="467.34" y2="479.07"/>
      <line class="cls-5" x1="465.4" y1="486.61" x2="465.4" y2="478.89"/>
      <line class="cls-5" x1="466" y1="480.37" x2="467.37" y2="480.4"/>
      <line class="cls-5" x1="465.95" y1="486.77" x2="466" y2="480.37"/>
      <path class="cls-5" d="M467.46,478.24l-2.06-.03c-.07-1.01-.04-1.84,0-2.43,.11-1.28,.17-1.98,.64-2.54,.46-.55,1.07-.68,1.42-.72"/>
      <line class="cls-5" x1="449.55" y1="496.56" x2="449.5" y2="513.97"/>
      <line class="cls-5" x1="451.14" y1="496.33" x2="450.96" y2="514.83"/>
      <line class="cls-5" x1="452.61" y1="496.6" x2="452.38" y2="514.75"/>
      <line class="cls-5" x1="457.13" y1="496.33" x2="456.91" y2="514.79"/>
      <line class="cls-5" x1="458.4" y1="495.75" x2="458.25" y2="514.44"/>
      <line class="cls-5" x1="463.25" y1="496.25" x2="463.18" y2="514.75"/>
      <line class="cls-5" x1="464.47" y1="496.48" x2="464.42" y2="514.4"/>
      <line class="cls-5" x1="458.83" y1="515.3" x2="462.54" y2="515.3"/>
      <line class="cls-5" x1="458.83" y1="494.76" x2="462.93" y2="494.76"/>
      <line class="cls-5" x1="452.83" y1="494.76" x2="457.02" y2="494.76"/>
      <line class="cls-5" x1="449.95" y1="494.76" x2="450.96" y2="494.76"/>
      <line class="cls-5" x1="449.7" y1="515.3" x2="450.72" y2="515.3"/>
      <line class="cls-5" x1="449.7" y1="514.48" x2="449.7" y2="515.22"/>
      <line class="cls-5" x1="450.65" y1="514.66" x2="450.64" y2="515.3"/>
      <line class="cls-5" x1="450.96" y1="514.7" x2="450.61" y2="514.69"/>
      <line class="cls-5" x1="449.43" y1="514.48" x2="449.7" y2="514.48"/>
      <line class="cls-5" x1="449.52" y1="513.9" x2="449.52" y2="514.48"/>
      <line class="cls-5" x1="449.99" y1="496.5" x2="449.47" y2="496.52"/>
      <line class="cls-5" x1="450.77" y1="496.44" x2="451.14" y2="496.44"/>
      <line class="cls-5" x1="450.82" y1="494.83" x2="450.83" y2="496.44"/>
      <line class="cls-5" x1="449.95" y1="494.76" x2="449.95" y2="496.36"/>
      <line class="cls-5" x1="452.91" y1="494.76" x2="452.95" y2="496.59"/>
      <line class="cls-5" x1="452.54" y1="496.6" x2="452.95" y2="496.59"/>
      <line class="cls-5" x1="456.86" y1="494.76" x2="456.89" y2="496.36"/>
      <line class="cls-5" x1="457.19" y1="496.36" x2="456.89" y2="496.36"/>
      <line class="cls-5" x1="452.85" y1="515.22" x2="456.57" y2="515.22"/>
      <line class="cls-5" x1="456.5" y1="514.77" x2="456.5" y2="515.3"/>
      <line class="cls-5" x1="456.96" y1="514.77" x2="456.45" y2="514.77"/>
      <line class="cls-5" x1="452.85" y1="514.7" x2="452.85" y2="515.43"/>
      <line class="cls-5" x1="452.33" y1="514.7" x2="452.85" y2="514.7"/>
      <line class="cls-5" x1="467.54" y1="515.43" x2="464.85" y2="515.43"/>
      <line class="cls-5" x1="467.54" y1="495.04" x2="464.85" y2="495.04"/>
      <line class="cls-5" x1="464.45" y1="496.36" x2="465.01" y2="496.36"/>
      <line class="cls-5" x1="464.96" y1="495.04" x2="464.94" y2="496.36"/>
      <line class="cls-5" x1="462.84" y1="496.27" x2="463.25" y2="496.25"/>
      <line class="cls-5" x1="462.84" y1="494.76" x2="462.88" y2="496.36"/>
      <line class="cls-5" x1="464.85" y1="514.48" x2="464.85" y2="515.52"/>
      <line class="cls-5" x1="464.42" y1="514.4" x2="464.85" y2="514.48"/>
      <line class="cls-5" x1="462.54" y1="514.77" x2="462.59" y2="515.52"/>
      <line class="cls-5" x1="463.18" y1="514.75" x2="462.54" y2="514.77"/>
      <line class="cls-5" x1="458.89" y1="514.58" x2="458.83" y2="515.3"/>
      <line class="cls-5" x1="458.33" y1="514.36" x2="458.96" y2="514.58"/>
      <line class="cls-5" x1="465.24" y1="515.22" x2="465.24" y2="504.22"/>
      <line class="cls-5" x1="459.24" y1="472.66" x2="458.56" y2="472.58"/>
      <line class="cls-5" x1="458.98" y1="471.48" x2="459.24" y2="472.66"/>
      <line class="cls-5" x1="458.83" y1="494.76" x2="458.86" y2="495.64"/>
      <line class="cls-5" x1="458.86" y1="495.64" x2="458.39" y2="495.64"/>
      <line class="cls-5" x1="465.24" y1="504.43" x2="465.24" y2="502.89"/>
      <line class="cls-5" x1="467.43" y1="502.79" x2="465.24" y2="502.89"/>
    </g>
    <g>
      <g>
        <g>
          <line class="cls-4" x1="467.18" y1="517.77" x2="567.97" y2="517.71"/>
          <line class="cls-4" x1="567.43" y1="501.95" x2="567.97" y2="517.71"/>
          <line class="cls-5" x1="568.57" y1="500.45" x2="567.43" y2="501.95"/>
          <line class="cls-5" x1="567.48" y1="500.39" x2="568.57" y2="500.45"/>
          <line class="cls-5" x1="567.1" y1="491.98" x2="567.48" y2="500.39"/>
          <line class="cls-5" x1="568" y1="492.01" x2="567.11" y2="492.09"/>
          <line class="cls-5" x1="568" y1="490.77" x2="568" y2="492.01"/>
          <line class="cls-5" x1="566.07" y1="489.88" x2="567.55" y2="489.89"/>
          <line class="cls-5" x1="567.55" y1="490.6" x2="567.55" y2="489.89"/>
          <line class="cls-5" x1="568.02" y1="490.69" x2="567.46" y2="490.6"/>
          <line class="cls-5" x1="566.18" y1="486.7" x2="566.21" y2="489.89"/>
          <line class="cls-5" x1="562.2" y1="486.74" x2="566.18" y2="486.83"/>
          <path class="cls-5" d="M562.03,486.21c-.32-.07-.65-.13-.97-.2-.2-.08-1.37-.55-1.89-1.93-.29-.76-.51-2.15,.05-2.83,.12-.14,.22-.19,.22-.32,.02-.48-1.32-1.07-2.51-1.13,0,0-.97-.04-2.07,.66-.09,.06-.24,.16-.25,.32-.01,.2,.21,.34,.32,.46,0,0,.45,.48-.13,3.35h0c-.04,.26-.18,1.12-.72,1.42-.18,.1-.37,.12-.67,.14-.4,.04-.73,0-.95-.03"/>
          <line class="cls-5" x1="561.95" y1="486.19" x2="562.2" y2="486.74"/>
          <line class="cls-5" x1="496.43" y1="488.03" x2="545.89" y2="487.68"/>
          <line class="cls-5" x1="548.92" y1="486.47" x2="545.89" y2="487.68"/>
          <line class="cls-5" x1="552.15" y1="486.47" x2="548.92" y2="486.47"/>
          <line class="cls-5" x1="552.55" y1="486.05" x2="552.15" y2="486.47"/>
          <line class="cls-5" x1="495.7" y1="469.99" x2="496.43" y2="488.03"/>
          <line class="cls-5" x1="497.03" y1="467.83" x2="495.69" y2="470.2"/>
          <line class="cls-5" x1="495.44" y1="467.87" x2="497.03" y2="467.83"/>
          <line class="cls-5" x1="495.44" y1="467.87" x2="495.27" y2="461.17"/>
          <line class="cls-5" x1="495.64" y1="459.9" x2="495.28" y2="461.4"/>
          <line class="cls-5" x1="494.88" y1="459.67" x2="495.64" y2="459.9"/>
          <line class="cls-5" x1="494.58" y1="450.36" x2="494.88" y2="459.67"/>
          <line class="cls-5" x1="495.09" y1="448.7" x2="495.09" y2="449.74"/>
          <line class="cls-5" x1="495.09" y1="449.64" x2="494.51" y2="450.51"/>
          <line class="cls-5" x1="494.28" y1="448.37" x2="495.09" y2="448.83"/>
          <line class="cls-5" x1="493.75" y1="442.46" x2="494.28" y2="448.37"/>
          <line class="cls-5" x1="491.16" y1="438.19" x2="493.75" y2="442.46"/>
          <line class="cls-5" x1="490.83" y1="434.13" x2="490.83" y2="437.11"/>
          <line class="cls-5" x1="491.39" y1="437.07" x2="490.83" y2="437.11"/>
          <line class="cls-5" x1="491.66" y1="438.11" x2="491.16" y2="438.19"/>
          <line class="cls-5" x1="491.39" y1="437.07" x2="491.66" y2="438.11"/>
          <path class="cls-5" d="M488.92,427.27c.6,.3,.77,.59,.8,.83,.05,.47-.42,1.13-.42,1.13h0c.51,1.63,1.02,3.26,1.53,4.89"/>
          <line class="cls-5" x1="485.18" y1="448.84" x2="484.4" y2="449.38"/>
          <line class="cls-5" x1="485.26" y1="442.9" x2="485.18" y2="448.84"/>
          <line class="cls-5" x1="487.51" y1="438.38" x2="485.26" y2="442.9"/>
          <line class="cls-5" x1="487.53" y1="434.3" x2="487.76" y2="437.27"/>
          <line class="cls-5" x1="487.19" y1="437.29" x2="487.76" y2="437.27"/>
          <line class="cls-5" x1="487.01" y1="438.35" x2="487.51" y2="438.38"/>
          <line class="cls-5" x1="487.19" y1="437.29" x2="487.01" y2="438.35"/>
          <path class="cls-5" d="M488.92,427.27c-.58,.36-.73,.67-.74,.91-.02,.48,.5,1.09,.5,1.09h0c-.38,1.68-.77,3.35-1.15,5.03"/>
        </g>
        <line class="cls-5" x1="484.4" y1="449.38" x2="484.43" y2="450.36"/>
        <line class="cls-5" x1="484.93" y1="451.24" x2="484.43" y2="450.36"/>
        <line class="cls-5" x1="484.93" y1="460.02" x2="484.93" y2="451.24"/>
        <line class="cls-5" x1="484.79" y1="462.98" x2="484.16" y2="461.91"/>
        <line class="cls-5" x1="484.93" y1="460.02" x2="484.16" y2="461.91"/>
        <line class="cls-5" x1="484.79" y1="462.98" x2="484.79" y2="465.14"/>
        <line class="cls-5" x1="483.35" y1="465.14" x2="484.79" y2="465.14"/>
        <line class="cls-5" x1="481.66" y1="465.14" x2="477.58" y2="465.14"/>
        <path class="cls-5" d="M483.5,465.14c.09-3.43-.02-4.74-.2-5.12-.04-.08-.16-.29-.22-.62-.08-.43,.03-.61-.1-.87-.09-.17-.27-.35-.48-.35-.27,0-.49,.27-.55,.52-.05,.19,.03,.26,.02,.56-.01,.28-.1,.48-.13,.58-.26,.72-.24,2.58-.22,3.98,0,.32,.01,.77,.03,1.31"/>
        <path class="cls-5" d="M477.69,465.23c.09-3.43-.02-4.74-.2-5.12-.04-.08-.16-.29-.22-.62-.08-.43,.03-.61-.1-.87-.09-.17-.27-.35-.48-.35-.27,0-.49,.27-.55,.52-.05,.19,.03,.26,.02,.56-.01,.28-.1,.48-.13,.58-.26,.72-.24,2.58-.22,3.98,0,.32,.01,.77,.03,1.31"/>
        <path class="cls-5" d="M472.48,455.14c-.13,.38-1.38,4.11,.47,7.36,.94,1.65,2.25,2.42,2.89,2.73"/>
        <line class="cls-5" x1="472.68" y1="453.87" x2="472.6" y2="455.01"/>
        <line class="cls-5" x1="472.24" y1="456" x2="472.24" y2="456"/>
        <line class="cls-5" x1="472.24" y1="456" x2="472.6" y2="455.01"/>
        <line class="cls-5" x1="471.78" y1="453.9" x2="472.68" y2="453.87"/>
        <line class="cls-5" x1="470.92" y1="449.62" x2="470.06" y2="451.36"/>
        <line class="cls-5" x1="469.3" y1="449.57" x2="470.92" y2="449.62"/>
        <line class="cls-5" x1="469.42" y1="451.24" x2="470.06" y2="451.36"/>
        <line class="cls-5" x1="467.61" y1="440.64" x2="467.88" y2="444.48"/>
        <line class="cls-5" x1="469" y1="445.29" x2="467.87" y2="444.31"/>
        <line class="cls-5" x1="469.5" y1="448.3" x2="468.08" y2="447.29"/>
        <line class="cls-5" x1="467.26" y1="434.55" x2="467.26" y2="437.82"/>
        <line class="cls-5" x1="468.33" y1="436.18" x2="466.21" y2="436.18"/>
        <path class="cls-5" d="M471.78,453.9c-.25-.03-.85-.15-1.42-.69-.76-.73-.91-1.71-.95-1.96"/>
        <path class="cls-5" d="M468.08,447.29c-.04,.17-.12,.69,.1,1.24,.32,.8,1.02,1.01,1.12,1.04"/>
        <path class="cls-5" d="M469,445.29c.13,.13,.66,.69,.73,1.63,.06,.66-.14,1.17-.24,1.38"/>
        <path class="cls-5" d="M467.26,437.82c.48,.1,.87,.49,.99,1.01,.15,.63-.11,1.34-.65,1.67"/>
      </g>
      <line class="cls-5" x1="496.36" y1="492.63" x2="546.15" y2="492.63"/>
      <line class="cls-5" x1="548.92" y1="492.01" x2="546.15" y2="492.63"/>
      <line class="cls-5" x1="567.11" y1="492.09" x2="548.92" y2="492.01"/>
      <line class="cls-5" x1="496.57" y1="501.43" x2="546.63" y2="501.2"/>
      <line class="cls-5" x1="550.11" y1="500.68" x2="546.38" y2="501.2"/>
      <line class="cls-5" x1="567.48" y1="500.39" x2="550.11" y2="500.68"/>
      <line class="cls-5" x1="496.57" y1="499.75" x2="546.48" y2="499.58"/>
      <line class="cls-5" x1="550.01" y1="498.77" x2="546.48" y2="499.58"/>
      <line class="cls-5" x1="567.29" y1="498.54" x2="550.01" y2="498.77"/>
      <line class="cls-5" x1="544.64" y1="508.47" x2="542.25" y2="508.53"/>
      <line class="cls-5" x1="544.79" y1="513.84" x2="542.33" y2="513.73"/>
      <line class="cls-5" x1="544.64" y1="508.47" x2="544.79" y2="513.84"/>
      <line class="cls-5" x1="542.25" y1="508.53" x2="542.35" y2="513.84"/>
      <line class="cls-5" x1="537.16" y1="508.47" x2="534.77" y2="508.53"/>
      <line class="cls-5" x1="537.31" y1="513.84" x2="534.84" y2="513.73"/>
      <line class="cls-5" x1="537.16" y1="508.47" x2="537.31" y2="513.84"/>
      <line class="cls-5" x1="534.77" y1="508.53" x2="534.87" y2="513.84"/>
      <line class="cls-5" x1="529.59" y1="508.5" x2="527.2" y2="508.56"/>
      <line class="cls-5" x1="529.74" y1="513.87" x2="527.27" y2="513.76"/>
      <line class="cls-5" x1="529.59" y1="508.5" x2="529.74" y2="513.87"/>
      <line class="cls-5" x1="527.2" y1="508.56" x2="527.3" y2="513.87"/>
      <line class="cls-5" x1="521.76" y1="508.53" x2="519.37" y2="508.59"/>
      <line class="cls-5" x1="521.91" y1="513.9" x2="519.45" y2="513.79"/>
      <line class="cls-5" x1="521.76" y1="508.53" x2="521.91" y2="513.9"/>
      <line class="cls-5" x1="519.37" y1="508.59" x2="519.47" y2="513.9"/>
      <line class="cls-5" x1="513.91" y1="508.73" x2="511.52" y2="508.78"/>
      <line class="cls-5" x1="514.06" y1="514.1" x2="511.59" y2="513.98"/>
      <line class="cls-5" x1="513.91" y1="508.73" x2="514.06" y2="514.1"/>
      <line class="cls-5" x1="511.52" y1="508.78" x2="511.62" y2="514.1"/>
      <line class="cls-5" x1="540.69" y1="493.99" x2="544.02" y2="493.99"/>
      <line class="cls-5" x1="544.02" y1="494.67" x2="540.69" y2="494.61"/>
      <line class="cls-5" x1="543.72" y1="499.59" x2="543.77" y2="494.67"/>
      <line class="cls-5" x1="541.05" y1="499.55" x2="541.1" y2="494.63"/>
      <line class="cls-5" x1="540.84" y1="493.99" x2="540.69" y2="494.61"/>
      <line class="cls-5" x1="544.02" y1="493.99" x2="544.02" y2="494.53"/>
      <line class="cls-5" x1="533.15" y1="494.11" x2="536.49" y2="494.11"/>
      <line class="cls-5" x1="536.49" y1="494.79" x2="533.15" y2="494.73"/>
      <line class="cls-5" x1="536.19" y1="499.71" x2="536.24" y2="494.79"/>
      <line class="cls-5" x1="533.51" y1="499.67" x2="533.56" y2="494.75"/>
      <line class="cls-5" x1="533.3" y1="494.11" x2="533.15" y2="494.73"/>
      <line class="cls-5" x1="536.49" y1="494.11" x2="536.49" y2="494.65"/>
      <line class="cls-5" x1="525.77" y1="493.99" x2="529.1" y2="493.99"/>
      <line class="cls-5" x1="529.1" y1="494.67" x2="525.77" y2="494.61"/>
      <line class="cls-5" x1="528.81" y1="499.59" x2="528.86" y2="494.67"/>
      <line class="cls-5" x1="526.13" y1="499.55" x2="526.18" y2="494.63"/>
      <line class="cls-5" x1="525.92" y1="493.99" x2="525.77" y2="494.61"/>
      <line class="cls-5" x1="529.1" y1="493.99" x2="529.1" y2="494.53"/>
      <line class="cls-5" x1="518.11" y1="494.11" x2="521.44" y2="494.11"/>
      <line class="cls-5" x1="521.44" y1="494.79" x2="518.11" y2="494.73"/>
      <line class="cls-5" x1="521.14" y1="499.71" x2="521.19" y2="494.79"/>
      <line class="cls-5" x1="518.47" y1="499.67" x2="518.52" y2="494.75"/>
      <line class="cls-5" x1="518.26" y1="494.11" x2="518.11" y2="494.73"/>
      <line class="cls-5" x1="521.44" y1="494.11" x2="521.44" y2="494.65"/>
      <line class="cls-5" x1="510.25" y1="494.1" x2="513.58" y2="494.1"/>
      <line class="cls-5" x1="513.58" y1="494.78" x2="510.25" y2="494.72"/>
      <line class="cls-5" x1="513.28" y1="499.69" x2="513.33" y2="494.77"/>
      <line class="cls-5" x1="510.61" y1="499.66" x2="510.66" y2="494.73"/>
      <line class="cls-5" x1="510.4" y1="494.1" x2="510.25" y2="494.72"/>
      <line class="cls-5" x1="513.58" y1="494.1" x2="513.58" y2="494.63"/>
      <line class="cls-5" x1="502.71" y1="493.99" x2="506.04" y2="493.99"/>
      <line class="cls-5" x1="506.04" y1="494.67" x2="502.71" y2="494.61"/>
      <line class="cls-5" x1="505.75" y1="499.59" x2="505.8" y2="494.67"/>
      <line class="cls-5" x1="503.07" y1="499.55" x2="503.12" y2="494.63"/>
      <line class="cls-5" x1="502.86" y1="493.99" x2="502.71" y2="494.61"/>
      <line class="cls-5" x1="506.04" y1="493.99" x2="506.04" y2="494.53"/>
      <line class="cls-5" x1="506.01" y1="509.07" x2="503.62" y2="509.13"/>
      <line class="cls-5" x1="506.16" y1="514.44" x2="503.69" y2="514.32"/>
      <line class="cls-5" x1="506.01" y1="509.07" x2="506.16" y2="514.44"/>
      <line class="cls-5" x1="503.62" y1="509.13" x2="503.72" y2="514.44"/>
      <line class="cls-5" x1="496.43" y1="488.03" x2="496.7" y2="517.74"/>
      <path class="cls-5" d="M467.22,450.78c.09,0,.69,.02,1.06,.58,.24,.35,.4,.95,.2,1.23,0,0-.12,.16-1.23,.12h0"/>
      <path class="cls-5" d="M467.22,455.86c1,.07,1.44,.52,1.63,.77,.46,.62,.16,1.08,.4,3.5,.11,1.07,.24,1.71-.06,1.96-.29,.24-1.42,.07-1.06,.08h0c.03-2.16-.13-2.98-.33-3.27-.04-.06-.19-.25-.23-.54-.05-.3,.05-.44,.03-.69-.01-.19-.09-.46-.4-.77"/>
      <line class="cls-5" x1="492.19" y1="481.32" x2="489.8" y2="481.38"/>
      <line class="cls-5" x1="492.34" y1="486.69" x2="489.88" y2="486.58"/>
      <line class="cls-5" x1="492.19" y1="481.32" x2="492.34" y2="486.69"/>
      <line class="cls-5" x1="489.8" y1="481.38" x2="489.9" y2="486.69"/>
      <path class="cls-5" d="M488.71,456.67s-.13-1.43-.16-2.73c-.04-1.78-.05-2.68,.44-3.16,.42-.41,1-.39,1.11-.39,.09,0,.72,.03,1.16,.5,.26,.28,.39,.66,.44,3.43,.02,1.1,.02,2.46,.02,2.46h0l-3.02-.12h0Z"/>
      <rect class="cls-5" x="488.08" y="494.63" width="6.4" height=".02" transform="translate(982.55 989.28) rotate(-180)"/>
      <rect class="cls-5" x="487.84" y="495.36" width="6.83" height="6.81" transform="translate(982.52 997.54) rotate(-180)"/>
      <line class="cls-5" x1="488.08" y1="494.63" x2="488.08" y2="495.22"/>
      <line class="cls-5" x1="494.68" y1="494.65" x2="494.48" y2="495.36"/>
      <line class="cls-5" x1="484.94" y1="472.93" x2="484.99" y2="485.81"/>
      <line class="cls-5" x1="483.35" y1="472.75" x2="483.53" y2="486.44"/>
      <line class="cls-5" x1="481.88" y1="472.96" x2="482.11" y2="486.38"/>
      <line class="cls-5" x1="477.36" y1="472.75" x2="477.58" y2="486.41"/>
      <line class="cls-5" x1="476.09" y1="472.7" x2="476.24" y2="486.15"/>
      <line class="cls-5" x1="471.24" y1="472.7" x2="471.31" y2="486.38"/>
      <line class="cls-5" x1="470.02" y1="472.87" x2="470.07" y2="486.12"/>
      <line class="cls-5" x1="475.66" y1="486.79" x2="471.95" y2="486.79"/>
      <line class="cls-5" x1="475.66" y1="471.6" x2="471.56" y2="471.6"/>
      <line class="cls-5" x1="481.66" y1="471.6" x2="477.47" y2="471.6"/>
      <line class="cls-5" x1="484.54" y1="471.6" x2="483.53" y2="471.6"/>
      <line class="cls-5" x1="484.79" y1="486.79" x2="483.77" y2="486.79"/>
      <line class="cls-5" x1="484.79" y1="486.18" x2="484.79" y2="486.73"/>
      <line class="cls-5" x1="483.84" y1="486.32" x2="483.85" y2="486.79"/>
      <line class="cls-5" x1="483.53" y1="486.34" x2="483.88" y2="486.33"/>
      <line class="cls-5" x1="485.06" y1="486.18" x2="484.79" y2="486.18"/>
      <line class="cls-5" x1="484.97" y1="485.75" x2="484.97" y2="486.18"/>
      <line class="cls-5" x1="484.49" y1="472.88" x2="485.02" y2="472.9"/>
      <line class="cls-5" x1="483.72" y1="472.84" x2="483.35" y2="472.84"/>
      <line class="cls-5" x1="483.67" y1="471.65" x2="483.66" y2="472.84"/>
      <line class="cls-5" x1="484.54" y1="471.6" x2="484.54" y2="472.78"/>
      <line class="cls-5" x1="481.58" y1="471.6" x2="481.54" y2="472.95"/>
      <line class="cls-5" x1="481.95" y1="472.96" x2="481.54" y2="472.95"/>
      <line class="cls-5" x1="477.63" y1="471.6" x2="477.6" y2="472.78"/>
      <line class="cls-5" x1="477.3" y1="472.78" x2="477.6" y2="472.78"/>
      <line class="cls-5" x1="481.64" y1="486.73" x2="477.92" y2="486.73"/>
      <line class="cls-5" x1="477.99" y1="486.39" x2="477.99" y2="486.79"/>
      <line class="cls-5" x1="477.53" y1="486.39" x2="478.04" y2="486.39"/>
      <line class="cls-5" x1="481.64" y1="486.34" x2="481.64" y2="486.88"/>
      <line class="cls-5" x1="482.16" y1="486.34" x2="481.64" y2="486.34"/>
      <line class="cls-5" x1="466.95" y1="486.88" x2="469.64" y2="486.88"/>
      <line class="cls-5" x1="466.95" y1="471.8" x2="469.64" y2="471.8"/>
      <line class="cls-5" x1="470.04" y1="472.78" x2="469.48" y2="472.78"/>
      <line class="cls-5" x1="469.53" y1="471.8" x2="469.55" y2="472.78"/>
      <line class="cls-5" x1="471.65" y1="472.71" x2="471.24" y2="472.7"/>
      <line class="cls-5" x1="471.65" y1="471.6" x2="471.61" y2="472.78"/>
      <line class="cls-5" x1="469.64" y1="486.18" x2="469.64" y2="486.95"/>
      <line class="cls-5" x1="470.07" y1="486.12" x2="469.64" y2="486.18"/>
      <line class="cls-5" x1="471.95" y1="486.39" x2="471.9" y2="486.95"/>
      <line class="cls-5" x1="471.31" y1="486.38" x2="471.95" y2="486.39"/>
      <line class="cls-5" x1="475.6" y1="486.25" x2="475.66" y2="486.79"/>
      <line class="cls-5" x1="476.16" y1="486.09" x2="475.53" y2="486.25"/>
      <line class="cls-5" x1="469.36" y1="479.13" x2="467.31" y2="479.19"/>
      <line class="cls-5" x1="469.25" y1="486.73" x2="469.25" y2="479.01"/>
      <line class="cls-5" x1="468.65" y1="480.49" x2="467.28" y2="480.52"/>
      <line class="cls-5" x1="468.7" y1="486.88" x2="468.65" y2="480.49"/>
      <path class="cls-5" d="M467.18,478.36l2.06-.03c.07-1.01,.04-1.84,0-2.43-.11-1.28-.17-1.98-.64-2.54-.46-.55-1.07-.68-1.42-.72"/>
      <line class="cls-5" x1="485.1" y1="496.68" x2="485.15" y2="514.09"/>
      <line class="cls-5" x1="483.51" y1="496.44" x2="483.69" y2="514.95"/>
      <line class="cls-5" x1="482.04" y1="496.72" x2="482.26" y2="514.87"/>
      <line class="cls-5" x1="477.51" y1="496.44" x2="477.74" y2="514.91"/>
      <line class="cls-5" x1="476.24" y1="495.86" x2="476.4" y2="514.56"/>
      <line class="cls-5" x1="471.39" y1="496.37" x2="471.47" y2="514.87"/>
      <line class="cls-5" x1="470.18" y1="496.6" x2="470.23" y2="514.52"/>
      <line class="cls-5" x1="475.82" y1="515.42" x2="472.1" y2="515.42"/>
      <line class="cls-5" x1="475.82" y1="494.88" x2="471.72" y2="494.88"/>
      <line class="cls-5" x1="481.82" y1="494.88" x2="477.63" y2="494.88"/>
      <line class="cls-5" x1="484.7" y1="494.88" x2="483.69" y2="494.88"/>
      <line class="cls-5" x1="484.95" y1="515.42" x2="483.93" y2="515.42"/>
      <line class="cls-5" x1="484.95" y1="514.6" x2="484.95" y2="515.34"/>
      <line class="cls-5" x1="484" y1="514.78" x2="484.01" y2="515.42"/>
      <line class="cls-5" x1="483.69" y1="514.82" x2="484.04" y2="514.81"/>
      <line class="cls-5" x1="485.22" y1="514.6" x2="484.95" y2="514.6"/>
      <line class="cls-5" x1="485.13" y1="514.01" x2="485.13" y2="514.6"/>
      <line class="cls-5" x1="484.65" y1="496.61" x2="485.17" y2="496.64"/>
      <line class="cls-5" x1="483.88" y1="496.56" x2="483.51" y2="496.56"/>
      <line class="cls-5" x1="483.82" y1="494.95" x2="483.81" y2="496.56"/>
      <line class="cls-5" x1="484.7" y1="494.88" x2="484.7" y2="496.48"/>
      <line class="cls-5" x1="481.73" y1="494.88" x2="481.7" y2="496.7"/>
      <line class="cls-5" x1="482.11" y1="496.72" x2="481.7" y2="496.7"/>
      <line class="cls-5" x1="477.79" y1="494.88" x2="477.76" y2="496.48"/>
      <line class="cls-5" x1="477.46" y1="496.48" x2="477.76" y2="496.48"/>
      <line class="cls-5" x1="481.8" y1="515.34" x2="478.08" y2="515.34"/>
      <line class="cls-5" x1="478.15" y1="514.89" x2="478.15" y2="515.42"/>
      <line class="cls-5" x1="477.69" y1="514.89" x2="478.19" y2="514.89"/>
      <line class="cls-5" x1="481.8" y1="514.81" x2="481.8" y2="515.55"/>
      <line class="cls-5" x1="482.31" y1="514.81" x2="481.8" y2="514.81"/>
      <line class="cls-5" x1="467.11" y1="515.55" x2="469.79" y2="515.55"/>
      <line class="cls-5" x1="467.11" y1="495.16" x2="469.79" y2="495.16"/>
      <line class="cls-5" x1="470.2" y1="496.48" x2="469.64" y2="496.48"/>
      <line class="cls-5" x1="469.69" y1="495.16" x2="469.7" y2="496.48"/>
      <line class="cls-5" x1="471.8" y1="496.39" x2="471.39" y2="496.37"/>
      <line class="cls-5" x1="471.8" y1="494.88" x2="471.77" y2="496.48"/>
      <line class="cls-5" x1="469.79" y1="514.6" x2="469.79" y2="515.63"/>
      <line class="cls-5" x1="470.23" y1="514.52" x2="469.79" y2="514.6"/>
      <line class="cls-5" x1="472.1" y1="514.89" x2="472.05" y2="515.63"/>
      <line class="cls-5" x1="471.47" y1="514.87" x2="472.1" y2="514.89"/>
      <line class="cls-5" x1="475.76" y1="514.7" x2="475.82" y2="515.42"/>
      <line class="cls-5" x1="476.32" y1="514.48" x2="475.69" y2="514.7"/>
      <line class="cls-5" x1="469.4" y1="515.34" x2="469.4" y2="504.33"/>
      <line class="cls-5" x1="475.41" y1="472.78" x2="476.09" y2="472.7"/>
      <line class="cls-5" x1="475.66" y1="471.6" x2="475.41" y2="472.78"/>
      <line class="cls-5" x1="475.82" y1="494.88" x2="475.79" y2="495.75"/>
      <line class="cls-5" x1="475.79" y1="495.75" x2="476.25" y2="495.75"/>
      <line class="cls-5" x1="469.4" y1="504.55" x2="469.4" y2="503.01"/>
      <line class="cls-5" x1="467.22" y1="502.91" x2="469.4" y2="503.01"/>
    </g>
  </g>
</svg>