<?xml version="1.0" encoding="utf-8"?>
<!-- Generator: Adobe Illustrator 27.0.0, SVG Export Plug-In . SVG Version: 6.00 Build 0)  -->
<svg version="1.1" id="Capa_1" xmlns="http://www.w3.org/2000/svg" xmlns:xlink="http://www.w3.org/1999/xlink" x="0px" y="0px"
	 viewBox="0 0 620 620" style="enable-background:new 0 0 620 620;" xml:space="preserve">
<style type="text/css">
	.st0{fill:#ECDBB0;}
	.st1{fill:#9AA59F;}
	.st2{stroke:#000000;stroke-width:1.0259;stroke-miterlimit:10;}
	.st3{fill:#FFFFFF;stroke:#000000;stroke-width:1.0259;stroke-miterlimit:10;}
	.st4{fill:none;stroke:#000000;stroke-width:3.0777;stroke-miterlimit:10;}
	.st5{fill:none;stroke:#000000;stroke-width:2.7743;stroke-miterlimit:10;}
	.st6{fill:none;stroke:#FFFFFF;stroke-width:7.4321;stroke-miterlimit:10;}
	.st7{fill:none;stroke:#FFFFFF;stroke-width:13.9352;stroke-miterlimit:10;}
	.st8{fill:none;stroke:#FFFFFF;stroke-width:15.3886;stroke-miterlimit:10;}
	.st9{fill:#E9942B;}
	.st10{fill:#E2841E;}
	.st11{fill:#CCAB80;}
	.st12{fill:none;stroke:#000000;stroke-width:1.2289;stroke-miterlimit:10;}
	.st13{stroke:#000000;stroke-width:1.2289;stroke-miterlimit:10;}
	.st14{stroke:#000000;stroke-width:1.4157;stroke-miterlimit:10;}
	.st15{stroke:#000000;stroke-width:1.5484;stroke-miterlimit:10;}
	.st16{fill:#FFFFFF;stroke:#000000;stroke-width:1.2289;stroke-miterlimit:10;}
	.st17{fill:#FFFFFF;}
	.st18{fill:none;stroke:#FFFFFF;stroke-width:14.7301;stroke-miterlimit:10;}
	.st19{fill:#9AA59F;stroke:#FFFFFF;stroke-width:14.4057;stroke-miterlimit:10;}
</style>
<g>
	<path class="st0" d="M17.23-0.65c2.3,5.8,5.33,9.98,4.29,11.64c-1.7,2.73-6.02,3.82-9.24,5.61c-1.39-3.02-4.16-6.24-3.75-9
		C8.89,5.19,12.82,3.31,17.23-0.65z"/>
	<rect x="5.1" y="2.14" class="st1" width="610.7" height="615.99"/>
	<g>
		<path class="st2" d="M167.23,563.12c-4.65,3.32-9.73,4.98-15.23,4.98c-5.51,0-10.58-1.66-15.23-4.98
			c-4.65-3.32-8.33-7.81-11.03-13.49c-2.7-5.68-4.05-11.83-4.05-18.47c0-5.06,0.8-9.87,2.41-14.41c1.61-4.55,3.76-8.46,6.46-11.75
			c2.7-3.28,5.92-5.92,9.64-7.9c3.73-1.98,7.66-2.97,11.8-2.97c4.14,0,8.07,0.99,11.8,2.97c3.73,1.98,6.94,4.62,9.64,7.9
			c2.7,3.28,4.85,7.2,6.46,11.75c1.61,4.55,2.41,9.35,2.41,14.41c0,6.63-1.35,12.79-4.05,18.47
			C175.56,555.3,171.89,559.8,167.23,563.12z M134.3,506.85v48.53c0,1.71,0.41,3.32,1.23,4.82c0.82,1.5,1.98,2.67,3.49,3.49
			c4.03,2.46,8.36,3.69,12.98,3.69c4.62,0,8.98-1.23,13.08-3.69c1.44-0.82,2.58-1.98,3.44-3.49c0.85-1.5,1.28-3.11,1.28-4.82v-48.53
			c0-1.71-0.43-3.32-1.28-4.82c-0.86-1.5-2-2.67-3.44-3.49c-4.1-2.46-8.46-3.69-13.08-3.69c-4.62,0-8.94,1.23-12.98,3.69
			c-1.03,0.55-1.88,1.25-2.56,2.1c-0.68,0.86-1.21,1.81-1.59,2.87C134.49,504.57,134.3,505.68,134.3,506.85z"/>
		<path class="st2" d="M204.37,547.58v19.39h-12.62v-71.81h12.62c1.64,0.07,3.33,0.17,5.08,0.31c1.74,0.14,3.93,0.46,6.57,0.97
			c2.63,0.51,5.09,1.13,7.39,1.85c2.29,0.72,4.65,1.76,7.08,3.13c2.43,1.37,4.5,2.94,6.21,4.72c1.71,1.78,3.13,4,4.26,6.67
			s1.69,5.61,1.69,8.82c0,10.87-6.05,18.43-18.16,22.67c0.21-0.07,0.41-0.14,0.62-0.21c4.03,2.6,7.45,5.85,10.26,9.75
			c2.8,3.9,4.82,8.21,6.05,12.93h-11.39v-13.54c0-3.28-1.33-5.88-4-7.8c-0.48-0.34-1.03-0.72-1.64-1.13
			C218.43,546.34,211.76,547.44,204.37,547.58z M223.35,499.05c-5.68-1.98-12-3.08-18.98-3.28v51.19
			c7.45-0.14,13.75-1.13,18.88-2.98c1.98-0.68,3.57-1.85,4.77-3.49c1.2-1.64,1.8-3.49,1.8-5.54v-26.98c0-1.98-0.58-3.81-1.74-5.49
			C226.91,500.81,225.33,499.67,223.35,499.05z"/>
		<path class="st2" d="M288.29,566.96v-19.18h-16c-2.67,0-4.92,0.94-6.77,2.82c-1.85,1.88-2.77,4.12-2.77,6.72v9.64h-12.62v-33.34
			c0-5.13,1.01-10.07,3.03-14.82c2.02-4.75,4.73-8.84,8.16-12.26c3.42-3.42,7.49-6.16,12.21-8.21c4.72-2.05,9.64-3.11,14.77-3.18
			h12.62v71.81H288.29z M262.74,547.17h25.55v-51.4c-7.94,0.07-15.12,2.43-21.54,7.08c-2.67,1.85-4,4.41-4,7.69V547.17z"/>
		<path class="st2" d="M325.84,495.77v71.2h-12.62v-71.81h12.62c9.78,0.07,18.29,3.42,25.54,10.05v-9.95H364v71.71v0.1h-12.62
			v-50.88c0-3.9-1.06-7.44-3.18-10.62c-2.12-3.18-4.92-5.52-8.41-7.03C335.34,496.76,330.69,495.84,325.84,495.77z"/>
		<path class="st2" d="M410.37,566.96c-7.32-0.07-14-2.02-20.06-5.85c-6.05-3.83-10.69-8.86-13.9-15.08
			c-2.33-4.51-3.49-9.51-3.49-14.98s1.16-10.46,3.49-14.98c3.21-6.22,7.85-11.25,13.9-15.08c6.05-3.83,12.74-5.78,20.06-5.85h13.54
			v12.62h-0.62v-2.46c0-2.6-0.92-4.84-2.77-6.72c-1.85-1.88-4.1-2.82-6.77-2.82h-3.38c-5.95,0.07-11.56,1.44-16.83,4.1
			c-1.09,0.55-2.02,1.27-2.77,2.16c-0.75,0.89-1.33,1.88-1.74,2.97c-0.41,1.09-0.62,2.22-0.62,3.39v45.34
			c0,1.16,0.21,2.29,0.62,3.39c0.41,1.09,0.99,2.09,1.74,2.97c0.75,0.89,1.67,1.61,2.77,2.16c5.27,2.67,10.88,4.04,16.83,4.1h1.03
			v-51.4h-13.34v-0.62h25.85v52.63H410.37z"/>
		<path class="st2" d="M477.36,566.96h-41.24v-71.81h41.24v10.16h-0.62c0-2.6-0.92-4.84-2.77-6.72c-1.85-1.88-4.1-2.82-6.77-2.82
			h-18.47v51.4h18.77v0.62h-9.23c-2.67,0-4.92,0.94-6.77,2.82c-1.85,1.88-2.77,4.12-2.77,6.72v9.03h18.47
			c2.67,0,4.92-0.94,6.77-2.82c1.85-1.88,2.77-4.12,2.77-6.72h0.62V566.96z"/>
	</g>
	<g>
		<path class="st3" d="M158.99,559.77c-4.65,3.32-9.73,4.98-15.23,4.98c-5.51,0-10.58-1.66-15.23-4.98
			c-4.65-3.32-8.33-7.81-11.03-13.49c-2.7-5.68-4.05-11.83-4.05-18.47c0-5.06,0.8-9.87,2.41-14.41c1.61-4.55,3.76-8.46,6.46-11.75
			c2.7-3.28,5.92-5.92,9.64-7.9c3.73-1.98,7.66-2.97,11.8-2.97c4.14,0,8.07,0.99,11.8,2.97c3.73,1.98,6.94,4.62,9.64,7.9
			c2.7,3.28,4.85,7.2,6.46,11.75c1.61,4.55,2.41,9.35,2.41,14.41c0,6.63-1.35,12.79-4.05,18.47
			C167.31,551.95,163.64,556.45,158.99,559.77z M126.06,503.5v48.53c0,1.71,0.41,3.32,1.23,4.82c0.82,1.5,1.98,2.67,3.49,3.49
			c4.03,2.46,8.36,3.69,12.98,3.69c4.62,0,8.98-1.23,13.08-3.69c1.44-0.82,2.58-1.98,3.44-3.49c0.85-1.5,1.28-3.11,1.28-4.82V503.5
			c0-1.71-0.43-3.32-1.28-4.82c-0.86-1.5-2-2.67-3.44-3.49c-4.1-2.46-8.46-3.69-13.08-3.69c-4.62,0-8.94,1.23-12.98,3.69
			c-1.03,0.55-1.88,1.25-2.56,2.1c-0.68,0.86-1.21,1.81-1.59,2.87C126.24,501.22,126.06,502.33,126.06,503.5z"/>
		<path class="st3" d="M196.12,544.22v19.39h-12.62V491.8h12.62c1.64,0.07,3.33,0.17,5.08,0.31c1.74,0.14,3.93,0.46,6.57,0.97
			c2.63,0.51,5.09,1.13,7.39,1.85c2.29,0.72,4.65,1.76,7.08,3.13c2.43,1.37,4.5,2.94,6.21,4.72c1.71,1.78,3.13,4,4.26,6.67
			s1.69,5.61,1.69,8.82c0,10.87-6.05,18.43-18.16,22.67c0.21-0.07,0.41-0.14,0.62-0.21c4.03,2.6,7.45,5.85,10.26,9.75
			c2.8,3.9,4.82,8.21,6.05,12.93h-11.39v-13.54c0-3.28-1.33-5.88-4-7.8c-0.48-0.34-1.03-0.72-1.64-1.13
			C210.18,542.99,203.51,544.09,196.12,544.22z M215.1,495.7c-5.68-1.98-12-3.08-18.98-3.28v51.19c7.45-0.14,13.75-1.13,18.88-2.98
			c1.98-0.68,3.57-1.85,4.77-3.49c1.2-1.64,1.8-3.49,1.8-5.54v-26.98c0-1.98-0.58-3.81-1.74-5.49
			C218.66,497.46,217.09,496.31,215.1,495.7z"/>
		<path class="st3" d="M280.04,563.61v-19.18h-16c-2.67,0-4.92,0.94-6.77,2.82c-1.85,1.88-2.77,4.12-2.77,6.72v9.64h-12.62v-33.34
			c0-5.13,1.01-10.07,3.03-14.82c2.02-4.75,4.73-8.84,8.16-12.26c3.42-3.42,7.49-6.16,12.21-8.21c4.72-2.05,9.64-3.11,14.77-3.18
			h12.62v71.81H280.04z M254.5,543.81h25.55v-51.4c-7.94,0.07-15.12,2.43-21.54,7.08c-2.67,1.85-4,4.41-4,7.69V543.81z"/>
		<path class="st3" d="M317.59,492.42v71.2h-12.62V491.8h12.62c9.78,0.07,18.29,3.42,25.54,10.05v-9.95h12.62v71.71v0.1h-12.62
			v-50.88c0-3.9-1.06-7.44-3.18-10.62c-2.12-3.18-4.92-5.52-8.41-7.03C327.1,493.41,322.45,492.48,317.59,492.42z"/>
		<path class="st3" d="M402.12,563.61c-7.32-0.07-14-2.02-20.06-5.85c-6.05-3.83-10.69-8.86-13.9-15.08
			c-2.33-4.51-3.49-9.51-3.49-14.98s1.16-10.46,3.49-14.98c3.21-6.22,7.85-11.25,13.9-15.08c6.05-3.83,12.74-5.78,20.06-5.85h13.54
			v12.62h-0.62v-2.46c0-2.6-0.92-4.84-2.77-6.72c-1.85-1.88-4.1-2.82-6.77-2.82h-3.38c-5.95,0.07-11.56,1.44-16.83,4.1
			c-1.09,0.55-2.02,1.27-2.77,2.16c-0.75,0.89-1.33,1.88-1.74,2.97c-0.41,1.09-0.62,2.22-0.62,3.39v45.34
			c0,1.16,0.21,2.29,0.62,3.39c0.41,1.09,0.99,2.09,1.74,2.97c0.75,0.89,1.67,1.61,2.77,2.16c5.27,2.67,10.88,4.04,16.83,4.1h1.03
			v-51.4h-13.34v-0.62h25.85v52.63H402.12z"/>
		<path class="st3" d="M469.11,563.61h-41.24V491.8h41.24v10.16h-0.62c0-2.6-0.92-4.84-2.77-6.72c-1.85-1.88-4.1-2.82-6.77-2.82
			h-18.47v51.4h18.77v0.62h-9.23c-2.67,0-4.92,0.94-6.77,2.82c-1.85,1.88-2.77,4.12-2.77,6.72V563h18.47c2.67,0,4.92-0.94,6.77-2.82
			c1.85-1.88,2.77-4.12,2.77-6.72h0.62V563.61z"/>
	</g>
	<line class="st4" x1="490.49" y1="516.44" x2="615.59" y2="516.44"/>
	<line class="st4" x1="490.69" y1="526.66" x2="615.79" y2="526.66"/>
	<line class="st4" x1="490.49" y1="538.1" x2="615.59" y2="538.1"/>
	<line class="st4" x1="491.63" y1="546.93" x2="616.73" y2="546.93"/>
	<line class="st5" x1="4.86" y1="514.14" x2="106.51" y2="514.14"/>
	<line class="st5" x1="5.02" y1="524.35" x2="106.67" y2="524.35"/>
	<line class="st5" x1="4.86" y1="535.79" x2="106.51" y2="535.79"/>
	<line class="st5" x1="5.79" y1="544.63" x2="107.44" y2="544.63"/>
	<rect x="4.35" y="6.91" class="st6" width="610.73" height="458.36"/>
	<line class="st7" x1="318.67" y1="6.91" x2="315.77" y2="465.27"/>
	<line class="st7" x1="184.12" y1="6.91" x2="315.77" y2="465.27"/>
	<line class="st7" x1="54.26" y1="6.91" x2="309.71" y2="455.98"/>
	<line class="st8" x1="-0.33" y1="51.35" x2="312.55" y2="460.74"/>
	<line class="st8" x1="4.35" y1="220.26" x2="310.57" y2="460.86"/>
	<line class="st8" x1="4.35" y1="321.88" x2="304.63" y2="460.15"/>
	<line class="st8" x1="4.35" y1="399.04" x2="292.33" y2="460.91"/>
	<line class="st7" x1="434.73" y1="8.38" x2="303.08" y2="466.74"/>
	<line class="st7" x1="564.58" y1="8.38" x2="309.13" y2="457.45"/>
	<line class="st8" x1="619.18" y1="53.14" x2="306.96" y2="463.66"/>
	<line class="st8" x1="614.5" y1="222.06" x2="309.71" y2="461.53"/>
	<line class="st8" x1="614.5" y1="323.68" x2="323.81" y2="459.86"/>
	<line class="st8" x1="614.5" y1="400.84" x2="327.85" y2="460.2"/>
	<g id="XMLID_00000017489726275857822970000010097900521821990576_">
		<g>
			<path d="M478.9,197.18c0.76,0.53,2.32,1.76,3.24,3.93c0.51,1.19,0.66,2.28,0.71,3.05L478.9,197.18z"/>
			<path class="st9" d="M478.9,197.18l3.94,6.98l-5.48,242.48c-0.03,0-0.07,0.15-0.12,0.41l-10.89,8.61H163.48l-4.42-7.04
				l-5.48-242.43l3.23-6.24c-0.12,0.08-0.26,0.17-0.42,0.29l5.65-9.66l312.98,0.57L478.9,197.18z M461.71,442.14V218.12H172.59
				v224.02H461.71z"/>
			<path d="M477.36,446.65c0.02,0.01,0.02,0.12-0.01,0.25L477.36,446.65z"/>
			<path d="M477.36,446.65l-0.01,0.25c0,0,0.01,0,0,0.01c0,0.02,0,0.04-0.01,0.07l-0.1,0.09
				C477.29,446.79,477.33,446.65,477.36,446.65z"/>
			<path d="M466.36,455.66l10.89-8.61c-0.26,1.21-0.89,4.85-2.91,6.83C473.05,455.14,470.76,456.17,466.36,455.66z"/>
			<path class="st9" d="M214.02,175.05v-0.16l7.09,0.19l0.05,0.16c-4.37,1.36-7.5,3.25-8.03,5.89c-0.17,0.87-0.08,1.89,0.47,3.08
				l42.27,0.09h123.84h44.47c0.02-0.52-0.02-1.02-0.13-1.49c-0.66-2.88-3.67-4.99-7.85-6.54l6.19,0.07l1.82,0.02
				c-0.01,0.02-0.01,0.04-0.01,0.05l0.07-0.05l5.35-3.75c-0.01,0-0.02,0-0.03,0l32.93-0.97l12.5,19.51l-312.98-0.57l11.45-19.56
				l34.45,1.02v0.06L214.02,175.05z"/>
			<path class="st9" d="M461.97,170.76l0.56,0.87l-32.93,0.97c-0.42-0.04-2.4-0.14-3.96,1.31c-0.95,0.89-1.29,1.94-1.41,2.44
				l-1.82-0.02v-0.02l0.14-6.65l3.45-3.13l30.12-0.82L461.97,170.76z"/>
			<path d="M461.97,170.76l-5.86-5.04c0.06,0,0.11,0,0.17,0c0.61,0,1.46,0.09,2.33,0.5C461.24,167.44,461.88,170.36,461.97,170.76z"
				/>
			<path class="st10" d="M461.71,218.12v224.02H172.59V218.12H461.71z M443.95,423.12v-191.9h-255.3v191.9H443.95z"/>
			<rect x="188.65" y="231.22" class="st11" width="255.3" height="191.9"/>
			<path d="M429.6,172.61c0.01,0,0.02,0,0.03,0l-5.35,3.75h-0.06c0.12-0.5,0.47-1.55,1.41-2.44
				C427.2,172.46,429.18,172.56,429.6,172.61z"/>
			<path d="M422.53,169.67c-0.02-0.18-0.15-1.32,0.66-2.25c0.68-0.77,1.75-1.11,2.79-0.88L422.53,169.67z"/>
			<path d="M424.28,176.36l-0.07,0.05c0.01-0.01,0.01-0.03,0.01-0.05H424.28z"/>
			<path d="M381.45,172c3.35,0.01,9.27,0.12,15.64,0.66c6.66,0.58,13.83,1.64,19.11,3.6c4.18,1.55,7.18,3.66,7.85,6.54
				c0.11,0.47,0.15,0.97,0.13,1.49l-43.46-12.24V172C380.95,172,381.19,172,381.45,172z"/>
			<polygon points="317.27,174.2 327.36,174.21 335.55,174.22 345.64,174.23 355.95,174.23 372.07,174.25 380.41,174.25 
				380.66,174.26 380.72,172.06 424.18,184.3 379.71,184.3 255.86,184.3 213.59,184.21 255.58,171.81 255.58,174.15 272.48,174.17 
				288.29,174.18 298.46,174.18 308.55,174.2 			"/>
			<path d="M397.43,168.38h-0.19v-0.09C397.31,168.33,397.38,168.36,397.43,168.38z"/>
			<path d="M397.24,168.3v0.09l-15.65-0.08l0.01-0.14c1.3-0.55,4.11-1.54,7.89-1.51C393.27,166.71,396.03,167.76,397.24,168.3z"/>
			<path d="M397.24,168.38l-0.11,3.88l-0.04,0.41c-6.38-0.55-12.3-0.65-15.64-0.66l0.14-3.7L397.24,168.38z"/>
			<path d="M381.6,168.17l-0.01,0.14h-0.31C381.37,168.26,381.48,168.22,381.6,168.17z"/>
			<path d="M380.72,172v0.06l-0.22-0.06C380.57,172,380.65,172,380.72,172z"/>
			<path d="M372.38,168.75h-0.2v-0.12C372.25,168.67,372.32,168.71,372.38,168.75z"/>
			<path d="M372.19,168.63v0.12l-16.09-0.12l0.01-0.18c1.33-0.77,4.22-2.14,8.1-2.08C368.1,166.42,370.93,167.87,372.19,168.63z"/>
			<polygon points="372.19,168.75 372.07,174.13 372.07,174.25 355.95,174.23 355.95,174 356.1,168.63 			"/>
			<path d="M356.11,168.45l-0.01,0.18h-0.32C355.88,168.57,355.98,168.51,356.11,168.45z"/>
			<path d="M345.84,169.04h-0.13v-0.12C345.76,168.96,345.8,169,345.84,169.04z"/>
			<path d="M345.71,168.92v0.12l-10.06-0.1v-0.18c0.84-0.73,2.64-2.02,5.08-1.97C343.15,166.84,344.92,168.2,345.71,168.92z"/>
			<polygon points="345.71,169.04 345.64,174.13 345.64,174.23 335.55,174.22 335.55,174.01 335.65,168.93 			"/>
			<path d="M335.65,168.75v0.18h-0.2C335.51,168.88,335.58,168.81,335.65,168.75z"/>
			<path d="M327.55,169.39h-0.13v-0.12C327.47,169.32,327.51,169.35,327.55,169.39z"/>
			<path d="M327.42,169.28v0.12l-10.06-0.11v-0.18c0.84-0.72,2.64-2.02,5.08-1.97C324.87,167.19,326.64,168.56,327.42,169.28z"/>
			<polygon points="327.42,169.39 327.36,174.21 317.27,174.2 317.36,169.28 			"/>
			<path d="M317.36,169.1v0.18h-0.2C317.22,169.23,317.29,169.16,317.36,169.1z"/>
			<path d="M308.74,168.97h-0.12v-0.12C308.66,168.89,308.7,168.94,308.74,168.97z"/>
			<path d="M308.61,168.85v0.12l-10.06-0.12v-0.2c0.84-0.79,2.64-2.21,5.07-2.15C306.06,166.56,307.84,168.06,308.61,168.85z"/>
			<polygon points="308.61,168.97 308.55,174.2 298.46,174.18 298.56,168.86 			"/>
			<path d="M298.56,168.65v0.2h-0.21C298.41,168.8,298.48,168.73,298.56,168.65z"/>
			<path d="M288.59,168.73h-0.19v-0.12C288.47,168.65,288.54,168.7,288.59,168.73z"/>
			<path d="M288.4,168.61v0.12l-15.77-0.12l0.01-0.2c1.31-0.79,4.14-2.21,7.94-2.15C284.4,166.32,287.18,167.82,288.4,168.61z"/>
			<polygon points="288.4,168.73 288.29,174.18 272.48,174.17 272.64,168.61 			"/>
			<path d="M272.64,168.41l-0.01,0.2h-0.31C272.42,168.55,272.53,168.48,272.64,168.41z"/>
			<path d="M255.58,171.81l-41.99,12.4c-0.55-1.19-0.64-2.21-0.47-3.08c0.53-2.64,3.66-4.53,8.03-5.89
				C231.94,171.89,250.26,171.79,255.58,171.81z"/>
			<path class="st9" d="M207.95,172.04l-34.45-1.02l1.44-2.46l4.51-3.7l30.01,0.41l4.56,3.39v6.23l-0.17-0.01
				c-0.52-0.5-1.24-1.1-2.21-1.63c-1.47-0.79-2.83-1.06-3.69-1.16V172.04z"/>
			<path d="M209.46,165.27c0.11-0.02,2.33-0.42,3.69,1.16c0.75,0.86,0.85,1.86,0.87,2.23L209.46,165.27z"/>
			<path d="M214.02,175.05l-6.06-2.95c0.87,0.1,2.22,0.36,3.69,1.16c0.96,0.53,1.69,1.12,2.21,1.63
				C213.91,174.95,213.96,175,214.02,175.05z"/>
			<path d="M174.94,168.56c0.11-0.41,0.48-1.62,1.65-2.58c1.16-0.96,2.42-1.09,2.85-1.12c0.01,0,0.01,0,0.01,0L174.94,168.56z"/>
			<path d="M159.06,448.62l4.42,7.04c-0.62-0.19-1.87-0.68-2.91-1.87C158.73,451.67,159.01,449.07,159.06,448.62z"/>
			<path d="M156.39,200.24c0.16-0.12,0.3-0.22,0.42-0.29l-3.23,6.24l-0.01-0.33c0.01-0.75,0.15-2.03,0.89-3.39
				C155.06,201.39,155.83,200.67,156.39,200.24z"/>
		</g>
		<g>
			<polyline class="st12" points="160.62,190.58 162.05,190.58 475.03,191.14 475.09,191.14 			"/>
			<polyline class="st12" points="163.29,455.66 163.48,455.66 466.36,455.66 			"/>
			<line class="st12" x1="153.58" y1="206.19" x2="159.06" y2="448.62"/>
			<line class="st12" x1="477.36" y1="446.9" x2="477.35" y2="447.21"/>
			<polyline class="st12" points="482.84,204.16 477.36,446.65 477.36,446.89 			"/>
			<line class="st12" x1="456.28" y1="165.72" x2="456.64" y2="165.71"/>
			<line class="st12" x1="425.99" y1="166.54" x2="456.11" y2="165.72"/>
			<polyline class="st12" points="478.9,197.18 475.03,191.14 462.53,171.63 461.97,170.76 			"/>
			<polyline class="st12" points="174.94,168.56 173.5,171.02 162.05,190.58 156.39,200.24 			"/>
			<polyline class="st12" points="214.02,168.66 214.02,174.89 214.02,175.05 214.02,175.43 			"/>
			<line class="st12" x1="179.45" y1="164.86" x2="209.46" y2="165.27"/>
			<line class="st12" x1="178.93" y1="164.86" x2="179.44" y2="164.86"/>
			<line class="st12" x1="255.86" y1="184.3" x2="379.71" y2="184.3"/>
			<path class="st12" d="M156.81,199.94c-0.12,0.08-0.26,0.17-0.42,0.29c-0.57,0.43-1.33,1.15-1.93,2.24
				c-0.74,1.35-0.88,2.64-0.89,3.39l0.01,0.33"/>
			<path class="st12" d="M179.45,164.86c-0.01,0-0.01,0-0.01,0c-0.43,0.02-1.69,0.16-2.85,1.12c-1.17,0.96-1.54,2.17-1.65,2.58"/>
			<polyline class="st12" points="208,172.04 207.95,172.04 173.5,171.02 			"/>
			<path class="st12" d="M214.02,168.66c-0.02-0.37-0.12-1.37-0.87-2.23c-1.36-1.57-3.58-1.17-3.69-1.16"/>
			<path class="st12" d="M214.02,175.05c-0.06-0.06-0.1-0.1-0.17-0.17c-0.52-0.5-1.24-1.1-2.21-1.63c-1.47-0.79-2.83-1.06-3.69-1.16
				"/>
			<path class="st12" d="M255.58,171.81c-5.32-0.01-23.64,0.08-34.42,3.43c-4.37,1.36-7.5,3.25-8.03,5.89
				c-0.17,0.87-0.08,1.89,0.47,3.08"/>
			<line class="st12" x1="255.86" y1="184.3" x2="213.59" y2="184.21"/>
			<line class="st12" x1="255.58" y1="171.81" x2="255.58" y2="174.15"/>
			<polyline class="st12" points="380.41,174.25 372.07,174.25 355.95,174.23 345.64,174.23 335.55,174.22 327.36,174.21 
				317.27,174.2 308.55,174.2 298.46,174.18 288.29,174.18 272.48,174.17 255.58,174.15 			"/>
			<line class="st12" x1="424.18" y1="184.3" x2="379.71" y2="184.3"/>
			<path class="st12" d="M380.51,172c0.07,0,0.14,0,0.22,0c0.23,0,0.47,0,0.73,0.01c3.35,0.01,9.27,0.12,15.64,0.66
				c6.66,0.58,13.83,1.64,19.11,3.6c4.18,1.55,7.18,3.66,7.85,6.54c0.11,0.47,0.15,0.97,0.13,1.49"/>
			<path class="st12" d="M478.9,197.18c0.76,0.53,2.32,1.76,3.24,3.93c0.51,1.19,0.66,2.28,0.71,3.05"/>
			<path class="st12" d="M461.97,170.76c-0.09-0.41-0.73-3.32-3.35-4.54c-0.88-0.41-1.72-0.5-2.33-0.5c-0.06,0-0.12,0-0.17,0"/>
			<polyline class="st12" points="380.73,171.75 380.72,172 380.72,172.06 380.66,174.26 380.65,174.82 			"/>
			<polyline class="st12" points="213.85,174.89 214.02,174.89 221.11,175.08 			"/>
			<path class="st12" d="M272.32,168.61c0.09-0.06,0.2-0.13,0.32-0.2c1.31-0.79,4.14-2.21,7.94-2.15c3.82,0.06,6.59,1.56,7.82,2.35
				c0.07,0.04,0.14,0.09,0.19,0.12"/>
			<polyline class="st12" points="272.65,168.17 272.64,168.41 272.64,168.61 272.48,174.17 			"/>
			<polyline class="st12" points="288.41,168.33 288.4,168.61 288.4,168.73 288.29,174.18 288.29,174.3 			"/>
			<path class="st12" d="M298.35,168.86c0.06-0.06,0.13-0.13,0.21-0.2c0.84-0.79,2.64-2.21,5.07-2.15c2.44,0.06,4.22,1.56,4.99,2.35
				c0.04,0.04,0.09,0.09,0.12,0.12"/>
			<polyline class="st12" points="298.56,168.41 298.56,168.65 298.56,168.86 298.46,174.18 298.45,174.41 			"/>
			<polyline class="st12" points="308.62,168.57 308.61,168.85 308.61,168.97 308.55,174.2 308.55,174.54 			"/>
			<path class="st12" d="M317.16,169.28c0.06-0.06,0.13-0.12,0.2-0.18c0.84-0.72,2.64-2.02,5.08-1.97c2.43,0.06,4.2,1.42,4.98,2.14
				c0.05,0.04,0.09,0.08,0.13,0.12"/>
			<polyline class="st12" points="317.37,168.88 317.36,169.1 317.36,169.28 317.27,174.2 317.27,174.36 			"/>
			<polyline class="st12" points="327.43,169.02 327.42,169.28 327.42,169.39 327.36,174.21 327.35,174.49 			"/>
			<path class="st12" d="M335.45,168.93c0.06-0.06,0.13-0.12,0.2-0.18c0.84-0.73,2.64-2.02,5.08-1.97c2.43,0.06,4.2,1.42,4.98,2.14
				c0.05,0.04,0.09,0.08,0.13,0.12"/>
			<polyline class="st12" points="335.66,168.52 335.65,168.75 335.65,168.93 335.55,174.01 			"/>
			<polyline class="st12" points="345.71,168.67 345.71,168.92 345.71,169.04 345.64,174.13 			"/>
			<path class="st12" d="M355.78,168.63c0.1-0.06,0.2-0.12,0.33-0.18c1.33-0.77,4.22-2.14,8.1-2.08c3.89,0.06,6.72,1.51,7.98,2.27
				c0.07,0.04,0.14,0.08,0.2,0.12"/>
			<polyline class="st12" points="356.11,168.2 356.11,168.45 356.1,168.63 355.95,174 			"/>
			<polyline class="st12" points="372.19,168.36 372.19,168.63 372.19,168.75 372.07,174.13 			"/>
			<path class="st12" d="M381.28,168.3c0.09-0.04,0.2-0.09,0.32-0.14c1.3-0.55,4.11-1.54,7.89-1.51c3.79,0.04,6.54,1.09,7.75,1.63
				c0.07,0.03,0.14,0.06,0.19,0.09"/>
			<polyline class="st12" points="381.6,167.99 381.6,168.17 381.59,168.3 381.45,172 381.45,172.17 			"/>
			<polyline class="st12" points="397.25,168.11 397.24,168.3 397.24,168.38 397.13,172.26 			"/>
			<path class="st12" d="M159.06,448.62c-0.06,0.45-0.33,3.05,1.51,5.17c1.04,1.19,2.29,1.68,2.91,1.87"/>
			<path class="st12" d="M466.36,455.66c4.41,0.51,6.7-0.52,7.98-1.78c2.02-1.98,2.65-5.62,2.91-6.83c0.05-0.26,0.09-0.41,0.12-0.41
				c0.02,0.01,0.02,0.12-0.01,0.25c0,0,0.01,0,0,0.01c0,0.02,0,0.04-0.01,0.07"/>
			<line class="st12" x1="429.6" y1="172.61" x2="462.53" y2="171.63"/>
			<line class="st12" x1="424.28" y1="176.36" x2="424.65" y2="176.37"/>
			<polyline class="st12" points="416,176.27 416.21,176.27 422.4,176.34 424.22,176.36 			"/>
			<line class="st12" x1="422.53" y1="169.67" x2="422.4" y2="176.32"/>
			<path class="st12" d="M425.99,166.54c-1.04-0.23-2.11,0.1-2.79,0.88c-0.82,0.93-0.69,2.07-0.66,2.25"/>
			<path class="st12" d="M429.63,172.61c-0.01,0-0.02,0-0.03,0c-0.42-0.04-2.4-0.14-3.96,1.31c-0.95,0.89-1.29,1.94-1.41,2.44
				c-0.01,0.02-0.01,0.04-0.01,0.05"/>
		</g>
	</g>
	<path class="st13" d="M477.62,434.97c0.15,0.26,0.21,0.48,0.25,0.61c0,0,1.41,4.96-2.49,16.95l0,0l0,0
		c-3.34,1.7-3.37,1.71-3.37,1.71c-5.41,2.7-17.45,0.87-17.46,0.87l0,0c0,0-0.94-0.74-1-0.78c-0.88-0.7-2.59-4.22-1.5-6.2
		c1.5-2.73,6.75,0.3,10.33-2.63c3.75-3.07,0.69-8.61,4.51-11.46C470.01,431.71,476.14,432.35,477.62,434.97z"/>
	<path class="st14" d="M457.42,194.32c0.32-0.15,0.58-0.22,0.74-0.26c0,0,6.05-1.41,20.48,3.19l0,0l0,0
		c1.98,3.71,1.99,3.74,1.99,3.74c3.14,6,0.62,19.13,0.62,19.14l0,0c0,0-0.92,1.01-0.98,1.07c-0.87,0.94-5.17,2.72-7.55,1.48
		c-3.27-1.72,0.53-7.38-2.93-11.38c-3.63-4.19-10.41-0.99-13.77-5.25C453.28,202.57,454.22,195.87,457.42,194.32z"/>
	<path class="st15" d="M155.47,225.22c-0.21-0.33-0.31-0.61-0.38-0.78c0,0-2.32-6.44,0.72-22.83l0,0l0,0
		c3.73-2.65,3.76-2.67,3.76-2.67c6.05-4.22,20.53-3.19,20.54-3.19l0,0c0,0,1.21,0.87,1.29,0.93c1.13,0.82,3.62,5.3,2.59,8.07
		c-1.41,3.8-8.02,0.39-11.87,4.7c-4.04,4.52,0.32,11.53-3.83,15.76C164.9,228.66,157.57,228.52,155.47,225.22z"/>
	<path class="st13" d="M179.93,455.22c-0.25,0.17-0.46,0.25-0.59,0.3c0,0-4.83,1.81-17.1-1.1l0,0l0,0
		c-1.97-3.19-1.98-3.22-1.98-3.22c-3.13-5.17-2.29-17.33-2.29-17.33l0,0c0,0,0.66-1,0.7-1.06c0.62-0.93,3.99-2.93,6.06-2
		c2.84,1.27,0.25,6.75,3.46,10.08c3.37,3.49,8.64-0.02,11.79,3.56C182.56,447.37,182.41,453.54,179.93,455.22z"/>
	<rect x="255.86" y="307.61" class="st16" width="124.83" height="40.86"/>
	<g>
		<path class="st17" d="M289.94,332.5c0.16-0.05,0.32-0.11,0.49-0.16c1.82,3.04,3.31,6.37,5.59,9.01c1.38,1.6,3.92,2.77,6.07,3.01
			c2.68,0.3,4.64-2.29,4.22-4.75c-0.47-2.74-2.41-3.92-5-3.67c-1.82,0.18-3.54,0.77-4.13-1.73c-0.57-2.42-2.53-4.83,0.44-7.16
			c2.22-1.74,3.44-4.12,2.19-6.98c-1.4-3.18-4.26-3.34-7.25-3.23c-2.38,0.09-4.77-0.05-7.16-0.06c-0.83,0-1.67,0.07-2.51,0.11
			c0.25,0.84,0.55,1.67,0.75,2.52c0.22,0.94,0.48,1.9,0.49,2.86c0.05,4.42,0.02,8.83,0.02,13.31c1.63,0,3.83,0,6.23,0
			C290.2,334.33,290.07,333.41,289.94,332.5z M312.78,335.74c-0.22-1.67-0.37-2.82-0.58-4.44c1.34,0.09,2.4,0.17,3.75,0.27
			c-0.62,1.63-1.06,2.77-1.61,4.2c2.72,0,5.01,0,7.32,0c-0.53-6.06-1.6-11.79,0.4-17.48c0.11-0.3-1.22-1.59-1.94-1.63
			c-4.57-0.3-9.15-0.41-13.73-0.51c-2.71-0.06-3.9,1.47-3.59,4.22c0.09,0.78,0.07,1.75-0.31,2.37c-2.21,3.61-1.69,5.88,2.17,7.47
			c2.2,0.91,2.81,1.88,1.23,3.86c-0.25,0.32-0.04,1-0.04,1.67C308.1,335.74,310.23,335.74,312.78,335.74z M272.28,337.3
			c5.54-0.06,10.32-4.88,10.26-10.33c-0.07-5.74-5.09-10.62-10.85-10.55c-5.32,0.07-9.86,4.85-9.85,10.35
			C261.85,332.45,266.72,337.37,272.28,337.3z M356.9,323.68c1.28-4.62-0.35-6.83-4.33-6.29c-1.09,0.15-2.2,0.15-3.27,0.36
			c-6.63,1.34-9.55,9.4-4.94,14.34c1.96,2.11,4.88,3.32,7.28,4.89c-0.3,0.08-1,0.24-1.68,0.47c-2.19,0.75-3.72,2.07-3.21,4.62
			c0.51,2.52,2.36,3.19,4.72,3.04c4.28-0.27,6.65-2.86,7.07-7.95c0.29-3.55,0.46-7.12,0.7-10.89c-2.01,0-4.34,0-6.95,0
			c0.31,0.91,0.6,1.32,0.56,1.7c-0.12,1.25,0.01,3.28-0.62,3.57c-1.88,0.86-3.37-0.59-3.46-2.33c-0.1-2.04,0.05-4.49,1.11-6.09
			c1.39-2.11,3.68-1.17,5.55,0.09C355.77,323.43,356.24,323.48,356.9,323.68z M323.82,335.77c1.26,0,2.43-0.09,3.59,0.02
			c2.39,0.22,2.95-0.65,2.64-3.08c-0.38-2.92-0.25-5.95,0.03-8.9c0.11-1.11,1.25-2.12,1.92-3.18c0.91,0.93,2.63,1.92,2.57,2.78
			c-0.23,3.08-1.1,6.1-1.67,9.15c-0.18,0.97-0.55,2.27-0.11,2.9c0.81,1.15,5.38,0.37,6.87-1.09c-1-0.36-1.9-0.69-2.87-1.04
			c1.24-1.85,2.4-3.45,3.41-5.13c1.49-2.47,1.63-4.98-0.11-7.43c-1.91-2.69-4.39-4.2-7.81-4.05c-1.91,0.09-3.85,0.04-5.75-0.18
			c-2.27-0.26-3.17,0.63-2.55,2.66C325.56,324.48,324.97,329.75,323.82,335.77z M374.01,330.41c-2.58,0.73-4.92,1.39-7.26,2.05
			c-0.17-1.44-0.34-2.87-0.5-4.28c2.22-0.66,5.39,1.48,5.24-2.55c-0.13-3.59-2.77-2.06-5.02-2.02c0.1-0.97,0.18-1.75,0.26-2.54
			c2.51,0.39,5.03,0.78,8.57,1.33c-1.17-2.09-1.91-5.01-3.08-5.19c-3.84-0.61-7.84-0.23-11.46-0.23c0,6.42,0,12.26,0,18.54
			c2.97,0,6.12,0.03,9.27-0.01C373.29,335.47,374.54,333.72,374.01,330.41z"/>
		<path d="M289.94,332.5c0.13,0.91,0.26,1.83,0.43,3.09c-2.4,0-4.6,0-6.23,0c0-4.48,0.03-8.9-0.02-13.31
			c-0.01-0.95-0.28-1.91-0.49-2.86c-0.2-0.85-0.5-1.68-0.75-2.52c0.84-0.04,1.67-0.11,2.51-0.11c2.39,0.01,4.78,0.15,7.16,0.06
			c2.99-0.11,5.86,0.05,7.25,3.23c1.25,2.85,0.04,5.24-2.19,6.98c-2.97,2.32-1.01,4.74-0.44,7.16c0.59,2.5,2.31,1.91,4.13,1.73
			c2.6-0.25,4.53,0.93,5,3.67c0.42,2.46-1.54,5.05-4.22,4.75c-2.15-0.24-4.68-1.41-6.07-3.01c-2.28-2.64-3.77-5.97-5.59-9.01
			C290.27,332.39,290.1,332.44,289.94,332.5z M288.74,323.25c0.93,1.29,1.53,2.12,2.13,2.96c0.99-1.19,2.24-2.27,2.8-3.64
			c0.18-0.43-1.47-1.62-2.28-2.47C290.6,321.04,289.81,321.98,288.74,323.25z"/>
		<path d="M312.78,335.74c-2.55,0-4.67,0-6.92,0c0-0.67-0.22-1.36,0.04-1.67c1.57-1.98,0.97-2.95-1.23-3.86
			c-3.86-1.6-4.38-3.87-2.17-7.47c0.38-0.63,0.4-1.59,0.31-2.37c-0.31-2.75,0.88-4.27,3.59-4.22c4.58,0.09,9.16,0.21,13.73,0.51
			c0.71,0.05,2.04,1.33,1.94,1.63c-2,5.69-0.93,11.42-0.4,17.48c-2.3,0-4.6,0-7.32,0c0.55-1.43,0.98-2.57,1.61-4.2
			c-1.36-0.1-2.42-0.17-3.75-0.27C312.41,332.92,312.56,334.06,312.78,335.74z M316.31,321.27c-3.66,0.86-4.28,2.73-3.95,4.92
			c0.07,0.49,1.49,0.77,2.29,1.14C315.14,325.54,315.63,323.75,316.31,321.27z"/>
		<path d="M272.28,337.3c-5.55,0.06-10.43-4.85-10.44-10.53c-0.01-5.5,4.53-10.28,9.85-10.35c5.77-0.08,10.78,4.8,10.85,10.55
			C282.6,332.43,277.82,337.24,272.28,337.3z M268.64,324.03c1.37,1.83,2.24,4.08,3.29,4.17c2.49,0.21,2.68-2.34,2.46-4.06
			c-0.18-1.38-1.41-2.62-2.18-3.92C271.15,321.35,270.1,322.48,268.64,324.03z"/>
		<path d="M356.9,323.68c-0.66-0.21-1.13-0.25-1.47-0.48c-1.87-1.26-4.16-2.2-5.55-0.09c-1.06,1.6-1.21,4.05-1.11,6.09
			c0.09,1.74,1.58,3.19,3.46,2.33c0.63-0.29,0.5-2.32,0.62-3.57c0.04-0.38-0.25-0.79-0.56-1.7c2.61,0,4.94,0,6.95,0
			c-0.24,3.78-0.41,7.34-0.7,10.89c-0.41,5.09-2.79,7.68-7.07,7.95c-2.36,0.15-4.21-0.52-4.72-3.04c-0.52-2.54,1.02-3.87,3.21-4.62
			c0.67-0.23,1.38-0.39,1.68-0.47c-2.4-1.57-5.32-2.78-7.28-4.89c-4.61-4.95-1.7-13.01,4.94-14.34c1.07-0.22,2.18-0.22,3.27-0.36
			C356.55,316.86,358.18,319.07,356.9,323.68z"/>
		<path d="M323.82,335.77c1.16-6.02,1.75-11.29,0.14-16.56c-0.62-2.03,0.27-2.92,2.55-2.66c1.9,0.21,3.84,0.26,5.75,0.18
			c3.42-0.15,5.9,1.36,7.81,4.05c1.74,2.45,1.6,4.96,0.11,7.43c-1.01,1.68-2.17,3.27-3.41,5.13c0.98,0.35,1.87,0.68,2.87,1.04
			c-1.48,1.46-6.05,2.24-6.87,1.09c-0.44-0.63-0.07-1.93,0.11-2.9c0.56-3.06,1.43-6.08,1.67-9.15c0.07-0.86-1.66-1.85-2.57-2.78
			c-0.67,1.06-1.81,2.07-1.92,3.18c-0.28,2.95-0.41,5.98-0.03,8.9c0.31,2.42-0.24,3.29-2.64,3.08
			C326.25,335.68,325.08,335.77,323.82,335.77z"/>
		<path d="M374.01,330.41c0.53,3.31-0.71,5.06-3.98,5.1c-3.15,0.04-6.3,0.01-9.27,0.01c0-6.27,0-12.11,0-18.54
			c3.62,0,7.62-0.38,11.46,0.23c1.17,0.19,1.91,3.11,3.08,5.19c-3.55-0.55-6.06-0.94-8.57-1.33c-0.08,0.78-0.16,1.57-0.26,2.54
			c2.25-0.03,4.89-1.57,5.02,2.02c0.15,4.03-3.02,1.89-5.24,2.55c0.17,1.41,0.33,2.85,0.5,4.28
			C369.09,331.8,371.43,331.13,374.01,330.41z"/>
		<path class="st17" d="M288.74,323.25c1.07-1.27,1.86-2.21,2.65-3.15c0.81,0.84,2.46,2.04,2.28,2.47c-0.57,1.37-1.82,2.45-2.8,3.64
			C290.27,325.37,289.66,324.53,288.74,323.25z"/>
		<path class="st17" d="M268.64,324.03c1.46-1.56,2.52-2.68,3.57-3.81c0.77,1.3,2,2.54,2.18,3.92c0.22,1.72,0.04,4.27-2.46,4.06
			C270.88,328.11,270.01,325.86,268.64,324.03z"/>
	</g>
	<rect x="5.71" y="1" class="st18" width="610.7" height="615.99"/>
	<rect x="5.47" y="2" class="st6" width="610.73" height="458.36"/>
	<rect x="5" y="4.5" class="st19" width="610" height="118.5"/>
	<g>
		<path class="st2" d="M63.86,102.63V86.7H50.58c-2.21,0-4.09,0.78-5.62,2.34c-1.53,1.56-2.3,3.42-2.3,5.58v8H32.19V74.95
			c0-4.26,0.84-8.36,2.51-12.3c1.67-3.94,3.93-7.34,6.77-10.18c2.84-2.84,6.22-5.11,10.13-6.81c3.92-1.7,8-2.58,12.26-2.64h10.47
			v59.6H63.86z M42.66,86.19h21.2V43.53c-6.59,0.06-12.55,2.02-17.88,5.88c-2.21,1.53-3.32,3.66-3.32,6.39V86.19z"/>
		<path class="st2" d="M95.03,43.62v59.01H84.55V43.11h10.47c1.76,0.06,3.6,0.2,5.53,0.43c1.93,0.23,4.2,0.63,6.81,1.19
			c2.61,0.57,5.17,1.46,7.66,2.68c2.5,1.22,4.6,2.71,6.3,4.47c1.76-1.76,3.89-3.25,6.39-4.47c2.5-1.22,5.05-2.11,7.66-2.68
			c2.61-0.57,4.88-0.96,6.81-1.19c1.93-0.23,3.77-0.37,5.53-0.43h10.47v59.52h-10.47V43.62c-6.76,0.17-12.66,1.31-17.71,3.41
			c-1.02,0.4-1.85,1.08-2.47,2.04c-0.63,0.97-0.94,2.02-0.94,3.15v50.41h-10.47V52.22c0-1.14-0.31-2.19-0.94-3.15
			c-0.63-0.96-1.45-1.65-2.47-2.04C107.69,44.92,101.78,43.79,95.03,43.62z"/>
		<path class="st2" d="M178.9,86.53v16.09h-10.47v-59.6h10.47c1.36,0.06,2.77,0.14,4.21,0.26c1.45,0.11,3.26,0.38,5.45,0.81
			c2.18,0.43,4.23,0.94,6.13,1.53c1.9,0.6,3.86,1.46,5.88,2.6c2.01,1.14,3.73,2.44,5.15,3.92c1.42,1.48,2.6,3.32,3.53,5.53
			s1.41,4.66,1.41,7.32c0,2.72-0.48,5.21-1.45,7.45c-0.97,2.24-2.17,4.09-3.62,5.53c-1.45,1.45-3.21,2.72-5.28,3.83
			c-2.07,1.11-4.06,1.95-5.96,2.51c-1.9,0.57-3.95,1.04-6.13,1.4c-2.19,0.37-3.97,0.6-5.36,0.68
			C181.47,86.49,180.15,86.53,178.9,86.53z M194.65,46.26c-4.71-1.65-9.96-2.55-15.75-2.72v42.49c6.36-0.11,11.58-0.94,15.67-2.47
			c1.65-0.57,2.97-1.53,3.96-2.9c0.99-1.36,1.49-2.9,1.49-4.6V53.66c0-1.65-0.48-3.16-1.45-4.56
			C197.6,47.72,196.3,46.77,194.65,46.26z"/>
		<path class="st2" d="M259.71,102.63h-42.15v-59.6h10.47v59.09h23.25c2.16,0,4.02-0.78,5.58-2.34c1.56-1.56,2.34-3.42,2.34-5.58
			h0.51V102.63z"/>
		<path class="st2" d="M275.63,102.63h-10.47v-59.6h10.47V102.63z"/>
		<path class="st2" d="M296.32,67.29v35.34h-10.47v-59.6h34.23v8.43h-0.51c0-2.16-0.77-4.02-2.3-5.58
			c-1.53-1.56-3.41-2.34-5.62-2.34h-15.33v15.33h15.58v0.51h-7.66c-2.21,0-4.09,0.78-5.62,2.34
			C297.09,63.27,296.32,65.13,296.32,67.29z"/>
		<path class="st2" d="M336.08,102.63h-10.47v-59.6h10.47V102.63z"/>
		<path class="st2" d="M383.77,102.63c-1.53,0-3.15-0.06-4.85-0.17c-1.7-0.11-3.95-0.4-6.73-0.85c-2.78-0.45-5.38-1.06-7.79-1.83
			c-2.41-0.77-4.95-1.9-7.62-3.41c-2.67-1.5-4.94-3.26-6.81-5.28c-1.87-2.01-3.42-4.57-4.64-7.66c-1.22-3.09-1.83-6.54-1.83-10.35
			c0-3.92,0.65-7.46,1.96-10.64c1.3-3.18,2.94-5.79,4.9-7.83c1.96-2.04,4.33-3.83,7.11-5.36c2.78-1.53,5.42-2.67,7.92-3.41
			c2.5-0.74,5.17-1.35,8-1.83c2.84-0.48,5.05-0.77,6.64-0.85c1.59-0.08,3.09-0.13,4.51-0.13h1.19v8.43h-0.51
			c0-1.82-0.57-3.45-1.7-4.9c-1.14-1.45-2.58-2.37-4.34-2.77c-8.29,0.68-15.27,2.58-20.95,5.71c-1.31,0.68-2.33,1.65-3.07,2.9
			c-0.74,1.25-1.11,2.58-1.11,4V89.6c0,1.48,0.38,2.84,1.15,4.09c0.77,1.25,1.8,2.21,3.11,2.9c0.74,0.46,1.53,0.85,2.38,1.19
			c5.22,2.27,11.33,3.66,18.31,4.17c1.76-0.4,3.24-1.32,4.43-2.77c1.19-1.45,1.79-3.11,1.79-4.98h0.51v8.43H383.77z"/>
		<path class="st2" d="M422.68,102.63V86.7H409.4c-2.21,0-4.09,0.78-5.62,2.34c-1.53,1.56-2.3,3.42-2.3,5.58v8h-10.47V74.95
			c0-4.26,0.84-8.36,2.51-12.3c1.67-3.94,3.93-7.34,6.77-10.18c2.84-2.84,6.22-5.11,10.13-6.81c3.92-1.7,8-2.58,12.26-2.64h10.47
			v59.6H422.68z M401.48,86.19h21.2V43.53c-6.59,0.06-12.55,2.02-17.88,5.88c-2.21,1.53-3.32,3.66-3.32,6.39V86.19z"/>
		<path class="st2" d="M485.61,73.08c0,3.8-0.61,7.25-1.83,10.35c-1.22,3.09-2.77,5.65-4.64,7.66c-1.87,2.02-4.13,3.78-6.77,5.28
			c-2.64,1.5-5.18,2.64-7.62,3.41c-2.44,0.77-5.05,1.38-7.83,1.83c-2.78,0.46-5.01,0.74-6.68,0.85c-1.68,0.11-3.31,0.17-4.9,0.17
			h-1.96v-59.6c0.28,0,0.71,0,1.28,0c1.36,0,2.85,0.04,4.47,0.13c1.62,0.09,3.83,0.37,6.64,0.85c2.81,0.48,5.46,1.09,7.96,1.83
			c2.5,0.74,5.14,1.87,7.92,3.41c2.78,1.53,5.15,3.32,7.11,5.36c1.96,2.04,3.59,4.66,4.9,7.83
			C484.95,65.61,485.61,69.16,485.61,73.08z M453.84,44.21v57.31c5.51-0.68,10.36-1.93,14.56-3.75c0.85-0.34,1.67-0.74,2.47-1.19
			c1.31-0.68,2.33-1.65,3.07-2.9c0.74-1.25,1.11-2.61,1.11-4.09V56.39c0-1.42-0.36-2.75-1.06-4c-0.71-1.25-1.72-2.21-3.02-2.9
			C466.25,46.88,460.54,45.12,453.84,44.21z"/>
		<path class="st2" d="M528.44,99.43c-3.86,2.75-8.08,4.13-12.64,4.13c-4.57,0-8.79-1.38-12.64-4.13c-3.86-2.75-6.91-6.48-9.15-11.2
			c-2.24-4.71-3.36-9.82-3.36-15.33c0-4.2,0.67-8.19,2-11.96c1.33-3.77,3.12-7.02,5.36-9.75c2.24-2.73,4.91-4.91,8-6.56
			c3.09-1.65,6.36-2.47,9.79-2.47c3.43,0,6.7,0.82,9.79,2.47c3.09,1.65,5.76,3.83,8,6.56c2.24,2.72,4.03,5.98,5.37,9.75
			c1.33,3.78,2,7.76,2,11.96c0,5.51-1.12,10.62-3.36,15.33C535.35,92.95,532.3,96.68,528.44,99.43z M501.1,52.73V93
			c0,1.42,0.34,2.75,1.02,4c0.68,1.25,1.65,2.21,2.9,2.9c3.35,2.04,6.94,3.07,10.77,3.07s7.45-1.02,10.86-3.07
			c1.19-0.68,2.14-1.65,2.85-2.9c0.71-1.25,1.06-2.58,1.06-4V52.73c0-1.42-0.36-2.75-1.06-4c-0.71-1.25-1.66-2.21-2.85-2.9
			c-3.41-2.04-7.02-3.07-10.86-3.07s-7.42,1.02-10.77,3.07c-0.85,0.46-1.56,1.04-2.13,1.75c-0.57,0.71-1.01,1.5-1.32,2.38
			C501.26,50.84,501.1,51.76,501.1,52.73z"/>
		<path class="st2" d="M559.26,86.53v16.09h-10.47v-59.6h10.47c1.36,0.06,2.77,0.14,4.22,0.26c1.45,0.11,3.26,0.38,5.45,0.81
			c2.18,0.43,4.23,0.94,6.13,1.53c1.9,0.6,3.86,1.46,5.88,2.6c2.01,1.14,3.73,2.44,5.15,3.92c1.42,1.48,2.6,3.32,3.53,5.53
			s1.41,4.66,1.41,7.32c0,9.03-5.02,15.3-15.07,18.82c0.17-0.06,0.34-0.11,0.51-0.17c3.35,2.16,6.19,4.85,8.51,8.09
			c2.33,3.24,4,6.81,5.02,10.73h-9.45V91.22c0-2.72-1.11-4.88-3.32-6.47c-0.4-0.28-0.85-0.6-1.36-0.94
			C570.93,85.51,565.39,86.42,559.26,86.53z M575.01,46.26c-4.71-1.65-9.96-2.55-15.75-2.72v42.49c6.19-0.11,11.41-0.94,15.67-2.47
			c1.65-0.57,2.97-1.53,3.96-2.9c0.99-1.36,1.49-2.9,1.49-4.6V53.66c0-1.65-0.48-3.16-1.45-4.56
			C577.96,47.72,576.66,46.77,575.01,46.26z"/>
	</g>
	<g>
		<path class="st3" d="M59.5,96.1V80.18H46.22c-2.21,0-4.09,0.78-5.62,2.34c-1.53,1.56-2.3,3.42-2.3,5.58v8H27.83V68.43
			c0-4.26,0.84-8.36,2.51-12.3c1.67-3.94,3.93-7.34,6.77-10.18c2.84-2.84,6.22-5.11,10.13-6.81c3.92-1.7,8-2.58,12.26-2.64h10.47
			v59.6H59.5z M38.3,79.67h21.2V37c-6.59,0.06-12.55,2.02-17.88,5.88c-2.21,1.53-3.32,3.66-3.32,6.39V79.67z"/>
		<path class="st3" d="M90.67,37.09V96.1H80.19V36.58h10.47c1.76,0.06,3.6,0.2,5.53,0.43c1.93,0.23,4.2,0.63,6.81,1.19
			c2.61,0.57,5.17,1.46,7.66,2.68c2.5,1.22,4.6,2.71,6.3,4.47c1.76-1.76,3.89-3.25,6.39-4.47c2.5-1.22,5.05-2.11,7.66-2.68
			c2.61-0.57,4.88-0.96,6.81-1.19c1.93-0.23,3.77-0.37,5.53-0.43h10.47V96.1h-10.47V37.09c-6.76,0.17-12.66,1.31-17.71,3.41
			c-1.02,0.4-1.85,1.08-2.47,2.04c-0.63,0.97-0.94,2.02-0.94,3.15V96.1h-10.47V45.69c0-1.14-0.31-2.19-0.94-3.15
			c-0.63-0.96-1.45-1.65-2.47-2.04C103.32,38.4,97.42,37.26,90.67,37.09z"/>
		<path class="st3" d="M174.54,80.01V96.1h-10.47v-59.6h10.47c1.36,0.06,2.77,0.14,4.21,0.26c1.45,0.11,3.26,0.38,5.45,0.81
			c2.18,0.43,4.23,0.94,6.13,1.53c1.9,0.6,3.86,1.46,5.88,2.6c2.01,1.14,3.73,2.44,5.15,3.92c1.42,1.48,2.6,3.32,3.53,5.53
			s1.41,4.66,1.41,7.32c0,2.72-0.48,5.21-1.45,7.45c-0.97,2.24-2.17,4.09-3.62,5.53c-1.45,1.45-3.21,2.72-5.28,3.83
			c-2.07,1.11-4.06,1.95-5.96,2.51c-1.9,0.57-3.95,1.04-6.13,1.4c-2.19,0.37-3.97,0.6-5.36,0.68
			C177.11,79.96,175.79,80.01,174.54,80.01z M190.29,39.73c-4.71-1.65-9.96-2.55-15.75-2.72v42.49c6.36-0.11,11.58-0.94,15.67-2.47
			c1.65-0.57,2.97-1.53,3.96-2.9c0.99-1.36,1.49-2.9,1.49-4.6V47.14c0-1.65-0.48-3.16-1.45-4.56
			C193.24,41.19,191.94,40.24,190.29,39.73z"/>
		<path class="st3" d="M255.34,96.1H213.2v-59.6h10.47v59.09h23.25c2.16,0,4.02-0.78,5.58-2.34c1.56-1.56,2.34-3.42,2.34-5.58h0.51
			V96.1z"/>
		<path class="st3" d="M271.27,96.1h-10.47v-59.6h10.47V96.1z"/>
		<path class="st3" d="M291.96,60.76V96.1h-10.47v-59.6h34.23v8.43h-0.51c0-2.16-0.77-4.02-2.3-5.58c-1.53-1.56-3.41-2.34-5.62-2.34
			h-15.33v15.33h15.58v0.51h-7.66c-2.21,0-4.09,0.78-5.62,2.34C292.72,56.75,291.96,58.6,291.96,60.76z"/>
		<path class="st3" d="M331.72,96.1h-10.47v-59.6h10.47V96.1z"/>
		<path class="st3" d="M379.41,96.1c-1.53,0-3.15-0.06-4.85-0.17c-1.7-0.11-3.95-0.4-6.73-0.85c-2.78-0.45-5.38-1.06-7.79-1.83
			c-2.41-0.77-4.95-1.9-7.62-3.41c-2.67-1.5-4.94-3.26-6.81-5.28c-1.87-2.01-3.42-4.57-4.64-7.66c-1.22-3.09-1.83-6.54-1.83-10.35
			c0-3.92,0.65-7.46,1.96-10.64c1.3-3.18,2.94-5.79,4.9-7.83c1.96-2.04,4.33-3.83,7.11-5.36c2.78-1.53,5.42-2.67,7.92-3.41
			c2.5-0.74,5.17-1.35,8-1.83c2.84-0.48,5.05-0.77,6.64-0.85c1.59-0.08,3.09-0.13,4.51-0.13h1.19v8.43h-0.51
			c0-1.82-0.57-3.45-1.7-4.9c-1.14-1.45-2.58-2.37-4.34-2.77c-8.29,0.68-15.27,2.58-20.95,5.71c-1.31,0.68-2.33,1.65-3.07,2.9
			c-0.74,1.25-1.11,2.58-1.11,4v33.21c0,1.48,0.38,2.84,1.15,4.09c0.77,1.25,1.8,2.21,3.11,2.9c0.74,0.46,1.53,0.85,2.38,1.19
			c5.22,2.27,11.33,3.66,18.31,4.17c1.76-0.4,3.24-1.32,4.43-2.77c1.19-1.45,1.79-3.11,1.79-4.98h0.51v8.43H379.41z"/>
		<path class="st3" d="M418.32,96.1V80.18h-13.28c-2.21,0-4.09,0.78-5.62,2.34c-1.53,1.56-2.3,3.42-2.3,5.58v8h-10.47V68.43
			c0-4.26,0.84-8.36,2.51-12.3c1.67-3.94,3.93-7.34,6.77-10.18c2.84-2.84,6.22-5.11,10.13-6.81c3.92-1.7,8-2.58,12.26-2.64h10.47
			v59.6H418.32z M397.12,79.67h21.2V37c-6.59,0.06-12.55,2.02-17.88,5.88c-2.21,1.53-3.32,3.66-3.32,6.39V79.67z"/>
		<path class="st3" d="M481.25,66.55c0,3.8-0.61,7.25-1.83,10.35c-1.22,3.09-2.77,5.65-4.64,7.66c-1.87,2.02-4.13,3.78-6.77,5.28
			c-2.64,1.5-5.18,2.64-7.62,3.41c-2.44,0.77-5.05,1.38-7.83,1.83c-2.78,0.46-5.01,0.74-6.68,0.85c-1.68,0.11-3.31,0.17-4.9,0.17
			h-1.96v-59.6c0.28,0,0.71,0,1.28,0c1.36,0,2.85,0.04,4.47,0.13c1.62,0.09,3.83,0.37,6.64,0.85c2.81,0.48,5.46,1.09,7.96,1.83
			c2.5,0.74,5.14,1.87,7.92,3.41c2.78,1.53,5.15,3.32,7.11,5.36c1.96,2.04,3.59,4.66,4.9,7.83
			C480.59,59.09,481.25,62.64,481.25,66.55z M449.48,37.69v57.31c5.51-0.68,10.36-1.93,14.56-3.75c0.85-0.34,1.67-0.74,2.47-1.19
			c1.31-0.68,2.33-1.65,3.07-2.9c0.74-1.25,1.11-2.61,1.11-4.09V49.86c0-1.42-0.36-2.75-1.06-4c-0.71-1.25-1.72-2.21-3.02-2.9
			C461.89,40.35,456.18,38.59,449.48,37.69z"/>
		<path class="st3" d="M524.08,92.91c-3.86,2.75-8.08,4.13-12.64,4.13c-4.57,0-8.79-1.38-12.64-4.13c-3.86-2.75-6.91-6.48-9.15-11.2
			c-2.24-4.71-3.36-9.82-3.36-15.33c0-4.2,0.67-8.19,2-11.96c1.33-3.77,3.12-7.02,5.36-9.75c2.24-2.73,4.91-4.91,8-6.56
			c3.09-1.65,6.36-2.47,9.79-2.47c3.43,0,6.7,0.82,9.79,2.47c3.09,1.65,5.76,3.83,8,6.56c2.24,2.72,4.03,5.98,5.37,9.75
			c1.33,3.78,2,7.76,2,11.96c0,5.51-1.12,10.62-3.36,15.33C530.99,86.42,527.93,90.15,524.08,92.91z M496.74,46.2v40.28
			c0,1.42,0.34,2.75,1.02,4c0.68,1.25,1.65,2.21,2.9,2.9c3.35,2.04,6.94,3.07,10.77,3.07s7.45-1.02,10.86-3.07
			c1.19-0.68,2.14-1.65,2.85-2.9c0.71-1.25,1.06-2.58,1.06-4V46.2c0-1.42-0.36-2.75-1.06-4c-0.71-1.25-1.66-2.21-2.85-2.9
			c-3.41-2.04-7.02-3.07-10.86-3.07s-7.42,1.02-10.77,3.07c-0.85,0.46-1.56,1.04-2.13,1.75c-0.57,0.71-1.01,1.5-1.32,2.38
			C496.9,44.31,496.74,45.24,496.74,46.2z"/>
		<path class="st3" d="M554.9,80.01V96.1h-10.47v-59.6h10.47c1.36,0.06,2.77,0.14,4.22,0.26c1.45,0.11,3.26,0.38,5.45,0.81
			c2.18,0.43,4.23,0.94,6.13,1.53c1.9,0.6,3.86,1.46,5.88,2.6c2.01,1.14,3.73,2.44,5.15,3.92c1.42,1.48,2.6,3.32,3.53,5.53
			s1.41,4.66,1.41,7.32c0,9.03-5.02,15.3-15.07,18.82c0.17-0.06,0.34-0.11,0.51-0.17c3.35,2.16,6.19,4.85,8.51,8.09
			c2.33,3.24,4,6.81,5.02,10.73h-9.45V84.69c0-2.72-1.11-4.88-3.32-6.47c-0.4-0.28-0.85-0.6-1.36-0.94
			C566.56,78.98,561.03,79.89,554.9,80.01z M570.65,39.73c-4.71-1.65-9.96-2.55-15.75-2.72v42.49c6.19-0.11,11.41-0.94,15.67-2.47
			c1.65-0.57,2.97-1.53,3.96-2.9c0.99-1.36,1.49-2.9,1.49-4.6V47.14c0-1.65-0.48-3.16-1.45-4.56
			C573.6,41.19,572.3,40.24,570.65,39.73z"/>
	</g>
</g>
</svg>
